SplineFontDB: 3.2
FontName: OverusedGrotesk-Light
FullName: Overused Grotesk Light
FamilyName: Overused Grotesk
Weight: Light
Copyright: Copyright (c) 2023, Bao Nguyen (RandomMaerks) (rmforbusiness@gmail.com)
UComments: "2023-7-28: Created with FontForge (http://fontforge.org)"
Version: 0.4
ItalicAngle: 0
UnderlinePosition: -199
UnderlineWidth: 99
Ascent: 1600
Descent: 400
InvalidEm: 0
LayerCount: 2
Layer: 0 0 "Back" 1
Layer: 1 0 "Fore" 0
XUID: [1021 36 -67577861 30019]
StyleMap: 0x0040
FSType: 0
OS2Version: 0
OS2_WeightWidthSlopeOnly: 0
OS2_UseTypoMetrics: 1
CreationTime: 1690548111
ModificationTime: 1712422543
PfmFamily: 17
TTFWeight: 300
TTFWidth: 5
LineGap: 0
VLineGap: 180
OS2TypoAscent: 2000
OS2TypoAOffset: 0
OS2TypoDescent: -700
OS2TypoDOffset: 0
OS2TypoLinegap: 0
OS2WinAscent: 2000
OS2WinAOffset: 0
OS2WinDescent: 700
OS2WinDOffset: 0
HheadAscent: 2000
HheadAOffset: 0
HheadDescent: -700
HheadDOffset: 0
OS2CapHeight: 1300
OS2XHeight: 1000
OS2Vendor: 'Rand'
Lookup: 1 0 0 "dieresis" { "dieresis-1" ("calt") } ['cv06' ('DFLT' <'dflt' > 'bopo' <'dflt' > 'cyrl' <'dflt' > 'grek' <'dflt' > 'latn' <'dflt' > ) ]
Lookup: 6 0 0 "'calt' Contextual Alternates lookup 26" { "'calt' Contextual Alternates lookup 26-1"  } ['calt' ('DFLT' <'dflt' > 'bopo' <'dflt' > 'cyrl' <'dflt' > 'grek' <'dflt' > 'latn' <'dflt' > ) ]
Lookup: 4 0 0 "'dlig' Discretionary Ligatures lookup 23" { "'dlig' Discretionary Ligatures lookup 23-1"  } ['dlig' ('DFLT' <'dflt' > 'bopo' <'dflt' > 'cyrl' <'dflt' > 'grek' <'dflt' > 'latn' <'dflt' > ) ]
Lookup: 4 0 0 "'frac' Diagonal Fractions lookup 22" { "'frac' Diagonal Fractions lookup 22-1"  } ['frac' ('DFLT' <'dflt' > 'bopo' <'dflt' > 'cyrl' <'dflt' > 'grek' <'dflt' > 'latn' <'dflt' > ) ]
Lookup: 1 0 0 "'ss11' Style Set 11 in Latin lookup 22" { "'ss11' Style Set 11 in Latin lookup 22-1" ("ss11") } ['ss11' ('DFLT' <'dflt' > 'latn' <'dflt' > ) ]

StartChar: n
Encoding: 110 110 0
GlifName: n
Width: 1019
GlyphClass: 2
Flags: HW
HStem: 0 41G<109 211 811 910> 920 100<361 695> 961 39G<109 211>
VStem: 109 102<0 1000> 152 59<645 879> 811 100<0 801>
AnchorPoint: "bottom1" 525 0 basechar 0
AnchorPoint: "top1" 520 1119 basechar 0
LayerCount: 2
Fore
SplineSet
811 619 m 2xcc
 811 830 696 920 518 920 c 0
 344 920 211 801 211 633 c 1xd4
 152 645 l 1
 154 879 353 1020 537 1020 c 0
 754 1020 910 887 910 641 c 2
 910 0 l 1
 811 0 l 1
 811 619 l 2xcc
109 1000 m 1xb4
 211 1000 l 5
 211 0 l 1
 109 0 l 1
 109 1000 l 1xb4
EndSplineSet
Substitution2: "'sups' Superscript in Latin lookup 15-1" uni207F
Substitution2: "'subs' Subscript in Latin lookup 14-1" uni2099
EndChar

StartChar: h
Encoding: 104 104 1
GlifName: h
Width: 1019
GlyphClass: 2
Flags: HW
HStem: 0 41G<109 211 811 910> 920 100<361 695> 1361 39G<109 211>
VStem: 109 102<0 1400> 152 59<645 879> 811 100<0 801>
AnchorPoint: "top1" 158 1510 basechar 0
LayerCount: 2
Fore
SplineSet
811 619 m 6xec
 811 830 696 920 518 920 c 4
 344 920 211 801 211 633 c 5xf4
 152 645 l 5
 154 879 353 1020 537 1020 c 4
 754 1020 910 887 910 641 c 6
 910 0 l 5
 811 0 l 5
 811 619 l 6xec
109 1400 m 5
 211 1400 l 5
 211 0 l 5
 109 0 l 5
 109 1400 l 5
EndSplineSet
EndChar

StartChar: m
Encoding: 109 109 2
GlifName: m
Width: 1638
GlyphClass: 2
Flags: W
HStem: 0 21G<109 211 770 869 1430 1529> 920 100<350.957 660.404 1006.18 1320.4> 980 20G<109 211>
VStem: 109 102<0 1000> 152 59<645 879> 770 99<0 638.428> 807 62<645 879> 1430 99<0 804>
LayerCount: 2
Fore
SplineSet
1430 619 m 6xc3
 1430 830 1324 920 1158 920 c 4
 996 920 869 801 869 633 c 5xc5
 807 645 l 5
 807 879 1000 1020 1178 1020 c 4
 1381 1020 1529 887 1529 641 c 6
 1529 0 l 5
 1430 0 l 5
 1430 619 l 6xc3
770 619 m 6
 770 830 664 920 498 920 c 4
 336 920 211 801 211 633 c 5xd5
 152 645 l 5
 152 879 344 1020 518 1020 c 4
 721 1020 869 887 869 641 c 6xcb
 869 0 l 5
 770 0 l 5
 770 619 l 6
109 1000 m 5xb1
 211 1000 l 5
 211 0 l 5
 109 0 l 5
 109 1000 l 5xb1
EndSplineSet
EndChar

StartChar: u
Encoding: 117 117 3
GlifName: u
Width: 1003
GlyphClass: 2
Flags: HW
HStem: -20 100<328 640> 0 41G<795 895> 961 39G<109 211 795 895>
VStem: 109 102<210 1000> 795 100<377 1000> 795 57<131 377>
AnchorPoint: "top3" 795 1000 basechar 0
AnchorPoint: "bottom2" 895 0 basechar 0
AnchorPoint: "bottom1" 486 0 basechar 0
AnchorPoint: "top1" 518 1119 basechar 0
LayerCount: 2
Fore
SplineSet
211 400 m 6xb4
 211 175 322 80 494 80 c 4
 664 80 795 209 795 389 c 5xb8
 852 377 l 5
 852 131 655 -20 475 -20 c 4
 262 -20 109 123 109 381 c 6
 109 1000 l 5
 211 1000 l 5
 211 400 l 6xb4
895 0 m 5x78
 795 0 l 5x74
 795 1000 l 5
 895 1000 l 5
 895 0 l 5x78
EndSplineSet
Substitution2: "'ss10' Style Set 10 in Latin lookup 9-1" u.ss10
EndChar

StartChar: i
Encoding: 105 105 4
GlifName: i
Width: 318
GlyphClass: 2
Flags: HW
HStem: 0 41G<109 211> 961 39G<109 211> 1146 139<96 225>
VStem: 109 102<0 1000 1146 1285>
AnchorPoint: "bottom1" 162 0 basechar 0
AnchorPoint: "bottom2" 211 0 basechar 0
LayerCount: 2
Fore
SplineSet
96 1285 m 5
 225 1285 l 5
 225 1146 l 5
 96 1146 l 5
 96 1285 l 5
109 1000 m 1
 211 1000 l 1
 211 0 l 1
 109 0 l 1
 109 1000 l 1
EndSplineSet
Substitution2: "'ss03' Style Set 3 in Latin lookup 2-1" i.ss03
EndChar

StartChar: l
Encoding: 108 108 5
GlifName: l
Width: 318
GlyphClass: 2
Flags: W
HStem: 0 21G<109 211> 1380 20G<109 211>
VStem: 109 102<0 1400>
AnchorPoint: "top2" 320 1000 basechar 0
AnchorPoint: "bottom1" 160 0 basechar 0
AnchorPoint: "top1" 158 1510 basechar 0
LayerCount: 2
Fore
SplineSet
109 1400 m 5
 211 1400 l 5
 211 0 l 5
 109 0 l 5
 109 1400 l 5
EndSplineSet
Substitution2: "'ss02' Style Set 2 in Latin lookup 1-1" l.ss02
EndChar

StartChar: o
Encoding: 111 111 6
GlifName: o
Width: 1089
GlyphClass: 2
Flags: W
HStem: -16 100<368.741 723.662> 920 100<368.741 723.662>
VStem: 90 105<279.577 726.911> 895 105<275.217 731.229>
AnchorPoint: "top3" 662 1000 basechar 0
AnchorPoint: "bottom1" 547 0 basechar 0
AnchorPoint: "top1" 545 1119 basechar 0
LayerCount: 2
Fore
SplineSet
90 504 m 0
 90 815 274 1020 547 1020 c 0
 818 1020 1000 815 1000 504 c 0
 1000 192 818 -16 547 -16 c 0
 274 -16 90 192 90 504 c 0
895 504 m 0
 895 768 768 920 547 920 c 0
 324 920 195 768 195 504 c 0
 195 238 324 84 547 84 c 0
 768 84 895 238 895 504 c 0
EndSplineSet
EndChar

StartChar: c
Encoding: 99 99 7
GlifName: c
Width: 1072
GlyphClass: 2
Flags: W
HStem: -16 100<367.967 732.637> 920 100<367.524 733.596>
VStem: 90 105<279.577 731.229> 879 105<214.985 348 639 776.641>
AnchorPoint: "bottom1" 547 0 basechar 0
AnchorPoint: "top1" 547 1119 basechar 0
LayerCount: 2
Fore
SplineSet
90 504 m 4
 90 815 274 1020 545 1020 c 4
 789 1020 966 866 984 639 c 5
 879 639 l 5
 871 811 740 920 545 920 c 4
 322 920 195 768 195 504 c 4
 195 238 324 84 545 84 c 4
 738 84 869 186 879 348 c 5
 984 348 l 5
 963 127 789 -16 545 -16 c 4
 274 -16 90 192 90 504 c 4
EndSplineSet
EndChar

StartChar: e
Encoding: 101 101 8
GlifName: e
Width: 1085
GlyphClass: 2
Flags: HW
HStem: -16 100<372 746> 473 96<178 889> 920 100<366 710>
VStem: 178 18<473 568> 879 105<212 311 568 749>
AnchorPoint: "bottom2" 846 72 basechar 0
AnchorPoint: "bottom1" 562 0 basechar 0
AnchorPoint: "top1" 543 1119 basechar 0
LayerCount: 2
Fore
SplineSet
90 504 m 0
 90 822 268 1020 547 1020 c 0
 809 1020 996 814 996 531 c 2
 996 473 l 1
 178 473 l 1
 178 568 l 1
 889 568 l 1
 871 783 736 920 547 920 c 0
 317 920 195 775 195 504 c 0
 195 231 323 84 559 84 c 0
 741 84 852 174 879 311 c 1
 984 311 l 1
 939 104 801 -16 559 -16 c 0
 272 -16 90 184 90 504 c 0
EndSplineSet
EndChar

StartChar: a
Encoding: 97 97 9
GlifName: a
Width: 1001
GlyphClass: 2
Flags: W
HStem: -20 100<269.216 611.157> 0 21G<789 891> 921 99<334.34 670.286>
VStem: 90 103<154.833 383.265> 118 106<672 810.249> 789 102<439 471 618 811.248> 789 70<162.207 439>
AnchorPoint: "bottom2" 891 0 basechar 0
AnchorPoint: "bottom1" 553 0 basechar 0
AnchorPoint: "top1" 506 1119 basechar 0
LayerCount: 2
Fore
SplineSet
891 670 m 6x6c
 891 0 l 5x6c
 789 0 l 5x62
 789 672 l 6
 789 821.259983437 671.444642106 921 495.524170295 921 c 4
 333.013096793 921 240.881230514 832.510892903 224 672 c 5
 118 672 l 5
 131.484192089 870.811513377 283.807916226 1020 504.392891301 1020 c 4
 731.033553515 1020 891 875.18047907 891 670 c 6x6c
859 439 m 5xa2
 859 162.20697764 663.233736896 -20 414.620108596 -20 c 4
 224.268036757 -20 90 98.5316025774 90 266.574099317 c 4
 90 418.937172459 200.375938984 520.780106619 382 536 c 6
 740 566 l 6
 774.755705088 568.912489253 789 584.028883853 789 618 c 5
 793 471 l 5
 402 443 l 6
 263.505848642 432.965384456 193 375.359802326 193 272.240170894 c 4
 193 154.385304994 285.1000925 80 431.021979247 80 c 4
 638.718714179 80 789 210.71031874 789 439 c 5xb4
 859 439 l 5xa2
EndSplineSet
Substitution2: "'cv05' Character Variants 05 in Latin lookup 20-1" a.spur
Substitution2: "'ss01' Style Set 1 in Latin lookup 0-1" a.ss01
EndChar

StartChar: s
Encoding: 115 115 10
GlifName: s
Width: 978
GlyphClass: 2
Flags: HW
HStem: -16 98<312 705> 920 98<287 653>
VStem: 100 100<188 301 631 841> 762 104<699 817> 789 102<155 368>
AnchorPoint: "bottom1" 521 0 basechar 0
AnchorPoint: "top1" 473 1119 basechar 0
LayerCount: 2
Fore
SplineSet
561 441 m 6xe8
 410 463 l 6
 211 488 100 566 100 734 c 4
 100 908 243 1018 475 1018 c 4
 700 1018 845 896 865 699 c 5
 762 699 l 5xf0
 737 849 647 920 473 920 c 4
 309 920 199 847 199 738 c 4
 199 631 273 588 418 570 c 6
 568 551 l 6
 785 524 891 430 891 256 c 4
 891 90 743 -16 520 -16 c 4
 266 -16 111 112 90 301 c 5
 197 301 l 5
 222 151 328 82 521 82 c 4
 681 82 789 151 789 256 c 4
 789 363 715 423 561 441 c 6xe8
EndSplineSet
EndChar

StartChar: b
Encoding: 98 98 11
GlifName: b
Width: 1103
GlyphClass: 2
Flags: HW
HStem: -16 100<382 739> 0 41G<109 211> 920 100<382 739> 1361 39G<109 211>
VStem: 109 102<504 1400> 145 66<191 814> 908 105<275 731>
LayerCount: 2
Fore
SplineSet
109 1400 m 1x7a
 211 1400 l 1x7a
 211 0 l 1x76
 109 0 l 1
 109 1400 l 1x7a
145 504 m 0xb6
 145 815 312 1020 566 1020 c 0
 834 1020 1014 815 1014 504 c 0
 1014 192 834 -16 566 -16 c 0
 312 -16 145 192 145 504 c 0xb6
908 504 m 0
 908 768 782 920 561 920 c 0
 338 920 211 768 211 504 c 0xba
 211 238 338 84 561 84 c 0
 782 84 908 238 908 504 c 0
EndSplineSet
EndChar

StartChar: d
Encoding: 100 100 12
GlifName: d
Width: 1103
GlyphClass: 2
Flags: W
HStem: -16 100<370.369 718.715> 920 100<370.369 718.715>
VStem: 90 105<279.577 726.911> 895 66<192 815>
AnchorPoint: "top2" 1104 1000 basechar 0
LayerCount: 2
Fore
SplineSet
994 1400 m 5
 895 1400 l 5
 895 0 l 5
 994 0 l 5
 994 1400 l 5
961 504 m 4
 961 815 791 1020 537 1020 c 4
 269 1020 90 815 90 504 c 4
 90 192 269 -16 537 -16 c 4
 791 -16 961 192 961 504 c 4
195 504 m 4
 195 768 324 920 545 920 c 4
 768 920 895 768 895 504 c 4
 895 238 768 84 545 84 c 4
 324 84 195 238 195 504 c 4
EndSplineSet
EndChar

StartChar: p
Encoding: 112 112 13
GlifName: p
Width: 1103
GlyphClass: 2
Flags: HW
HStem: -16 100<382 739> 920 100<382 739> 961 39G<109 211>
VStem: 109 102<-326 1000> 145 66<191 814> 908 105<275 731>
LayerCount: 2
Fore
SplineSet
109 1000 m 5xb4
 211 1000 l 5
 211 -326 l 5
 109 -326 l 5
 109 1000 l 5xb4
145 504 m 4xcc
 145 815 312 1020 566 1020 c 4
 834 1020 1014 815 1014 504 c 4
 1014 192 834 -16 566 -16 c 4
 312 -16 145 192 145 504 c 4xcc
908 504 m 4
 908 768 782 920 561 920 c 4
 338 920 211 768 211 504 c 4xd4
 211 238 338 84 561 84 c 4
 782 84 908 238 908 504 c 4
EndSplineSet
EndChar

StartChar: q
Encoding: 113 113 14
GlifName: q
Width: 1103
GlyphClass: 2
Flags: HW
HStem: -16 100<371 719> 920 100<371 722>
VStem: 90 105<280 727> 895 66<191 814>
LayerCount: 2
Fore
SplineSet
994 1000 m 1
 895 1000 l 1
 895 -326 l 1
 994 -326 l 1
 994 1000 l 1
961 504 m 0
 961 815 791 1020 537 1020 c 0
 269 1020 90 815 90 504 c 0
 90 192 269 -16 537 -16 c 0
 791 -16 961 192 961 504 c 0
195 504 m 0
 195 768 324 920 545 920 c 0
 768 920 895 768 895 504 c 0
 895 238 768 84 545 84 c 0
 324 84 195 238 195 504 c 0
EndSplineSet
EndChar

StartChar: g
Encoding: 103 103 15
GlifName: g
Width: 1103
GlyphClass: 2
Flags: HW
HStem: -387 102<346 761> 14 100<365 722> 920 100<365 722>
VStem: 90 105<301 733> 109 107<-171 -72> 895 100<-162 -12> 895 66<215 820>
AnchorPoint: "top1" 535 1119 basechar 0
LayerCount: 2
Fore
SplineSet
195 518 m 0xf2
 195 772 324 920 545 920 c 0
 768 920 895 772 895 518 c 0
 895 262 768 113 545 113 c 0
 324 113 195 262 195 518 c 0xf2
961 518 m 0
 961 821 791 1020 537 1020 c 0
 269 1020 90 819 90 518 c 0
 90 215 269 14 537 14 c 0
 791 14 961 215 961 518 c 0
994 1000 m 1xec
 895 1000 l 1xe2
 895 -12 l 2
 895 -186 773 -285 566 -285 c 0
 363 -285 235 -205 217 -72 c 1
 109 -72 l 1
 138 -261 314 -387 566 -387 c 0
 824 -387 994 -240 994 -21 c 2
 994 1000 l 1xec
EndSplineSet
EndChar

StartChar: t
Encoding: 116 116 16
GlifName: t
Width: 585
GlyphClass: 2
Flags: W
HStem: 0 96<367.114 535> 904 96<50 535>
VStem: 242 99<117.535 1260>
AnchorPoint: "top2" 445 1098 basechar 0
AnchorPoint: "bottom1" 447 0 basechar 0
LayerCount: 2
Fore
SplineSet
50 1000 m 1
 535 1000 l 1
 535 904 l 1
 50 904 l 1
 50 1000 l 1
535 96 m 1
 535 0 l 1
 451 0 l 2
 351 0 242 56 242 236 c 2
 242 1260 l 1
 341 1260 l 1
 341 248 l 2
 341 125 391 96 453 96 c 2
 535 96 l 1
EndSplineSet
Substitution2: "'ss08' Style Set 8 in Latin lookup 7-1" t.ss08
EndChar

StartChar: r
Encoding: 114 114 17
GlifName: r
Width: 587
GlyphClass: 2
Flags: W
HStem: 0 21G<109 211> 912 108<344.194 537> 980 20G<109 211>
VStem: 109 102<0 1000> 152 59<645 879>
AnchorPoint: "bottom1" 162 0 basechar 0
AnchorPoint: "top1" 320 1119 basechar 0
LayerCount: 2
Fore
SplineSet
537 912 m 1xc8
 500 912 l 2
 338 912 211 797 211 633 c 1xd0
 152 645 l 1
 152 879 332 1020 498 1020 c 2
 537 1020 l 1
 537 912 l 1xc8
109 1000 m 1xb0
 211 1000 l 1
 211 0 l 1
 109 0 l 1
 109 1000 l 1xb0
EndSplineSet
EndChar

StartChar: v
Encoding: 118 118 19
GlifName: v
Width: 1002
GlyphClass: 2
Flags: HW
HStem: 0 41G<429 574> 961 39G<40 169 831 962>
LayerCount: 2
Fore
SplineSet
40 1000 m 1
 154 1000 l 1
 503 133 l 1
 847 1000 l 1
 962 1000 l 1
 558 0 l 1
 445 0 l 1
 40 1000 l 1
EndSplineSet
EndChar

StartChar: f
Encoding: 102 102 20
GlifName: f
Width: 585
GlyphClass: 2
Flags: W
HStem: 0 21G<212 312> 904 96<50 535> 1305 95<341.417 535>
VStem: 212 100<0 1276.72>
LayerCount: 2
Fore
SplineSet
50 904 m 1
 50 1000 l 1
 535 1000 l 1
 535 904 l 1
 50 904 l 1
535 1305 m 1
 453 1305 l 2
 373 1305 312 1275 312 1152 c 2
 312 0 l 1
 212 0 l 1
 212 1164 l 2
 212 1344 338 1400 451 1400 c 2
 535 1400 l 1
 535 1305 l 1
EndSplineSet
EndChar

StartChar: k
Encoding: 107 107 21
GlifName: k
Width: 894
GlyphClass: 2
Flags: W
HStem: 0 21G<109 211 715.302 863> 980 20G<701.246 848> 1380 20G<109 211>
VStem: 109 102<0 289 359 1400>
AnchorPoint: "bottom1" 486 0 basechar 0
LayerCount: 2
Fore
SplineSet
109 1400 m 1
 211 1400 l 1
 211 0 l 1
 109 0 l 1
 109 1400 l 1
719 1000 m 1
 848 1000 l 1
 402 502 l 1
 863 0 l 1
 734 0 l 1
 332 430 l 1
 207 289 l 1
 150 359 l 1
 719 1000 l 1
EndSplineSet
EndChar

StartChar: j
Encoding: 106 106 22
GlifName: j
Width: 318
GlyphClass: 2
Flags: HW
HStem: -309 96<-72 84> 961 39G<109 211> 1146 139<96 225>
VStem: 109 102<-191 1000 1146 1285>
LayerCount: 2
Fore
SplineSet
-72 -213 m 1
 -10 -213 l 2
 58 -213 109 -184 109 -61 c 2
 109 1000 l 1
 211 1000 l 1
 211 -72 l 2
 211 -252 96 -309 -8 -309 c 2
 -72 -309 l 1
 -72 -213 l 1
96 1285 m 1
 225 1285 l 1
 225 1146 l 1
 96 1146 l 1
 96 1285 l 1
EndSplineSet
Substitution2: "'ss03' Style Set 3 in Latin lookup 2-1" j.ss03
EndChar

StartChar: w
Encoding: 119 119 23
GlifName: w
Width: 1438
GlyphClass: 2
Flags: HW
HStem: 0 41G<322 453 972 1101> 961 39G<40 164 647 787 1273 1398>
AnchorPoint: "top1" 710 1119 basechar 0
LayerCount: 2
Fore
SplineSet
40 1000 m 5
 154 1000 l 5
 386 143 l 5
 659 1000 l 5
 775 1000 l 5
 1036 143 l 5
 1284 1000 l 5
 1398 1000 l 5
 1089 0 l 5
 984 0 l 5
 718 865 l 5
 441 0 l 5
 333 0 l 5
 40 1000 l 5
EndSplineSet
EndChar

StartChar: x
Encoding: 120 120 24
GlifName: x
Width: 934
GlyphClass: 2
Flags: W
HStem: 0 21G<40 175.722 758.368 894> 980 20G<40 175.784 758.306 894>
LayerCount: 2
Fore
SplineSet
40 1000 m 1
 162 1000 l 1
 468 556 l 1
 772 1000 l 1
 894 1000 l 5
 555 498 l 1
 894 0 l 1
 772 0 l 1
 468 446 l 1
 162 0 l 1
 40 0 l 1
 379 502 l 1
 40 1000 l 1
EndSplineSet
EndChar

StartChar: y
Encoding: 121 121 25
GlifName: y
Width: 1002
GlyphClass: 2
Flags: HW
HStem: -309 105<91 364> 961 39G<40 169 831 962>
AnchorPoint: "bottom1" 697 0 basechar 0
AnchorPoint: "top1" 523 1119 basechar 0
LayerCount: 2
Fore
SplineSet
91 -203 m 1
 194 -203 l 2
 315.390374332 -203 376.085561497 -166 421 -61 c 2
 445 0 l 1
 40 1000 l 1
 154 1000 l 1
 503 133 l 1
 847 1000 l 1
 962 1000 l 1
 534 -72 l 2
 465.418130727 -243.775149208 356.630952381 -309 217 -309 c 2
 91 -309 l 1
 91 -203 l 1
EndSplineSet
Substitution2: "'ss07' Style Set 7 in Latin lookup 6-1" y.ss07
EndChar

StartChar: z
Encoding: 122 122 26
GlifName: z
Width: 923
GlyphClass: 2
Flags: HW
HStem: 0 96<203 834> 904 96<90 719>
AnchorPoint: "top1" 461 1119 basechar 0
LayerCount: 2
Fore
SplineSet
90 1000 m 5
 834 1000 l 5
 834 885 l 5
 203 96 l 5
 834 96 l 5
 834 0 l 5
 90 0 l 5
 90 115 l 5
 719 904 l 5
 90 904 l 5
 90 1000 l 5
EndSplineSet
EndChar

StartChar: H
Encoding: 72 72 27
GlifName: H_
Width: 1218
GlyphClass: 2
Flags: W
HStem: 0 21G<109 211 1010 1109> 623 98<211 1010> 1281 20G<109 211 1010 1109>
VStem: 109 102<0 623 721 1301> 1010 99<0 623 721 1301>
AnchorPoint: "top1" 623 1400 basechar 0
LayerCount: 2
Fore
SplineSet
109 1301 m 5
 211 1301 l 5
 211 721 l 5
 1010 721 l 5
 1010 1301 l 5
 1109 1301 l 5
 1109 0 l 5
 1010 0 l 5
 1010 623 l 5
 211 623 l 5
 211 0 l 5
 109 0 l 5
 109 1301 l 5
EndSplineSet
EndChar

StartChar: I
Encoding: 73 73 28
GlifName: I_
Width: 318
GlyphClass: 2
Flags: W
HStem: 0 21G<109 211> 1281 20G<109 211>
VStem: 109 102<0 1301>
AnchorPoint: "bottom2" 211 0 basechar 0
AnchorPoint: "bottom1" 160 0 basechar 0
AnchorPoint: "top1" 162 1400 basechar 0
LayerCount: 2
Fore
SplineSet
109 1301 m 1
 211 1301 l 1
 211 0 l 1
 109 0 l 1
 109 1301 l 1
EndSplineSet
Substitution2: "'ss11' Style Set 11 in Latin lookup 22-1" I.ss11
EndChar

StartChar: N
Encoding: 78 78 29
GlifName: N_
Width: 1218
GlyphClass: 2
Flags: HW
HStem: 0 41G<109 211 970 1109> 1262 39G<109 276 1010 1109>
VStem: 109 102<0 1182> 1010 100<156 1301>
AnchorPoint: "bottom1" 639 0 basechar 0
AnchorPoint: "top1" 633 1400 basechar 0
LayerCount: 2
Fore
SplineSet
1010 1301 m 5
 1109 1301 l 5
 1109 0 l 5
 996 0 l 5
 211 1182 l 5
 211 0 l 5
 109 0 l 5
 109 1301 l 5
 250 1301 l 5
 1010 156 l 5
 1010 1301 l 5
EndSplineSet
EndChar

StartChar: M
Encoding: 77 77 30
GlifName: M_
Width: 1451
GlyphClass: 2
Flags: HW
HStem: 0 41G<109 211 660 791 1242 1342> 1262 39G<109 268 1176 1342>
VStem: 109 102<0 1162> 1242 100<0 1162>
LayerCount: 2
Fore
SplineSet
775 0 m 5
 676 0 l 5
 211 1162 l 5
 211 0 l 5
 109 0 l 5
 109 1301 l 5
 252 1301 l 5
 727 145 l 5
 1191 1301 l 5
 1342 1301 l 5
 1342 0 l 5
 1242 0 l 5
 1242 1162 l 5
 775 0 l 5
EndSplineSet
EndChar

StartChar: L
Encoding: 76 76 31
GlifName: L_
Width: 1017
GlyphClass: 2
Flags: W
HStem: 0 96<211 947> 1281 20G<109 211>
VStem: 109 102<96 1301>
AnchorPoint: "top2" 404 934 basechar 0
AnchorPoint: "bottom1" 533 0 basechar 0
AnchorPoint: "top1" 164 1400 basechar 0
LayerCount: 2
Fore
SplineSet
947 0 m 5
 109 0 l 1
 109 1301 l 1
 211 1301 l 1
 211 96 l 1
 947 96 l 5
 947 0 l 5
EndSplineSet
EndChar

StartChar: E
Encoding: 69 69 32
GlifName: E_
Width: 1058
GlyphClass: 2
Flags: HW
HStem: 0 96<211 971> 617 98<211 914> 1203 98<211 971>
VStem: 109 102<96 617 715 1203>
AnchorPoint: "bottom2" 930 0 basechar 0
AnchorPoint: "bottom1" 559 0 basechar 0
AnchorPoint: "top1" 559 1400 basechar 0
LayerCount: 2
Fore
SplineSet
971 1301 m 1
 971 1203 l 1
 211 1203 l 1
 211 715 l 1
 914 715 l 1
 914 617 l 1
 211 617 l 1
 211 96 l 1
 971 96 l 1
 971 0 l 1
 109 0 l 1
 109 1301 l 1
 971 1301 l 1
EndSplineSet
EndChar

StartChar: F
Encoding: 70 70 33
GlifName: F_
Width: 1058
GlyphClass: 2
Flags: HW
HStem: 0 41G<109 211> 578 96<211 914> 1203 98<211 971>
VStem: 109 102<0 578 674 1203>
LayerCount: 2
Fore
SplineSet
971 1301 m 5
 971 1203 l 5
 211 1203 l 5
 211 674 l 5
 914 674 l 5
 914 578 l 5
 211 578 l 5
 211 0 l 5
 109 0 l 5
 109 1301 l 5
 971 1301 l 5
EndSplineSet
EndChar

StartChar: T
Encoding: 84 84 34
GlifName: T_
Width: 1117
GlyphClass: 2
Flags: W
HStem: 0 21G<510 609> 1203 98<70 510 609 1049>
VStem: 510 99<0 1203>
AnchorPoint: "bottom1" 559 0 basechar 0
AnchorPoint: "top1" 555 1400 basechar 0
LayerCount: 2
Fore
SplineSet
1049 1301 m 1
 1049 1203 l 1
 609 1203 l 1
 609 0 l 1
 510 0 l 1
 510 1203 l 1
 70 1203 l 1
 70 1301 l 1
 1049 1301 l 1
EndSplineSet
EndChar

StartChar: O
Encoding: 79 79 35
GlifName: O_
Width: 1328
GlyphClass: 2
Flags: W
HStem: -16 100<456.121 874.751> 1221 99<468.368 862.56>
VStem: 90 105<372.701 912.336> 1135 105<372.701 912.336>
AnchorPoint: "top3" 803 1301 basechar 0
AnchorPoint: "bottom1" 664 0 basechar 0
AnchorPoint: "top1" 668 1400 basechar 0
LayerCount: 2
Fore
SplineSet
90 635 m 4
 90 1047 320 1320 666 1320 c 4
 1010 1320 1240 1047 1240 635 c 4
 1240 244 1010 -16 666 -16 c 4
 320 -16 90 244 90 635 c 4
1135 635 m 4
 1135 1004 963 1221 666 1221 c 4
 367 1221 195 1004 195 635 c 4
 195 287 367 84 666 84 c 4
 963 84 1135 287 1135 635 c 4
EndSplineSet
EndChar

StartChar: C
Encoding: 67 67 36
GlifName: C_
Width: 1273
GlyphClass: 2
Flags: HW
HStem: -16 100<444 863> 1221 100<444 865>
VStem: 90 105<377 930> 1078 105<277 428 879 1027>
AnchorPoint: "bottom1" 643 0 basechar 0
AnchorPoint: "top1" 645 1400 basechar 0
LayerCount: 2
Fore
SplineSet
90 654 m 4
 90 1054 311 1320 645 1320 c 4
 946 1320 1164 1141 1184 879 c 5
 1078 879 l 5
 1068 1090 901 1221 645 1221 c 4
 362 1221 195 1013 195 654 c 4
 195 293 362 84 645 84 c 4
 897 84 1064 215 1078 428 c 5
 1184 428 l 5
 1157 160 944 -16 645 -16 c 4
 313 -16 90 252 90 654 c 4
EndSplineSet
EndChar

StartChar: G
Encoding: 71 71 37
GlifName: G_
Width: 1292
GlyphClass: 2
Flags: HW
HStem: -16 100<444 824> 0 41G<1099 1184> 568 96<641 1059 1145 1164> 1221 100<453 874>
VStem: 90 105<377 924> 1078 105<879 1037> 1084 61<577 629> 1100 84<0 578>
AnchorPoint: "bottom1" 643 0 basechar 0
AnchorPoint: "top1" 645 1400 basechar 0
LayerCount: 2
Fore
SplineSet
1084 645 m 1x7a
 1184 664 l 1
 1184 0 l 1
 1100 0 l 1x79
 1084 645 l 1x7a
641 664 m 1
 1184 664 l 1
 1164 568 l 1
 641 568 l 1
 641 664 l 1
90 654 m 0
 90 1054 316 1320 660 1320 c 0
 953 1320 1164 1141 1184 879 c 1
 1078 879 l 1xbc
 1068 1090 906 1221 660 1221 c 0
 367 1221 195 1013 195 654 c 0
 195 293 362 84 645 84 c 0
 897 84 1059 299 1059 629 c 1
 1145 629 l 1
 1145 256 936 -16 645 -16 c 0xba
 313 -16 90 252 90 654 c 0
EndSplineSet
Substitution2: "'ss04' Style Set 4 in Latin lookup 3-1" G.ss04
EndChar

StartChar: Q
Encoding: 81 81 38
GlifName: Q_
Width: 1328
GlyphClass: 2
Flags: HW
HStem: -16 100<456 875> 1221 100<468 862>
VStem: 90 105<373 912> 1135 105<373 912>
LayerCount: 2
Fore
SplineSet
1258 47 m 5
 1199 -35 l 5
 641 371 l 5
 697 453 l 5
 1258 47 l 5
90 635 m 4
 90 1047 320 1320 666 1320 c 4
 1010 1320 1240 1047 1240 635 c 4
 1240 244 1010 -16 666 -16 c 4
 320 -16 90 244 90 635 c 4
1135 635 m 4
 1135 1004 963 1221 666 1221 c 4
 367 1221 195 1004 195 635 c 4
 195 287 367 84 666 84 c 4
 963 84 1135 287 1135 635 c 4
EndSplineSet
EndChar

StartChar: S
Encoding: 83 83 39
GlifName: S_
Width: 1138
GlyphClass: 2
Flags: W
HStem: -16 102<371.756 807.319> 1215 103<346.089 759.482>
VStem: 100 99<250.109 381 824.376 1084.84> 922 103<920 1056.91> 949 102<210.412 475.589>
AnchorPoint: "bottom1" 598 0 basechar 0
AnchorPoint: "top1" 551 1400 basechar 0
LayerCount: 2
Fore
SplineSet
641 592 m 6xe8
 490 611 l 6
 238 642 100 754 100 945 c 4
 100 1174 274 1318 555 1318 c 4
 825 1318 1002 1168 1025 920 c 5
 922 920 l 5xf0
 891 1119 776 1215 553 1215 c 4
 340 1215 199 1109 199 949 c 4
 199 816 301 746 498 721 c 6
 648 699 l 6
 918 666 1051 549 1051 344 c 4
 1051 125 871 -16 600 -16 c 4
 299 -16 115 143 90 381 c 5
 197 381 l 5
 230 180 360 86 602 86 c 4
 809 86 949 186 949 344 c 4
 949 483 846 569 641 592 c 6xe8
EndSplineSet
EndChar

StartChar: J
Encoding: 74 74 40
GlifName: J_
Width: 623
GlyphClass: 2
Flags: W
HStem: 0 96<53 324.056> 1281 20G<414 514>
VStem: 414 100<196.805 1301>
AnchorPoint: "top1" 467 1400 basechar 0
LayerCount: 2
Fore
SplineSet
53 96 m 5
 174 96 l 6
 311 96 414 154 414 408 c 6
 414 1301 l 5
 514 1301 l 5
 514 396 l 6
 514 93 338 0 176 0 c 6
 53 0 l 5
 53 96 l 5
EndSplineSet
Substitution2: "'ss06' Style Set 6 in Latin lookup 5-1" J.ss06
EndChar

StartChar: V
Encoding: 86 86 41
GlifName: V_
Width: 1230
GlyphClass: 2
Flags: HW
HStem: 0 41G<544 687> 1262 39G<70 198 1033 1162>
LayerCount: 2
Fore
SplineSet
70 1301 m 5
 184 1301 l 5
 617 133 l 5
 1047 1301 l 5
 1162 1301 l 5
 672 0 l 5
 559 0 l 5
 70 1301 l 5
EndSplineSet
EndChar

StartChar: W
Encoding: 87 87 42
GlifName: W_
Width: 1908
GlyphClass: 2
Flags: HW
HStem: 0 41G<436 568 1329 1459> 1262 39G<70 194 883 1023 1715 1840>
AnchorPoint: "top1" 953 1400 basechar 0
LayerCount: 2
Fore
SplineSet
70 1301 m 5
 184 1301 l 5
 500 143 l 5
 896 1301 l 5
 1010 1301 l 5
 1395 143 l 5
 1727 1301 l 5
 1840 1301 l 5
 1447 0 l 5
 1342 0 l 5
 953 1166 l 5
 555 0 l 5
 447 0 l 5
 70 1301 l 5
EndSplineSet
EndChar

StartChar: X
Encoding: 88 88 43
GlifName: X_
Width: 1132
GlyphClass: 2
Flags: HW
HStem: 0 41G<70 214 912 1064> 1262 39G<70 221 915 1064>
LayerCount: 2
Fore
SplineSet
70 1301 m 1
 197 1301 l 1
 567 709 l 5
 937 1301 l 1
 1064 1301 l 1
 652 646 l 1
 1064 0 l 1
 937 0 l 1
 567 588 l 5
 197 0 l 1
 70 0 l 1
 482 650 l 1
 70 1301 l 1
EndSplineSet
EndChar

StartChar: Y
Encoding: 89 89 44
GlifName: Y_
Width: 1132
GlyphClass: 2
Flags: HW
HStem: 0 41G<514 613> 1262 39G<70 213 923 1064>
VStem: 514 100<0 449>
AnchorPoint: "bottom1" 566 0 basechar 0
AnchorPoint: "top1" 588 1400 basechar 0
LayerCount: 2
Fore
SplineSet
514 449 m 5
 70 1301 l 5
 193 1301 l 5
 564 576 l 5
 943 1301 l 5
 1064 1301 l 5
 613 449 l 5
 613 0 l 5
 514 0 l 5
 514 449 l 5
EndSplineSet
EndChar

StartChar: A
Encoding: 65 65 45
GlifName: A_
Width: 1230
GlyphClass: 2
Flags: HW
HStem: 0 41G<70 200 1034 1162> 377 96<287 932> 1262 39G<546 688>
AnchorPoint: "bottom2" 1162 0 basechar 0
AnchorPoint: "bottom1" 611 0 basechar 0
AnchorPoint: "top1" 615 1400 basechar 0
LayerCount: 2
Fore
SplineSet
287 473 m 5
 932 473 l 5
 932 377 l 5
 287 377 l 5
 287 473 l 5
1162 0 m 5
 1049 0 l 5
 613 1168 l 5
 186 0 l 5
 70 0 l 5
 561 1301 l 5
 674 1301 l 5
 1162 0 l 5
EndSplineSet
EndChar

StartChar: Z
Encoding: 90 90 46
GlifName: Z_
Width: 1103
GlyphClass: 2
Flags: HW
HStem: 0 96<203 1014> 1203 98<90 898>
AnchorPoint: "top1" 562 1400 basechar 0
LayerCount: 2
Fore
SplineSet
90 1301 m 5
 1014 1301 l 5
 1014 1184 l 5
 203 96 l 5
 1014 96 l 5
 1014 0 l 5
 90 0 l 5
 90 115 l 5
 898 1203 l 5
 90 1203 l 5
 90 1301 l 5
EndSplineSet
EndChar

StartChar: U
Encoding: 85 85 47
GlifName: U_
Width: 1156
GlyphClass: 2
Flags: W
HStem: -16 100<384.604 773.989> 1281 20G<100 199 957 1059>
VStem: 100 99<284.797 1301> 957 102<284.797 1301>
AnchorPoint: "top3" 957 1301 basechar 0
AnchorPoint: "bottom2" 650 0 basechar 0
AnchorPoint: "bottom1" 582 0 basechar 0
AnchorPoint: "top1" 592 1400 basechar 0
LayerCount: 2
Fore
SplineSet
100 1301 m 5
 199 1301 l 5
 199 494 l 6
 199 234 340 84 580 84 c 4
 818 84 957 234 957 494 c 6
 957 1301 l 5
 1059 1301 l 5
 1059 494 l 6
 1059 187 865 -16 580 -16 c 4
 293 -16 100 187 100 494 c 6
 100 1301 l 5
EndSplineSet
EndChar

StartChar: R
Encoding: 82 82 48
GlifName: R_
Width: 1117
GlyphClass: 2
Flags: HW
HStem: 0 41G<109 211 923 1027> 559 96<211 762> 578 20<645 875> 1203 98<211 796>
VStem: 109 102<0 559 654 1203> 922 105<767 1085>
AnchorPoint: "bottom1" 588 0 basechar 0
AnchorPoint: "top1" 564 1400 basechar 0
LayerCount: 2
Fore
SplineSet
545 559 m 5xdc
 645 598 l 5xbc
 879 598 967 526 992 307 c 6
 1027 0 l 5
 928 0 l 5
 895 293 l 6
 874 481 772 559 545 559 c 5xdc
623 1203 m 2
 211 1203 l 1
 211 654 l 1
 623 654 l 2xdc
 811 654 922 752 922 922 c 0
 922 1100 811 1203 623 1203 c 2
645 578 m 1xbc
 629 559 l 1
 211 559 l 1xdc
 211 0 l 1
 109 0 l 1
 109 1301 l 1
 635 1301 l 2
 871 1301 1027 1151 1027 922 c 0
 1027 717 875 578 645 578 c 1xbc
EndSplineSet
Substitution2: "'ss05' Style Set 5 in Latin lookup 4-1" R.ss05
EndChar

StartChar: B
Encoding: 66 66 49
GlifName: B_
Width: 1158
GlyphClass: 2
Flags: HW
HStem: 0 96<211 887> 617 98<211 830> 1203 98<211 837>
VStem: 109 102<96 617 715 1203> 922 105<807 1119> 982 105<192 501>
LayerCount: 2
Fore
SplineSet
693 1301 m 6xf4
 892 1301 1027 1168 1027 969 c 4xf8
 1027 828 959 721 850 670 c 5
 996 621 1088 502 1088 342 c 4
 1088 137 947 0 734 0 c 6
 109 0 l 5
 109 1301 l 5
 693 1301 l 6xf4
684 1203 m 6
 211 1203 l 5
 211 715 l 5
 684 715 l 6
 834 715 922 809 922 969 c 4
 922 1119 834 1203 684 1203 c 6
684 617 m 6
 211 617 l 5
 211 96 l 5
 725 96 l 6
 887 96 982 186 982 342 c 4xf4
 982 516 872 617 684 617 c 6
EndSplineSet
EndChar

StartChar: D
Encoding: 68 68 50
GlifName: D_
Width: 1216
GlyphClass: 2
Flags: HW
HStem: 0 96<211 784> 1203 98<211 762>
VStem: 109 102<96 1203> 1021 107<368 906>
AnchorPoint: "top1" 564 1400 basechar 0
LayerCount: 2
Fore
SplineSet
211 1203 m 5
 211 96 l 5
 594 96 l 6
 864 96 1021 291 1021 627 c 4
 1021 992 852 1203 555 1203 c 6
 211 1203 l 5
574 1301 m 6
 906 1301 1129 1031 1129 627 c 4
 1129 250 922 0 613 0 c 6
 109 0 l 5
 109 1301 l 5
 574 1301 l 6
EndSplineSet
EndChar

StartChar: P
Encoding: 80 80 51
GlifName: P_
Width: 1107
GlyphClass: 2
Flags: HW
HStem: 0 41G<109 211> 498 96<211 782> 1203 98<211 783>
VStem: 109 102<0 498 594 1203> 922 105<727 1070>
LayerCount: 2
Fore
SplineSet
604 1203 m 6
 211 1203 l 5
 211 594 l 5
 604 594 l 6
 803 594 922 705 922 893 c 4
 922 1090 805 1203 604 1203 c 6
623 498 m 6
 211 498 l 5
 211 0 l 5
 109 0 l 5
 109 1301 l 5
 613 1301 l 6
 861 1301 1027 1139 1027 893 c 4
 1027 666 873 498 623 498 c 6
EndSplineSet
EndChar

StartChar: K
Encoding: 75 75 52
GlifName: K_
Width: 1037
GlyphClass: 2
Flags: HW
HStem: 0 41G<109 211 843 1008> 1262 39G<109 211 822 992>
VStem: 109 102<0 463 531 1301>
AnchorPoint: "bottom1" 531 0 basechar 0
AnchorPoint: "top1" 525 1400 basechar 0
LayerCount: 2
Fore
SplineSet
109 1301 m 5
 211 1301 l 5
 211 0 l 5
 109 0 l 5
 109 1301 l 5
857 1301 m 5
 992 1301 l 5
 402 674 l 5
 1008 0 l 5
 879 0 l 5
 332 602 l 5
 207 463 l 5
 150 531 l 5
 857 1301 l 5
EndSplineSet
EndChar

StartChar: four
Encoding: 52 52 53
GlifName: four
Width: 1062
GlyphClass: 2
Flags: HW
HStem: 0 41G<707 809> 344 94<176 707 809 1014> 1262 39G<659 809>
VStem: 707 102<0 344 438 1176>
LayerCount: 2
Fore
SplineSet
809 344 m 1
 809 0 l 1
 707 0 l 1
 707 344 l 1
 70 344 l 1
 70 457 l 1
 688 1301 l 1
 809 1301 l 1
 809 438 l 1
 1014 438 l 1
 1014 344 l 1
 809 344 l 1
707 438 m 1
 707 1176 l 1
 176 438 l 1
 707 438 l 1
EndSplineSet
Substitution2: "'cv04' Character Variants 04 in Latin lookup 19-1" uni2463
Substitution2: "'cv03' Character Variants 03 in Latin lookup 18-1" uni2779
Substitution2: "'cv02' Character Variants 02 in Latin lookup 17-1" four.cv02
Substitution2: "'cv01' Character Variants 01 in Latin lookup 16-1" four.cv01
Substitution2: "'sups' Superscript in Latin lookup 15-1" uni2074
Substitution2: "'subs' Subscript in Latin lookup 14-1" uni2084
Substitution2: "'numr' Numerators in Latin lookup 13-1" four.numr
Substitution2: "'dnom' Denominators in Latin lookup 12-1" four.dnom
Substitution2: "'tnum' Tabular Numbers in Latin lookup 11-1" four.tabl
EndChar

StartChar: three
Encoding: 51 51 54
GlifName: three
Width: 1033
GlyphClass: 2
Flags: HW
HStem: -16 100<328 709> 604 100<432 670> 623 61<570 665> 1217 100<340 698>
VStem: 90 105<213 342> 109 107<951 1091> 570 100<604 623 684 703> 818 105<793 1100> 838 105<200 503>
LayerCount: 2
Fore
SplineSet
670 703 m 5xd2
 670 604 l 5
 432 604 l 5
 432 703 l 5
 670 703 l 5xd2
570 623 m 5xb7
 570 703 l 5xd7
 728 703 818 793 818 947 c 4
 818 1117 705 1217 510 1217 c 4
 336 1217 223 1113 217 951 c 5
 109 951 l 5
 125 1168 287 1316 510 1316 c 4
 758 1316 924 1170 924 947 c 4
 924 754 783 623 570 623 c 5xb7
570 684 m 5xba80
 795 684 943 549 943 350 c 4
 943 129 770 -16 510 -16 c 4
 278 -16 106 129 90 342 c 5
 195 342 l 5
 203 184 326 84 510 84 c 4
 717 84 838 180 838 350 c 4
 838 512 740 604 570 604 c 5xda80
 570 684 l 5xba80
EndSplineSet
Substitution2: "'cv04' Character Variants 04 in Latin lookup 19-1" uni2462
Substitution2: "'cv03' Character Variants 03 in Latin lookup 18-1" uni2778
Substitution2: "'cv02' Character Variants 02 in Latin lookup 17-1" three.cv02
Substitution2: "'cv01' Character Variants 01 in Latin lookup 16-1" three.cv01
Substitution2: "'sups' Superscript in Latin lookup 15-1" uni00B3
Substitution2: "'subs' Subscript in Latin lookup 14-1" uni2083
Substitution2: "'numr' Numerators in Latin lookup 13-1" three.numr
Substitution2: "'dnom' Denominators in Latin lookup 12-1" three.dnom
Substitution2: "'tnum' Tabular Numbers in Latin lookup 11-1" three.tabl
EndChar

StartChar: period
Encoding: 46 46 55
GlifName: period
Width: 318
GlyphClass: 2
Flags: HW
HStem: 0 141<96 225>
VStem: 96 129<0 141>
LayerCount: 2
Fore
SplineSet
96 141 m 5
 225 141 l 5
 225 0 l 5
 96 0 l 5
 96 141 l 5
EndSplineSet
Substitution2: "'tnum' Tabular Numbers in Latin lookup 11-1" period.tabl
Substitution2: "'ss03' Style Set 3 in Latin lookup 2-1" period.ss03
EndChar

StartChar: comma
Encoding: 44 44 56
GlifName: comma
Width: 318
GlyphClass: 2
Flags: HW
HStem: 0 141<96 174>
VStem: 82 82<-250 -212> 96 129<0 141>
LayerCount: 2
Fore
SplineSet
96 141 m 5xa0
 225 141 l 5
 225 0 l 5xa0
 164 -250 l 5
 82 -250 l 5xc0
 174 0 l 5
 96 0 l 5
 96 141 l 5xa0
EndSplineSet
Substitution2: "'tnum' Tabular Numbers in Latin lookup 11-1" comma.tabl
Substitution2: "'ss03' Style Set 3 in Latin lookup 2-1" comma.ss03
EndChar

StartChar: colon
Encoding: 58 58 57
GlifName: colon
Width: 318
GlyphClass: 2
Flags: HW
HStem: 0 141<96 225> 820 141<96 225>
VStem: 96 129<0 141 820 961>
LayerCount: 2
Fore
SplineSet
96 961 m 5
 225 961 l 5
 225 820 l 5
 96 820 l 5
 96 961 l 5
96 141 m 5
 225 141 l 5
 225 0 l 5
 96 0 l 5
 96 141 l 5
EndSplineSet
Substitution2: "'tnum' Tabular Numbers in Latin lookup 11-1" colon.tabl
Substitution2: "'ss03' Style Set 3 in Latin lookup 2-1" colon.ss03
EndChar

StartChar: semicolon
Encoding: 59 59 58
GlifName: semicolon
Width: 318
GlyphClass: 2
Flags: HW
HStem: 0 141<96 174> 820 141<96 225>
VStem: 82 82<-250 -212> 96 129<0 141 820 961>
LayerCount: 2
Fore
SplineSet
96 961 m 1xd0
 225 961 l 1
 225 820 l 1
 96 820 l 1
 96 961 l 1xd0
96 141 m 1
 225 141 l 5
 225 0 l 5xd0
 164 -250 l 1
 82 -250 l 1xe0
 174 0 l 5
 96 0 l 1
 96 141 l 1
EndSplineSet
Substitution2: "'tnum' Tabular Numbers in Latin lookup 11-1" semicolon.tabl
Substitution2: "'ss03' Style Set 3 in Latin lookup 2-1" semicolon.ss03
EndChar

StartChar: hyphen
Encoding: 45 45 59
GlifName: hyphen
Width: 923
GlyphClass: 2
Flags: HW
HStem: 504 96<70 854>
LayerCount: 2
Fore
SplineSet
70 600 m 5
 854 600 l 5
 854 504 l 5
 70 504 l 5
 70 600 l 5
EndSplineSet
Substitution2: "'sups' Superscript in Latin lookup 15-1" uni207B
Substitution2: "'subs' Subscript in Latin lookup 14-1" uni208B
Substitution2: "'tnum' Tabular Numbers in Latin lookup 11-1" hyphen.tabl
EndChar

StartChar: plus
Encoding: 43 43 60
GlifName: plus
Width: 1091
GlyphClass: 2
Flags: HW
HStem: 504 96<70 498 594 1021>
VStem: 498 96<76 504 600 1027>
LayerCount: 2
Fore
SplineSet
594 600 m 5
 1021 600 l 5
 1021 504 l 5
 594 504 l 5
 594 76 l 1
 498 76 l 1
 498 504 l 5
 70 504 l 5
 70 600 l 5
 498 600 l 5
 498 1027 l 1
 594 1027 l 1
 594 600 l 5
EndSplineSet
Substitution2: "'sups' Superscript in Latin lookup 15-1" uni207A
Substitution2: "'subs' Subscript in Latin lookup 14-1" uni208A
Substitution2: "'tnum' Tabular Numbers in Latin lookup 11-1" plus.tabl
EndChar

StartChar: equal
Encoding: 61 61 61
GlifName: equal
Width: 1091
GlyphClass: 2
Flags: HW
HStem: 234 96<70 1021> 754 96<70 1021>
LayerCount: 2
Fore
SplineSet
1021 330 m 5
 1021 234 l 5
 70 234 l 5
 70 330 l 5
 1021 330 l 5
1021 850 m 5
 1021 754 l 5
 70 754 l 5
 70 850 l 5
 1021 850 l 5
EndSplineSet
Substitution2: "'tnum' Tabular Numbers in Latin lookup 11-1" equal.tabl
Substitution2: "'sups' Superscript in Latin lookup 15-1" uni207C
Substitution2: "'subs' Subscript in Latin lookup 14-1" uni208C
EndChar

StartChar: quotesingle
Encoding: 39 39 62
GlifName: quotesingle
Width: 318
GlyphClass: 2
Flags: HW
HStem: 1000 400<109 189>
VStem: 109 102<1139 1400> 109 80<1000 1261>
LayerCount: 2
Fore
SplineSet
109 1400 m 5xc0
 211 1400 l 5xc0
 189 1000 l 5
 109 1000 l 5xa0
 109 1400 l 5xc0
EndSplineSet
EndChar

StartChar: quotedbl
Encoding: 34 34 63
GlifName: quotedbl
Width: 539
GlyphClass: 2
Flags: HW
HStem: 1000 400<109 189 330 410>
VStem: 109 102<1139 1400> 109 80<1000 1261> 330 100<1113 1400> 330 80<1000 1287>
LayerCount: 2
Fore
SplineSet
330 1400 m 5x90
 430 1400 l 5x90
 410 1000 l 5
 330 1000 l 5x88
 330 1400 l 5x90
109 1400 m 5xc0
 211 1400 l 5xc0
 189 1000 l 5
 109 1000 l 5xa0
 109 1400 l 5xc0
EndSplineSet
EndChar

StartChar: one
Encoding: 49 49 64
GlifName: one
Width: 591
GlyphClass: 2
Flags: HW
HStem: 0 41G<383 482> 1000 86<70 356> 1262 39G<383 482>
VStem: 383 100<0 1000 1113 1301>
LayerCount: 2
Fore
SplineSet
383 1301 m 5
 482 1301 l 5
 482 0 l 5
 383 0 l 5
 383 1000 l 5
 70 1000 l 5
 70 1086 l 5
 225 1086 l 6
 329 1086 383 1117 383 1221 c 6
 383 1301 l 5
EndSplineSet
Substitution2: "'cv04' Character Variants 04 in Latin lookup 19-1" uni2460
Substitution2: "'cv03' Character Variants 03 in Latin lookup 18-1" uni2776
Substitution2: "'cv02' Character Variants 02 in Latin lookup 17-1" one.cv02
Substitution2: "'cv01' Character Variants 01 in Latin lookup 16-1" one.cv01
Substitution2: "'sups' Superscript in Latin lookup 15-1" uni00B9
Substitution2: "'subs' Subscript in Latin lookup 14-1" uni2081
Substitution2: "'numr' Numerators in Latin lookup 13-1" one.numr
Substitution2: "'dnom' Denominators in Latin lookup 12-1" one.dnom
Substitution2: "'tnum' Tabular Numbers in Latin lookup 11-1" one.tabl
EndChar

StartChar: exclam
Encoding: 33 33 65
GlifName: exclam
Width: 318
GlyphClass: 2
Flags: HW
HStem: 0 141<96 225> 1262 39G<109 211>
VStem: 96 129<0 141 694 1301> 117 84<285 1301>
LayerCount: 2
Fore
SplineSet
225 0 m 5xe0
 96 0 l 5
 96 141 l 5
 225 141 l 5
 225 0 l 5xe0
201 285 m 5xd0
 117 285 l 5
 109 1301 l 5
 211 1301 l 5
 201 285 l 5xd0
EndSplineSet
Substitution2: "'ss03' Style Set 3 in Latin lookup 2-1" exclam.ss03
EndChar

StartChar: zero
Encoding: 48 48 66
GlifName: zero
Width: 1089
GlyphClass: 2
Flags: HW
HStem: -16 100<382 710> 1221 100<386 707>
VStem: 90 105<319 969> 895 105<319 969>
LayerCount: 2
Fore
SplineSet
90 635 m 4
 90 1067 262 1320 547 1320 c 4
 832 1320 1000 1067 1000 635 c 4
 1000 225 832 -16 547 -16 c 4
 260 -16 90 225 90 635 c 4
895 635 m 4
 895 1026 779 1221 547 1221 c 4
 313 1221 195 1026 195 635 c 4
 195 268 313 84 547 84 c 4
 779 84 895 268 895 635 c 4
EndSplineSet
Substitution2: "'cv04' Character Variants 04 in Latin lookup 19-1" uni24EA
Substitution2: "'cv03' Character Variants 03 in Latin lookup 18-1" uni24FF
Substitution2: "'cv02' Character Variants 02 in Latin lookup 17-1" zero.cv02
Substitution2: "'cv01' Character Variants 01 in Latin lookup 16-1" zero.cv01
Substitution2: "'sups' Superscript in Latin lookup 15-1" uni2070
Substitution2: "'subs' Subscript in Latin lookup 14-1" uni2080
Substitution2: "'numr' Numerators in Latin lookup 13-1" zero.numr
Substitution2: "'dnom' Denominators in Latin lookup 12-1" zero.dnom
Substitution2: "'zero' Slashed Zero in Latin lookup 10-1" zero.slsh
Substitution2: "'tnum' Tabular Numbers in Latin lookup 11-1" zero.tabl
EndChar

StartChar: nine
Encoding: 57 57 67
GlifName: nine
Width: 1072
GlyphClass: 2
Flags: HW
HStem: -16 100<329 679> 451 104<341 672> 1219 102<341 665>
VStem: 90 105<705 1068> 105 107<196 307> 879 105<339 712>
LayerCount: 2
Fore
SplineSet
984 650 m 0xf4
 984 230 807 -16 500 -16 c 0
 293 -16 140 108 105 307 c 1
 213 307 l 1xec
 240 162 340 84 500 84 c 0
 754 84 879 269 879 650 c 0
 879 673 875 698 873 719 c 1
 811 555 664 451 492 451 c 0
 258 451 90 635 90 887 c 0
 90 1139 258 1320 492 1320 c 0
 793 1320 984 1060 984 650 c 0xf4
834 887 m 0
 834 1076 689 1219 500 1219 c 0
 316 1219 195 1086 195 887 c 0xf4
 195 688 316 555 500 555 c 0
 699 555 834 690 834 887 c 0
EndSplineSet
Substitution2: "'cv04' Character Variants 04 in Latin lookup 19-1" uni2468
Substitution2: "'cv03' Character Variants 03 in Latin lookup 18-1" uni277E
Substitution2: "'cv02' Character Variants 02 in Latin lookup 17-1" nine.cv02
Substitution2: "'cv01' Character Variants 01 in Latin lookup 16-1" nine.cv01
Substitution2: "'sups' Superscript in Latin lookup 15-1" uni2079
Substitution2: "'subs' Subscript in Latin lookup 14-1" uni2089
Substitution2: "'numr' Numerators in Latin lookup 13-1" nine.numr
Substitution2: "'dnom' Denominators in Latin lookup 12-1" nine.dnom
Substitution2: "'tnum' Tabular Numbers in Latin lookup 11-1" nine.tabl
EndChar

StartChar: seven
Encoding: 55 55 68
GlifName: seven
Width: 1083
GlyphClass: 2
Flags: HW
VStem: 367 109<0 301>
LayerCount: 2
Fore
SplineSet
477 0 m 1
 495 590 711 864 994 1184 c 1
 994 1301 l 1
 90 1301 l 1
 90 1203 l 1
 893 1203 l 1
 647 908 424 686 367 0 c 1
 477 0 l 1
EndSplineSet
Substitution2: "'cv04' Character Variants 04 in Latin lookup 19-1" uni2466
Substitution2: "'cv03' Character Variants 03 in Latin lookup 18-1" uni277C
Substitution2: "'cv02' Character Variants 02 in Latin lookup 17-1" seven.cv02
Substitution2: "'cv01' Character Variants 01 in Latin lookup 16-1" seven.cv01
Substitution2: "'sups' Superscript in Latin lookup 15-1" uni2077
Substitution2: "'subs' Subscript in Latin lookup 14-1" uni2087
Substitution2: "'numr' Numerators in Latin lookup 13-1" seven.numr
Substitution2: "'dnom' Denominators in Latin lookup 12-1" seven.dnom
Substitution2: "'tnum' Tabular Numbers in Latin lookup 11-1" seven.tabl
EndChar

StartChar: two
Encoding: 50 50 69
GlifName: two
Width: 1033
GlyphClass: 2
Flags: HW
HStem: 0 96<193 936> 1217 100<338 697>
VStem: 90 104<96 220 918 1068> 838 105<758 1078>
LayerCount: 2
Fore
SplineSet
193 96 m 5
 936 96 l 1
 936 0 l 1
 90 0 l 1
 90 27 l 2
 90 308 303 426 502 536 c 0
 676 632 838 721 838 908 c 0
 838 1103 717 1217 510 1217 c 0
 326 1217 203 1100 195 918 c 1
 90 918 l 1
 106 1154 278 1316 510 1316 c 0
 770 1316 943 1154 943 908 c 0
 943 668 726 547 526 435 c 0
 354 338 193 249 193 96 c 5
EndSplineSet
Substitution2: "'cv04' Character Variants 04 in Latin lookup 19-1" uni2461
Substitution2: "'cv03' Character Variants 03 in Latin lookup 18-1" uni2777
Substitution2: "'cv02' Character Variants 02 in Latin lookup 17-1" two.cv02
Substitution2: "'cv01' Character Variants 01 in Latin lookup 16-1" two.cv01
Substitution2: "'sups' Superscript in Latin lookup 15-1" uni00B2
Substitution2: "'subs' Subscript in Latin lookup 14-1" uni2082
Substitution2: "'numr' Numerators in Latin lookup 13-1" two.numr
Substitution2: "'dnom' Denominators in Latin lookup 12-1" two.dnom
Substitution2: "'tnum' Tabular Numbers in Latin lookup 11-1" two.tabl
EndChar

StartChar: eight
Encoding: 56 56 70
GlifName: eight
Width: 1033
GlyphClass: 2
Flags: HW
HStem: -16 100<320 712> 604 100<339 694> 1217 100<346 687>
VStem: 90 105<194 491> 131 105<801 1111> 799 105<801 1111> 838 105<196 491>
LayerCount: 2
Fore
SplineSet
707 656 m 5xec
 853 607 943 494 943 342 c 4
 943 125 774 -16 516 -16 c 4
 260 -16 90 125 90 342 c 4xf2
 90 494 180 607 326 656 c 5
 203 707 131 814 131 955 c 4
 131 1172 284 1316 516 1316 c 4
 750 1316 904 1172 904 955 c 4
 904 814 830 707 707 656 c 5xec
529 703 m 6
 699 703 799 795 799 955 c 4
 799 1121 696 1217 516 1217 c 4
 338 1217 236 1121 236 955 c 4xec
 236 795 334 703 504 703 c 6
 529 703 l 6
529 604 m 6
 504 604 l 6
 309 604 195 508 195 342 c 4
 195 178 313 84 516 84 c 4
 719 84 838 178 838 342 c 4xf2
 838 508 724 604 529 604 c 6
EndSplineSet
Substitution2: "'cv04' Character Variants 04 in Latin lookup 19-1" uni2467
Substitution2: "'cv03' Character Variants 03 in Latin lookup 18-1" uni277D
Substitution2: "'cv02' Character Variants 02 in Latin lookup 17-1" eight.cv02
Substitution2: "'cv01' Character Variants 01 in Latin lookup 16-1" eight.cv01
Substitution2: "'sups' Superscript in Latin lookup 15-1" uni2078
Substitution2: "'subs' Subscript in Latin lookup 14-1" uni2088
Substitution2: "'numr' Numerators in Latin lookup 13-1" eight.numr
Substitution2: "'dnom' Denominators in Latin lookup 12-1" eight.dnom
Substitution2: "'tnum' Tabular Numbers in Latin lookup 11-1" eight.tabl
EndChar

StartChar: five
Encoding: 53 53 71
GlifName: five
Width: 1033
GlyphClass: 2
Flags: HW
HStem: -16 100<321 696> 773 100<324 685>
VStem: 90 105<205 328 727 776> 838 105<233 617>
LayerCount: 2
Fore
SplineSet
838 428 m 4
 838 199 719 84 514 84 c 4
 326 84 203 178 195 328 c 5
 90 328 l 5
 106 125 276 -16 514 -16 c 4
 770 -16 943 153 943 430 c 4
 943 688 780 873 520 873 c 4
 377 873 263 817 191 727 c 5
 236 1205 l 5
 898 1205 l 5
 898 1303 l 5
 150 1303 l 5
 90 617 l 5
 188 617 l 5
 249 713 358 773 506 773 c 4
 721 773 838 641 838 428 c 4
EndSplineSet
Substitution2: "'cv04' Character Variants 04 in Latin lookup 19-1" uni2464
Substitution2: "'cv03' Character Variants 03 in Latin lookup 18-1" uni277A
Substitution2: "'cv02' Character Variants 02 in Latin lookup 17-1" five.cv02
Substitution2: "'cv01' Character Variants 01 in Latin lookup 16-1" five.cv01
Substitution2: "'sups' Superscript in Latin lookup 15-1" uni2075
Substitution2: "'subs' Subscript in Latin lookup 14-1" uni2085
Substitution2: "'numr' Numerators in Latin lookup 13-1" five.numr
Substitution2: "'dnom' Denominators in Latin lookup 12-1" five.dnom
Substitution2: "'tnum' Tabular Numbers in Latin lookup 11-1" five.tabl
EndChar

StartChar: six
Encoding: 54 54 72
GlifName: six
Width: 1072
GlyphClass: 2
Flags: HW
HStem: -16 102<409 734> 750 102<402 734> 998 41G<848 969> 1221 100<396 746>
VStem: 90 105<592 966> 861 107<998 1109> 879 105<236 599>
LayerCount: 2
Fore
SplineSet
90 654 m 4xfa
 90 1074 267 1320 574 1320 c 4
 781 1320 934 1197 969 998 c 5
 861 998 l 5xfc
 834 1143 734 1221 574 1221 c 4
 320 1221 195 1035 195 654 c 4
 195 631 197 607 199 586 c 5
 261 750 410 852 582 852 c 4
 816 852 984 670 984 418 c 4
 984 166 816 -16 582 -16 c 4
 281 -16 90 244 90 654 c 4xfa
240 418 m 4
 240 229 385 86 574 86 c 4
 758 86 879 219 879 418 c 4xfa
 879 617 758 750 574 750 c 4
 375 750 240 615 240 418 c 4
EndSplineSet
Substitution2: "'cv04' Character Variants 04 in Latin lookup 19-1" uni2465
Substitution2: "'cv03' Character Variants 03 in Latin lookup 18-1" uni277B
Substitution2: "'cv02' Character Variants 02 in Latin lookup 17-1" six.cv02
Substitution2: "'cv01' Character Variants 01 in Latin lookup 16-1" six.cv01
Substitution2: "'sups' Superscript in Latin lookup 15-1" uni2076
Substitution2: "'subs' Subscript in Latin lookup 14-1" uni2086
Substitution2: "'numr' Numerators in Latin lookup 13-1" six.numr
Substitution2: "'dnom' Denominators in Latin lookup 12-1" six.dnom
Substitution2: "'tnum' Tabular Numbers in Latin lookup 11-1" six.tabl
EndChar

StartChar: a.ss01
Encoding: 65536 -1 73
GlifName: a.ss01
Width: 1103
GlyphClass: 2
Flags: HW
HStem: -16 100<371 719> 920 100<371 722>
VStem: 90 105<280 727> 895 66<191 814>
AnchorPoint: "bottom2" 994 0 basechar 0
AnchorPoint: "bottom1" 545 0 basechar 0
AnchorPoint: "top1" 578 1119 basechar 0
LayerCount: 2
Fore
SplineSet
994 1000 m 1
 895 1000 l 1
 895 0 l 1
 994 0 l 1
 994 1000 l 1
961 504 m 0
 961 815 791 1020 537 1020 c 0
 269 1020 90 815 90 504 c 0
 90 192 269 -16 537 -16 c 0
 791 -16 961 192 961 504 c 0
195 504 m 0
 195 768 324 920 545 920 c 0
 768 920 895 768 895 504 c 0
 895 238 768 84 545 84 c 0
 324 84 195 238 195 504 c 0
EndSplineSet
Substitution2: "'cv05' Character Variants 05 in Latin lookup 20-1" a.spur.ss01
EndChar

StartChar: l.ss02
Encoding: 65537 -1 74
GlifName: l.ss02
Width: 441
GlyphClass: 2
Flags: HW
HStem: 0 96<242 371> 1361 39G<109 211>
VStem: 109 102<124 1400>
AnchorPoint: "top1" 158 1510 basechar 0
AnchorPoint: "bottom1" 221 0 basechar 0
AnchorPoint: "top2" 320 1000 basechar 0
LayerCount: 2
Fore
SplineSet
371 96 m 1
 371 0 l 1
 348 0 l 2
 235 0 109 56 109 236 c 2
 109 1400 l 1
 211 1400 l 1
 211 248 l 2
 211 125 272 96 350 96 c 2
 371 96 l 1
EndSplineSet
EndChar

StartChar: i.ss03
Encoding: 65538 -1 75
GlifName: i.ss03
Width: 318
GlyphClass: 2
Flags: HW
HStem: 0 41G<109 211> 961 39G<109 211> 1154 168<86 234>
VStem: 76 168<1164 1312> 109 102<0 1000>
AnchorPoint: "bottom2" 211 0 basechar 0
AnchorPoint: "bottom1" 162 0 basechar 0
LayerCount: 2
Fore
SplineSet
76 1238 m 4xf0
 76 1285 113 1322 160 1322 c 4
 207 1322 244 1285 244 1238 c 4
 244 1191 207 1154 160 1154 c 4
 113 1154 76 1191 76 1238 c 4xf0
109 1000 m 1xe8
 211 1000 l 1
 211 0 l 1
 109 0 l 1
 109 1000 l 1xe8
EndSplineSet
EndChar

StartChar: j.ss03
Encoding: 65539 -1 76
GlifName: j.ss03
Width: 318
GlyphClass: 2
Flags: HW
HStem: -309 96<-72 84> 961 39G<109 211> 1154 168<86 234>
VStem: 76 168<1164 1312> 109 102<-191 1000>
LayerCount: 2
Fore
SplineSet
76 1238 m 4xf0
 76 1285 113 1322 160 1322 c 4
 207 1322 244 1285 244 1238 c 4
 244 1191 207 1154 160 1154 c 4
 113 1154 76 1191 76 1238 c 4xf0
-72 -213 m 1
 -10 -213 l 2
 58 -213 109 -184 109 -61 c 2
 109 1000 l 1
 211 1000 l 1
 211 -72 l 2xe8
 211 -252 96 -309 -8 -309 c 2
 -72 -309 l 1
 -72 -213 l 1
EndSplineSet
EndChar

StartChar: G.ss04
Encoding: 65540 -1 77
GlifName: G_.ss04
Width: 1292
GlyphClass: 2
Flags: HW
HStem: -16 100<451 851> 568 96<641 1088> 1221 100<454 874>
VStem: 90 105<377 930> 1088 96<339 568 879 1013>
AnchorPoint: "top1" 645 1400 basechar 0
AnchorPoint: "bottom1" 643 0 basechar 0
LayerCount: 2
Fore
SplineSet
90 654 m 0
 90 1054 318 1320 662 1320 c 0
 951 1320 1164 1141 1184 879 c 1
 1078 879 l 1
 1068 1090 906 1221 662 1221 c 0
 365 1221 195 1013 195 654 c 0
 195 293 363 84 658 84 c 0
 918 84 1088 273 1088 568 c 1
 641 568 l 1
 641 664 l 1
 1184 664 l 1
 1184 582 l 2
 1184 227 972 -16 658 -16 c 0
 316 -16 90 252 90 654 c 0
EndSplineSet
EndChar

StartChar: R.ss05
Encoding: 65541 -1 78
GlifName: R_.ss05
Width: 1117
GlyphClass: 2
Flags: HW
HStem: 0 41G<109 211 884 1018> 559 96<211 804> 559 43<598 715> 1203 98<211 796>
VStem: 109 102<0 559 654 1203> 922 105<766 1085>
AnchorPoint: "top1" 564 1400 basechar 0
AnchorPoint: "bottom1" 588 0 basechar 0
LayerCount: 2
Fore
SplineSet
715 602 m 1xbc
 1018 0 l 1
 904 0 l 1
 598 602 l 1
 715 602 l 1xbc
623 1203 m 2
 211 1203 l 1
 211 654 l 1
 623 654 l 2xdc
 811 654 922 752 922 922 c 0
 922 1100 811 1203 623 1203 c 2
648 559 m 2
 211 559 l 1
 211 0 l 1
 109 0 l 1
 109 1301 l 1
 635 1301 l 2
 871 1301 1027 1151 1027 922 c 0
 1027 703 877 559 648 559 c 2
EndSplineSet
EndChar

StartChar: J.ss06
Encoding: 65542 -1 79
GlifName: J_.ss06
Width: 1037
GlyphClass: 2
Flags: W
HStem: -16 100<339.505 693.472> 1281 20G<838 938>
VStem: 100 99<222.49 357> 838 100<228.222 1301>
AnchorPoint: "top1" 891 1400 basechar 0
LayerCount: 2
Fore
SplineSet
199 357 m 5
 219 183 338 84 520 84 c 4
 721 84 838 207 838 414 c 6
 838 1301 l 5
 938 1301 l 5
 938 414 l 6
 938 156 770 -16 520 -16 c 4
 288 -16 120 132 100 357 c 5
 199 357 l 5
EndSplineSet
EndChar

StartChar: y.ss07
Encoding: 65543 -1 80
GlifName: y.ss07
Width: 1060
GlyphClass: 2
Flags: HW
HStem: 961 39G<70 199 862 992>
AnchorPoint: "top1" 553 1119 basechar 0
AnchorPoint: "bottom1" 727 0 basechar 0
LayerCount: 2
Fore
SplineSet
346 -348 m 1
 477 0 l 1
 70 1000 l 1
 184 1000 l 1
 535 133 l 1
 877 1000 l 1
 992 1000 l 1
 455 -348 l 1
 346 -348 l 1
EndSplineSet
EndChar

StartChar: t.ss08
Encoding: 65544 -1 81
GlifName: t.ss08
Width: 623
GlyphClass: 2
Flags: HW
HStem: 0 41G<262 361> 904 96<70 555>
VStem: 262 100<0 1260>
AnchorPoint: "bottom1" 314 0 basechar 0
AnchorPoint: "top2" 465 1098 basechar 0
LayerCount: 2
Fore
SplineSet
70 1000 m 1
 555 1000 l 1
 555 904 l 1
 70 904 l 1
 70 1000 l 1
262 0 m 1
 262 1260 l 1
 361 1260 l 1
 361 0 l 1
 262 0 l 1
EndSplineSet
EndChar

StartChar: exclam.ss03
Encoding: 65545 -1 82
GlifName: exclam.ss03
Width: 318
GlyphClass: 2
Flags: HW
HStem: -16 168<86 234> 1262 39G<109 211>
VStem: 76 168<-6 142> 117 84<285 1301>
LayerCount: 2
Fore
SplineSet
76 68 m 4xe0
 76 115 113 152 160 152 c 4
 207 152 244 115 244 68 c 4
 244 21 207 -16 160 -16 c 4
 113 -16 76 21 76 68 c 4xe0
201 285 m 1xd0
 117 285 l 1
 109 1301 l 1
 211 1301 l 1
 201 285 l 1xd0
EndSplineSet
EndChar

StartChar: comma.ss03
Encoding: 65546 -1 83
GlifName: comma.ss03
Width: 318
GlyphClass: 2
Flags: HW
HStem: -189 66<80 171> -16 168<86 183>
VStem: 80 164<-150 -123 -7 142> 184 61<-107 -12>
LayerCount: 2
Fore
SplineSet
76 68 m 4xd0
 76 115 113 152 160 152 c 4
 207 152 244 115 244 68 c 6xe0
 244 -33 l 6xd0
 244 -194 186 -248 104 -248 c 6
 80 -248 l 5
 80 -182 l 5xe0
 88 -182 l 6
 159 -182 184 -152 184 -29 c 6
 184 -12 l 5
 178 -15 169 -16 160 -16 c 4
 113 -16 76 21 76 68 c 4xd0
EndSplineSet
EndChar

StartChar: period.ss03
Encoding: 65547 -1 84
GlifName: period.ss03
Width: 318
GlyphClass: 2
Flags: HW
HStem: -16 168<86 234>
VStem: 76 168<-6 142>
LayerCount: 2
Fore
SplineSet
76 68 m 4
 76 115 113 152 160 152 c 4
 207 152 244 115 244 68 c 4
 244 21 207 -16 160 -16 c 4
 113 -16 76 21 76 68 c 4
EndSplineSet
EndChar

StartChar: colon.ss03
Encoding: 65548 -1 85
GlifName: colon.ss03
Width: 318
GlyphClass: 2
Flags: HW
HStem: -16 168<86 234> 811 168<86 234>
VStem: 76 168<-6 142 821 968>
LayerCount: 2
Fore
SplineSet
76 895 m 4
 76 942 113 979 160 979 c 4
 207 979 244 942 244 895 c 4
 244 848 207 811 160 811 c 4
 113 811 76 848 76 895 c 4
76 68 m 4
 76 115 113 152 160 152 c 4
 207 152 244 115 244 68 c 4
 244 21 207 -16 160 -16 c 4
 113 -16 76 21 76 68 c 4
EndSplineSet
EndChar

StartChar: semicolon.ss03
Encoding: 65549 -1 86
GlifName: semicolon.ss03
Width: 318
GlyphClass: 2
Flags: HW
HStem: -189 66<80 171> -16 168<86 183> 811 168<86 234>
VStem: 76 168<-150 -123 -6 142 821 968> 184 61<-107 -12>
LayerCount: 2
Fore
SplineSet
76 895 m 0xf0
 76 942 113 979 160 979 c 0
 207 979 244 942 244 895 c 0
 244 848 207 811 160 811 c 0
 113 811 76 848 76 895 c 0xf0
76 68 m 0xd0
 76 115 113 152 160 152 c 0
 207 152 244 115 244 68 c 2xe0
 244 -33 l 2xd0
 244 -194 186 -248 104 -248 c 2
 80 -248 l 1
 80 -182 l 1xe0
 88 -182 l 2
 159 -182 184 -152 184 -29 c 2
 184 -12 l 1
 178 -15 169 -16 160 -16 c 0
 113 -16 76 21 76 68 c 0xd0
EndSplineSet
EndChar

StartChar: numbersign
Encoding: 35 35 87
GlifName: numbersign
Width: 1375
GlyphClass: 2
Flags: HW
HStem: 0 41G<109 239 617 747> 346 96<70 1166> 865 98<211 1307> 1262 39G<630 758 1138 1266>
LayerCount: 2
Fore
SplineSet
1166 441 m 5
 1166 346 l 5
 70 346 l 5
 70 441 l 5
 1166 441 l 5
1307 963 m 5
 1307 865 l 5
 211 865 l 5
 211 963 l 5
 1307 963 l 5
1154 1301 m 5
 1266 1301 l 5
 730 0 l 5
 617 0 l 5
 1154 1301 l 5
646 1301 m 5
 758 1301 l 5
 223 0 l 5
 109 0 l 5
 646 1301 l 5
EndSplineSet
EndChar

StartChar: slash
Encoding: 47 47 88
GlifName: slash
Width: 787
GlyphClass: 2
Flags: HW
HStem: 0 41G<70 198> 1262 39G<589 719>
VStem: 70 648
LayerCount: 2
Fore
SplineSet
605 1301 m 5
 719 1301 l 5
 182 0 l 5
 70 0 l 5
 605 1301 l 5
EndSplineSet
Substitution2: "'tnum' Tabular Numbers in Latin lookup 11-1" slash.tabl
EndChar

StartChar: backslash
Encoding: 92 92 89
GlifName: backslash
Width: 787
GlyphClass: 2
Flags: HW
HStem: 0 41G<589 719> 1262 39G<70 198>
VStem: 70 648
LayerCount: 2
Fore
SplineSet
182 1301 m 5
 719 0 l 5
 605 0 l 5
 70 1301 l 5
 182 1301 l 5
EndSplineSet
EndChar

StartChar: dollar
Encoding: 36 36 90
GlifName: dollar
Width: 1138
GlyphClass: 2
Flags: HW
HStem: -16 102<372 807> 1215 104<346 759>
VStem: 100 100<250 381 825 1085> 525 102<-240 1500> 922 104<920 1049> 949 102<210 475>
LayerCount: 2
Fore
SplineSet
525 1500 m 5xf0
 627 1500 l 5
 627 -240 l 5
 525 -240 l 5
 525 1500 l 5xf0
641 592 m 2
 490 611 l 2
 240 644 100 754 100 945 c 0
 100 1174 274 1318 555 1318 c 0
 825 1318 1002 1168 1025 920 c 1
 922 920 l 1xf8
 891 1119 776 1215 553 1215 c 0
 340 1215 199 1109 199 949 c 0
 199 816 301 746 498 721 c 2
 648 699 l 2
 916 664 1051 549 1051 344 c 0
 1051 125 871 -16 600 -16 c 0
 299 -16 115 143 90 381 c 1
 197 381 l 1
 230 180 360 86 602 86 c 0
 809 86 949 186 949 344 c 0xf4
 949 483 846 565 641 592 c 2
EndSplineSet
EndChar

StartChar: bar
Encoding: 124 124 91
GlifName: bar
Width: 318
GlyphClass: 2
Flags: HW
VStem: 109 102<-400 1602>
LayerCount: 2
Fore
SplineSet
109 1602 m 1
 211 1602 l 1
 211 -400 l 1
 109 -400 l 1
 109 1602 l 1
EndSplineSet
EndChar

StartChar: percent
Encoding: 37 37 92
GlifName: percent
Width: 1667
GlyphClass: 2
Flags: HW
HStem: -16 100<1162 1404> 0 41G<510 637> 521 100<265 507> 680 100<1160 1406> 1219 100<265 507> 1262 39G<1031 1158>
VStem: 70 105<722 1120> 594 105<722 1120> 969 105<185 582> 1492 105<185 582>
LayerCount: 2
Fore
SplineSet
969 385 m 4xb3c0
 969 623 1094 779 1283 779 c 4
 1471 779 1598 623 1598 385 c 4
 1598 145 1471 -16 1283 -16 c 4
 1094 -16 969 145 969 385 c 4xb3c0
1492 385 m 4
 1492 573 1416 680 1283 680 c 4
 1150 680 1074 573 1074 385 c 4
 1074 196 1150 84 1283 84 c 4
 1416 84 1492 196 1492 385 c 4
1047 1301 m 5x77c0
 1158 1301 l 5
 621 0 l 5
 510 0 l 5
 1047 1301 l 5x77c0
70 922 m 4
 70 1160 198 1318 387 1318 c 4x3bc0
 575 1318 699 1160 699 922 c 4
 699 682 575 521 387 521 c 4
 198 521 70 682 70 922 c 4
594 922 m 4
 594 1110 520 1219 387 1219 c 4
 254 1219 176 1110 176 922 c 4
 176 733 254 621 387 621 c 4
 520 621 594 733 594 922 c 4
EndSplineSet
EndChar

StartChar: less
Encoding: 60 60 93
GlifName: less
Width: 1138
GlyphClass: 2
Flags: HW
HStem: 961 39G<974 1070>
LayerCount: 2
Fore
SplineSet
1070 1000 m 5
 1070 889 l 5
 201 535 l 5
 1070 195 l 5
 1070 80 l 5
 70 484 l 5
 70 596 l 5
 1070 1000 l 5
EndSplineSet
Substitution2: "'tnum' Tabular Numbers in Latin lookup 11-1" less.tabl
EndChar

StartChar: greater
Encoding: 62 62 94
GlifName: greater
Width: 1138
GlyphClass: 2
Flags: HW
HStem: 961 39G<70 167>
LayerCount: 2
Fore
SplineSet
70 80 m 5
 70 191 l 5
 938 545 l 5
 70 885 l 5
 70 1000 l 5
 1070 596 l 5
 1070 484 l 5
 70 80 l 5
EndSplineSet
Substitution2: "'tnum' Tabular Numbers in Latin lookup 11-1" greater.tabl
EndChar

StartChar: question
Encoding: 63 63 95
GlifName: question
Width: 1033
GlyphClass: 2
Flags: HW
HStem: 0 141<453 582> 1217 100<338 701>
VStem: 90 105<918 1071> 453 129<0 141> 471 100<285 441> 838 105<781 1088>
LayerCount: 2
Fore
SplineSet
471 285 m 5xec
 471 480 578 572 678 658 c 4
 762 730 838 799 838 928 c 4
 838 1112 717 1217 510 1217 c 4
 326 1217 203 1100 195 918 c 5
 90 918 l 5
 106 1154 278 1316 510 1316 c 4
 770 1316 943 1162 943 928 c 4
 943 756 832 670 730 578 c 4
 646 502 570 422 570 285 c 5
 471 285 l 5xec
582 0 m 5xf4
 453 0 l 5
 453 141 l 5
 582 141 l 5
 582 0 l 5xf4
EndSplineSet
Substitution2: "'ss03' Style Set 3 in Latin lookup 2-1" question.ss03
EndChar

StartChar: question.ss03
Encoding: 65550 -1 96
GlifName: question.ss03
Width: 1033
GlyphClass: 2
Flags: HW
HStem: -16 168<444 592> 1217 100<338 701>
VStem: 90 105<918 1071> 434 168<-6 142> 471 100<285 441> 838 105<781 1088>
LayerCount: 2
Fore
SplineSet
434 68 m 0xf4
 434 115 471 152 518 152 c 0
 565 152 602 115 602 68 c 0
 602 21 565 -16 518 -16 c 0
 471 -16 434 21 434 68 c 0xf4
471 285 m 1xec
 471 480 578 572 678 658 c 0
 762 730 838 799 838 928 c 0
 838 1112 717 1217 510 1217 c 0
 326 1217 203 1100 195 918 c 1
 90 918 l 1
 106 1154 278 1316 510 1316 c 0
 770 1316 943 1162 943 928 c 0
 943 756 832 670 730 578 c 0
 646 502 570 422 570 285 c 1
 471 285 l 1xec
EndSplineSet
EndChar

StartChar: parenleft
Encoding: 40 40 97
GlifName: parenleft
Width: 460
GlyphClass: 2
Flags: HW
VStem: 70 105<165 944>
LayerCount: 2
Fore
SplineSet
432 -268 m 5
 330 -268 l 5
 180 -112 70 174 70 555 c 4
 70 936 180 1221 330 1377 c 5
 432 1377 l 5
 260 1207 176 957 176 555 c 4
 176 153 260 -98 432 -268 c 5
EndSplineSet
Substitution2: "'sups' Superscript in Latin lookup 15-1" uni207D
Substitution2: "'subs' Subscript in Latin lookup 14-1" uni208D
EndChar

StartChar: parenright
Encoding: 41 41 98
GlifName: parenright
Width: 460
GlyphClass: 2
Flags: HW
VStem: 266 105<165 944>
LayerCount: 2
Fore
SplineSet
10 1377 m 1
 111 1377 l 1
 261 1221 371 936 371 555 c 0
 371 174 261 -112 111 -268 c 1
 10 -268 l 1
 182 -98 266 153 266 555 c 0
 266 957 182 1207 10 1377 c 1
EndSplineSet
Substitution2: "'sups' Superscript in Latin lookup 15-1" uni207E
Substitution2: "'subs' Subscript in Latin lookup 14-1" uni208E
EndChar

StartChar: bracketleft
Encoding: 91 91 99
GlifName: bracketleft
Width: 458
GlyphClass: 2
Flags: HW
VStem: 90 340
LayerCount: 2
Fore
SplineSet
189 1283 m 5
 430 1283 l 5
 430 1381 l 5
 90 1381 l 5
 90 -260 l 5
 430 -260 l 5
 430 -164 l 5
 189 -164 l 5
 189 1283 l 5
EndSplineSet
EndChar

StartChar: bracketright
Encoding: 93 93 100
GlifName: bracketright
Width: 458
GlyphClass: 2
Flags: HW
VStem: 29 340
LayerCount: 2
Fore
SplineSet
270 -164 m 5
 29 -164 l 5
 29 -260 l 5
 369 -260 l 5
 369 1381 l 5
 29 1381 l 5
 29 1283 l 5
 270 1283 l 5
 270 -164 l 5
EndSplineSet
EndChar

StartChar: underscore
Encoding: 95 95 101
GlifName: underscore
Width: 1123
GlyphClass: 2
Flags: HW
HStem: -96 96<70 1055>
LayerCount: 2
Fore
SplineSet
70 0 m 5
 1055 0 l 5
 1055 -96 l 5
 70 -96 l 5
 70 0 l 5
EndSplineSet
EndChar

StartChar: grave
Encoding: 96 96 102
GlifName: grave
Width: 488
GlyphClass: 2
Flags: HW
HStem: 1080 320
VStem: 70 350
LayerCount: 2
Fore
SplineSet
70 1400 m 5
 195 1400 l 5
 420 1080 l 5
 334 1080 l 5
 70 1400 l 5
EndSplineSet
EndChar

StartChar: asterisk
Encoding: 42 42 103
GlifName: asterisk
Width: 1054
GlyphClass: 2
Flags: HW
HStem: 1361 39G<479 578>
VStem: 482 92<957 1400>
LayerCount: 2
Fore
SplineSet
479 1400 m 5
 578 1400 l 5
 574 955 l 5
 988 1102 l 5
 1018 1006 l 5
 604 867 l 5
 861 523 l 5
 781 467 l 5
 525 820 l 5
 273 467 l 5
 193 523 l 5
 451 869 l 5
 37 1006 l 5
 68 1102 l 5
 482 957 l 5
 479 1400 l 5
EndSplineSet
Substitution2: "'ss09' Style Set 9 in Latin lookup 8-1" asterisk.ss09
EndChar

StartChar: asterisk.ss09
Encoding: 65551 -1 104
GlifName: asterisk.ss09
Width: 1314
GlyphClass: 2
Flags: HW
HStem: 0 41G<607 707> 979 39G<97 186 1129 1218> 1262 39G<607 707>
VStem: 607 100<0 572 729 1301>
LayerCount: 2
Fore
SplineSet
607 1301 m 1
 707 1301 l 1
 703 729 l 1
 1195 1018 l 1
 1246 932 l 1
 748 650 l 1
 1246 367 l 1
 1195 281 l 1
 703 572 l 1
 707 0 l 1
 607 0 l 1
 611 572 l 1
 119 281 l 1
 70 367 l 1
 568 650 l 1
 70 932 l 1
 119 1018 l 1
 611 729 l 1
 607 1301 l 1
EndSplineSet
EndChar

StartChar: u.ss10
Encoding: 65552 -1 105
GlifName: u.ss10
Width: 1003
GlyphClass: 2
Flags: W
HStem: -16 100<331.664 674.802> 980 20G<109 211 795 895>
VStem: 109 102<204.678 1000> 795 100<204.678 1000>
AnchorPoint: "bottom2" 611 0 basechar 0
AnchorPoint: "top3" 795 1000 basechar 0
AnchorPoint: "top1" 514 1119 basechar 0
AnchorPoint: "bottom1" 504 0 basechar 0
LayerCount: 2
Fore
SplineSet
109 1000 m 5
 211 1000 l 5
 211 373 l 6
 211 189 318 84 504 84 c 4
 688 84 795 189 795 373 c 6
 795 1000 l 5
 895 1000 l 5
 895 373 l 6
 895 139 738 -16 504 -16 c 4
 268 -16 109 139 109 373 c 6
 109 1000 l 5
EndSplineSet
EndChar

StartChar: braceleft
Encoding: 123 123 106
GlifName: braceleft
Width: 458
GlyphClass: 2
Flags: HW
HStem: -260 96<295 430> 512 96<25 156> 1283 98<295 430>
VStem: 168 100<-139 502 618 1260>
LayerCount: 2
Fore
SplineSet
430 1283 m 5
 389 1283 l 6
 305 1283 268 1238 268 1133 c 6
 268 707 l 6
 268 635 237 584 178 561 c 5
 237 538 268 484 268 412 c 6
 268 -12 l 6
 268 -117 305 -164 389 -164 c 6
 430 -164 l 5
 430 -260 l 5
 379 -260 l 6
 246 -260 168 -171 168 -23 c 6
 168 400 l 6
 168 478 140 512 78 512 c 6
 25 512 l 5
 25 607 l 5
 78 607 l 6
 140 607 168 643 168 721 c 6
 168 1145 l 6
 168 1293 246 1381 379 1381 c 6
 430 1381 l 5
 430 1283 l 5
EndSplineSet
EndChar

StartChar: braceright
Encoding: 125 125 107
GlifName: braceright
Width: 458
GlyphClass: 2
Flags: HW
HStem: -260 96<25 162> 512 96<300 430> 1283 98<25 162>
VStem: 188 100<-139 500 618 1260>
LayerCount: 2
Fore
SplineSet
25 -164 m 5
 68 -164 l 6
 152 -164 188 -117 188 -12 c 6
 188 412 l 6
 188 484 218 538 277 561 c 5
 218 584 188 635 188 707 c 6
 188 1133 l 6
 188 1238 152 1283 68 1283 c 6
 25 1283 l 5
 25 1381 l 5
 78 1381 l 6
 211 1381 287 1293 287 1145 c 6
 287 721 l 6
 287 643 317 607 379 607 c 6
 430 607 l 5
 430 512 l 5
 379 512 l 6
 317 512 287 478 287 400 c 6
 287 -23 l 6
 287 -171 211 -260 78 -260 c 6
 25 -260 l 5
 25 -164 l 5
EndSplineSet
EndChar

StartChar: asciicircum
Encoding: 94 94 108
GlifName: asciicircum
Width: 732
GlyphClass: 2
Flags: HW
HStem: 1000 400
VStem: 70 594
LayerCount: 2
Fore
SplineSet
314 1400 m 5
 420 1400 l 5
 664 1000 l 5
 578 1000 l 5
 367 1336 l 5
 156 1000 l 5
 70 1000 l 5
 314 1400 l 5
EndSplineSet
EndChar

StartChar: ampersand
Encoding: 38 38 109
GlifName: ampersand
Width: 1212
GlyphClass: 2
Flags: HW
HStem: -16 100<302 673> 0 41G<1005 1184> 1217 100<377 643>
VStem: 90 105<183 464> 205 107<873 1151> 719 105<881 1146> 957 107<446 643>
LayerCount: 2
Fore
SplineSet
504 1316 m 4x7e
 692 1316 824 1188 824 1010 c 4
 824 813 678 725 490 637 c 4
 361 576 195 509 195 320 c 4
 195 172 298 84 486 84 c 4
 742 84 918 289 957 643 c 5
 1064 643 l 5
 1025 247 789 -16 484 -16 c 4xbe
 244 -16 90 119 90 326 c 4
 90 566 299 642 488 740 c 4
 603 801 719 870 719 1020 c 4
 719 1137 633 1217 504 1217 c 4
 387 1217 312 1139 312 1018 c 4
 312 885 408 793 510 697 c 6
 1184 0 l 5
 1043 0 l 5
 428 637 l 6
 315 746 205 858 205 1014 c 4
 205 1192 330 1316 504 1316 c 4x7e
EndSplineSet
EndChar

StartChar: at
Encoding: 64 64 110
GlifName: at
Width: 1769
GlyphClass: 2
Flags: HW
HStem: -236 100<614 1166> 139 100<732 1009 1262 1485> 873 102<730 1009> 1279 102<616 1157>
VStem: 90 105<289 843> 516 105<357 756> 1119 102<277 395> 1119 66<305 809> 1574 105<339 851>
LayerCount: 2
Fore
SplineSet
621 557 m 4xfd80
 621 756 711 873 869 873 c 4
 1027 873 1119 756 1119 557 c 4
 1119 356 1025 238 869 238 c 4
 711 238 621 358 621 557 c 4xfd80
1186 557 m 4
 1186 809 1054 975 855 975 c 4
 654 975 516 807 516 557 c 4
 516 307 654 139 855 139 c 4
 1054 139 1186 305 1186 557 c 4
1221 953 m 5xfe80
 1119 953 l 5xfd80
 1119 373 l 6
 1119 228 1213 146 1369 146 c 4
 1560 146 1680 301 1680 594 c 4
 1680 1047 1366 1381 887 1381 c 4
 408 1381 90 1050 90 564 c 4
 90 78 409 -236 889 -236 c 4
 1000 -236 1103 -217 1197 -184 c 5
 1197 -84 l 5
 1082 -119 983 -137 879 -137 c 4
 461 -137 195 128 195 566 c 4
 195 1004 461 1279 887 1279 c 4
 1313 1279 1574 1004 1574 572 c 4
 1574 342 1506 244 1367 244 c 4
 1269 244 1221 299 1221 395 c 6
 1221 953 l 5xfe80
EndSplineSet
EndChar

StartChar: dotlessi
Encoding: 305 305 111
GlifName: dotlessi
Width: 318
GlyphClass: 2
Flags: W
HStem: 0 21G<109 211> 980 20G<109 211>
VStem: 109 102<0 1000>
AnchorPoint: "bottom1" 162 0 basechar 0
AnchorPoint: "top1" 160 1119 basechar 0
LayerCount: 2
Fore
SplineSet
109 1000 m 1
 211 1000 l 1
 211 0 l 1
 109 0 l 1
 109 1000 l 1
EndSplineSet
Substitution2: "'ss03' Style Set 3 in Latin lookup 2-1" dotlessi.ss03
EndChar

StartChar: uni0237
Encoding: 567 567 112
GlifName: uni0237
Width: 318
GlyphClass: 2
Flags: HW
HStem: -309 96<-72 84> 961 39G<109 211>
VStem: 109 102<-191 1000>
AnchorPoint: "top1" 160 1119 basechar 0
LayerCount: 2
Fore
SplineSet
-72 -213 m 1
 -10 -213 l 2
 58 -213 109 -184 109 -61 c 2
 109 1000 l 1
 211 1000 l 1
 211 -72 l 2
 211 -252 96 -309 -8 -309 c 2
 -72 -309 l 1
 -72 -213 l 1
EndSplineSet
EndChar

StartChar: gravecomb
Encoding: 768 768 113
GlifName: gravecomb
Width: 599
GlyphClass: 4
Flags: W
HStem: 1000 262
VStem: 78 330
AnchorPoint: "top1" 312 1000 mark 0
LayerCount: 2
Fore
SplineSet
78 1262 m 5
 203 1262 l 5
 408 1000 l 1
 322 1000 l 1
 78 1262 l 5
EndSplineSet
EndChar

StartChar: acutecomb
Encoding: 769 769 116
GlifName: acutecomb
Width: 599
GlyphClass: 4
Flags: HW
HStem: 1000 262
VStem: 213 330
AnchorPoint: "top1" 312 1000 mark 0
LayerCount: 2
Fore
SplineSet
543 1262 m 5
 299 1000 l 1
 213 1000 l 1
 416 1262 l 5
 543 1262 l 5
EndSplineSet
EndChar

StartChar: uni0302
Encoding: 770 770 117
GlifName: uni0302
Width: 599
GlyphClass: 4
Flags: W
HStem: 1000 281
VStem: -18 637
AnchorPoint: "top1" 312 1000 mark 0
LayerCount: 2
Fore
SplineSet
248 1281 m 5
 354 1281 l 5
 619 1000 l 5
 494 1000 l 5
 303 1217 l 5
 109 1000 l 5
 -18 1000 l 5
 248 1281 l 5
EndSplineSet
EndChar

StartChar: tildecomb
Encoding: 771 771 118
GlifName: tildecomb
Width: 599
GlyphClass: 4
Flags: HW
HStem: 992 88<357 513> 1156 88<86 233>
VStem: -29 90<1000 1134> 539 86<1102 1232>
AnchorPoint: "top1" 312 1000 mark 0
LayerCount: 2
Fore
SplineSet
156 1244 m 4
 236 1244 283 1197 326 1154 c 4
 363 1117 396 1080 447 1080 c 0
 502 1080 539 1140 539 1232 c 5
 625 1232 l 5
 625 1086 554 992 447 992 c 0
 365 992 318 1031 275 1070 c 4
 232 1111 203 1156 152 1156 c 4
 95 1156 61 1094 61 1000 c 1
 -29 1000 l 1
 -29 1152 41 1244 156 1244 c 4
EndSplineSet
EndChar

StartChar: uni0304
Encoding: 772 772 119
GlifName: uni0304
Width: 599
GlyphClass: 4
Flags: HW
HStem: 1039 94<0 600>
VStem: 0 600<1039 1133>
AnchorPoint: "top1" 312 1000 mark 0
LayerCount: 2
Fore
SplineSet
0 1133 m 5
 600 1133 l 5
 600 1039 l 5
 0 1039 l 5
 0 1133 l 5
EndSplineSet
EndChar

StartChar: uni0306
Encoding: 774 774 120
GlifName: uni0306
Width: 599
GlyphClass: 4
Flags: HW
HStem: 1000 84<159 448>
VStem: -12 102<1153 1260> 516 102<1148 1260>
AnchorPoint: "top1" 312 1000 mark 0
LayerCount: 2
Fore
SplineSet
617 1260 m 5
 603 1104 489 1000 305 1000 c 0
 119 1000 2 1104 -12 1260 c 5
 90 1260 l 5
 104 1147 174 1084 305 1084 c 0
 436 1084 502 1147 516 1260 c 5
 617 1260 l 5
EndSplineSet
EndChar

StartChar: uni0308
Encoding: 776 776 121
GlifName: uni0308
Width: 599
GlyphClass: 4
Flags: W
HStem: 1027 141<74 203 395 523>
VStem: 74 129<1027 1168> 395 128<1027 1168>
AnchorPoint: "top1" 312 1000 mark 0
LayerCount: 2
Fore
SplineSet
395 1168 m 1
 523 1168 l 1
 523 1027 l 1
 395 1027 l 1
 395 1168 l 1
74 1168 m 1
 203 1168 l 1
 203 1027 l 1
 74 1027 l 1
 74 1168 l 1
EndSplineSet
Substitution2: "'ss03' Style Set 3 in Latin lookup 2-1" uni0308.ss03
EndChar

StartChar: uni0307
Encoding: 775 775 122
GlifName: uni0307
Width: 599
GlyphClass: 4
Flags: HW
HStem: 1000 141<246 373>
VStem: 246 127<1000 1141>
AnchorPoint: "top1" 312 1000 mark 0
LayerCount: 2
Fore
SplineSet
246 1139 m 1
 375 1139 l 1
 375 1000 l 1
 246 1000 l 1
 246 1139 l 1
EndSplineSet
Substitution2: "'ss03' Style Set 3 in Latin lookup 2-1" uni0307.ss03
EndChar

StartChar: uni030A
Encoding: 778 778 123
GlifName: uni030A_
Width: 599
GlyphClass: 4
Flags: HW
HStem: 986 80<205 402> 1301 80<204 402>
VStem: 88 90<1090 1278> 428 90<1089 1278>
AnchorPoint: "top1" 312 1000 mark 0
LayerCount: 2
Fore
SplineSet
178 1184 m 0
 178 1110 225 1066 305 1066 c 0
 383 1066 428 1110 428 1184 c 0
 428 1258 383 1301 303 1301 c 0
 225 1301 178 1258 178 1184 c 0
518 1184 m 0
 518 1065 432 986 305 986 c 0
 174 986 88 1065 88 1184 c 0
 88 1303 174 1381 303 1381 c 0
 432 1381 518 1303 518 1184 c 0
EndSplineSet
EndChar

StartChar: uni030C
Encoding: 780 780 124
GlifName: uni030C_
Width: 599
GlyphClass: 4
Flags: W
HStem: 1000 281
VStem: -18 637
AnchorPoint: "top1" 312 1000 mark 0
LayerCount: 2
Fore
SplineSet
354 1000 m 1
 248 1000 l 1
 -18 1281 l 1
 107 1281 l 1
 299 1064 l 1
 492 1281 l 1
 619 1281 l 1
 354 1000 l 1
EndSplineSet
EndChar

StartChar: Idieresis
Encoding: 207 207 137
GlifName: I_dieresis
Width: 318
GlyphClass: 2
Flags: HW
HStem: 0 21G<109 211> 1281 20G<109 211> 1427 141<-76 53 245 373>
VStem: -76 129<1427 1568> 109 102<0 1301> 245 128<1427 1568>
LayerCount: 2
Fore
SplineSet
-76 1568 m 1
 53 1568 l 1
 53 1427 l 1
 -76 1427 l 1
 -76 1568 l 1
245 1568 m 1
 373 1568 l 1
 373 1427 l 1
 245 1427 l 1
 245 1568 l 1
109 1301 m 1
 211 1301 l 1
 211 0 l 1
 109 0 l 1
 109 1301 l 1
EndSplineSet
Substitution2: "dieresis-1" Idieresis.calt
Substitution2: "'ss11' Style Set 11 in Latin lookup 22-1" Idieresis.ss11
Substitution2: "'ss03' Style Set 3 in Latin lookup 2-1" Idieresis.ss03
EndChar

StartChar: idieresis
Encoding: 239 239 161
GlifName: idieresis
Width: 318
GlyphClass: 2
Flags: HW
HStem: 0 41G<109 211> 961 39G<109 211> 1146 141<-78 51 242 371>
VStem: -78 129<1146 1287> 109 102<0 1000> 242 129<1146 1287>
LayerCount: 2
Fore
SplineSet
109 1000 m 1
 211 1000 l 1
 211 0 l 1
 109 0 l 1
 109 1000 l 1
242 1287 m 1
 371 1287 l 1
 371 1146 l 1
 242 1146 l 1
 242 1287 l 1
-78 1287 m 1
 51 1287 l 1
 51 1146 l 1
 -78 1146 l 1
 -78 1287 l 1
EndSplineSet
Substitution2: "dieresis-1" idieresis.calt
Substitution2: "'ss03' Style Set 3 in Latin lookup 2-1" idieresis.ss03
EndChar

StartChar: uni0327
Encoding: 807 807 252
GlifName: uni0327
Width: 599
GlyphClass: 4
Flags: HW
HStem: -414 92<230 460> -176 96<344 459>
VStem: 467 96<-314 -186>
AnchorPoint: "bottom1" 320 0 mark 0
LayerCount: 2
Fore
SplineSet
279 20 m 1
 361 20 l 1
 344 -80 l 1
 381 -80 l 2
 489 -80 562 -148 562 -248 c 0
 562 -350 495 -414 389 -414 c 2
 230 -414 l 1
 230 -322 l 1
 377 -322 l 2
 436 -322 467 -296 467 -248 c 0
 467 -202 428 -176 365 -176 c 2
 299 -176 l 1
 252 -119 l 1
 279 20 l 1
EndSplineSet
EndChar

StartChar: uni0328
Encoding: 808 808 253
GlifName: uni0328
Width: 599
GlyphClass: 4
Flags: HW
HStem: -553 102<224 477> -39 39G<242 393>
VStem: 84 105<-415 -156>
AnchorPoint: "bottom2" 393 0 mark 0
LayerCount: 2
Fore
SplineSet
391 0 m 1
 263.529729949 -131.919259934 228 -185.847766954 228 -247.408203125 c 0
 228 -328.631537577 283.53516565 -371 390 -371 c 2
 453 -371 l 1
 453 -471 l 1
 374 -471 l 2
 221.46835155 -471 120 -386.439789385 120 -259.325195312 c 0
 120 -169.516297437 170.137206076 -92.9887535965 322 49 c 1
 391 0 l 1
EndSplineSet
EndChar

StartChar: Aogonek
Encoding: 260 260 256
GlifName: A_ogonek
Width: 1230
GlyphClass: 2
Flags: HW
HStem: -553 102<993 1246> -39 39G<1012 1162> 0 41G<70 200 1034 1162> 377 96<287 932> 1262 39G<546 688>
VStem: 854 105<-415 -156>
LayerCount: 2
Fore
SplineSet
287 473 m 1
 932 473 l 1
 932 377 l 1
 287 377 l 1
 287 473 l 1
1162 0 m 1
 1049 0 l 1
 613 1168 l 1
 186 0 l 1
 70 0 l 1
 561 1301 l 1
 674 1301 l 1
 1162 0 l 1
1162 0 m 5
 1053.14901446 -99.3587156636 1013 -158.189431575 1013 -218.331054688 c 0
 1013 -276.849099745 1047.34393987 -307 1114 -307 c 2
 1161 -307 l 1
 1161 -400 l 1
 1098 -400 l 2
 982.39448386 -400 911 -337.213657869 911 -235.546875 c 0
 911 -168.324044901 942.215108816 -115.04418016 1049 0 c 1
 1162 0 l 5
EndSplineSet
EndChar

StartChar: aogonek
Encoding: 261 261 257
GlifName: aogonek
Width: 1001
GlyphClass: 2
Flags: HW
HStem: -553 102<722 975> -39 39G<740 891> -20 100<272 602> 0 41G<789 891> 920 100<318 666>
VStem: 90 104<155 383 684 790> 582 105<-415 -156> 789 70<184 439> 789 102<439 469 648 801>
LayerCount: 2
Fore
SplineSet
891 0 m 1
 790.184993255 -99.3587156636 753 -158.189431575 753 -218.331054688 c 0
 753 -276.849099745 787.343939865 -307 854 -307 c 2
 891 -307 l 1
 891 -400 l 1
 838 -400 l 2
 722.39448386 -400 651 -337.213657869 651 -235.546875 c 0
 651 -168.324044901 682.215108816 -115.04418016 789 0 c 1
 891 0 l 1
891 670 m 2x6c
 891 0 l 1x6c
 789 0 l 1x62
 789 672 l 2
 789 821.259983437 671.444642106 921 495.524170295 921 c 0
 333.013096793 921 240.881230514 832.510892903 224 672 c 1
 118 672 l 1
 131.484192089 870.811513377 283.807916226 1020 504.392891301 1020 c 0
 731.033553515 1020 891 875.18047907 891 670 c 2x6c
859 439 m 1xa2
 859 162.20697764 663.233736896 -20 414.620108596 -20 c 0
 224.268036757 -20 90 98.5316025774 90 266.574099317 c 0
 90 418.937172459 200.375938984 520.780106619 382 536 c 2
 740 566 l 2
 774.755705088 568.912489253 789 584.028883853 789 618 c 1
 793 471 l 1
 402 443 l 2
 263.497521721 433.08166396 193 375.359802326 193 272.240170894 c 0
 193 154.385304994 285.1000925 80 431.021979247 80 c 0
 638.718714179 80 789 210.71031874 789 439 c 1xb4
 859 439 l 1xa2
EndSplineSet
Substitution2: "'ss01' Style Set 1 in Latin lookup 0-1" aogonek.ss01
EndChar

StartChar: Eogonek
Encoding: 280 280 258
GlifName: E_ogonek
Width: 1058
GlyphClass: 2
Flags: HW
HStem: -553 102<761 1014> -39 39G<779 930> 0 96<211 971> 617 98<211 914> 1203 98<211 971>
VStem: 109 102<96 617 715 1203> 621 105<-415 -156>
LayerCount: 2
Fore
SplineSet
971 1301 m 1
 971 1203 l 1
 211 1203 l 1
 211 715 l 1
 914 715 l 1
 914 617 l 1
 211 617 l 1
 211 96 l 1
 971 96 l 1
 971 0 l 1
 109 0 l 1
 109 1301 l 1
 971 1301 l 1
971 0 m 1
 887.746732587 -37.398825256 831 -121.638985614 831 -207.829101562 c 0
 831 -271.650477672 870.566012209 -307 942 -307 c 2
 979 -307 l 1
 979 -400 l 1
 926 -400 l 2
 808.15144569 -400 729 -330.102926524 729 -226.033203125 c 0
 729 -138.895748076 774.596766234 -57.7431250533 856 0 c 1
 971 0 l 1
EndSplineSet
EndChar

StartChar: eogonek
Encoding: 281 281 259
GlifName: eogonek
Width: 1085
GlyphClass: 2
Flags: HW
HStem: -480 102<677 930> -16 100<372 746> 33 39G<695 846> 473 96<178 889> 920 100<366 710>
VStem: 178 18<473 568> 537 105<-343 -84> 879 105<212 311 568 749>
LayerCount: 2
Fore
SplineSet
90 504.772276924 m 0
 90 818.15470416 264.654764256 1020 535.821519582 1020 c 0
 805.57982779 1020 996 817.653588394 996 531 c 2
 996 473 l 1
 195.646520469 473 l 1
 205.661845366 220.095577462 331.801208957 84 557.507261442 84 c 0
 732.857548823 84 844.654817569 167.174444702 879 311 c 1
 984 311 l 1
 888.107623318 15.4568547741 741 -66.1965602206 741 -197.162109375 c 0
 741 -272.536059787 775.828576385 -307 852 -307 c 2
 889 -307 l 1
 889 -400 l 1
 836 -400 l 2
 712.11906978 -400 639 -331.844870083 639 -216.374023438 c 0
 639 -112.379535409 697.166639306 -41.3866298051 763.19921875 44.9931640625 c 1
 693.372912412 -4.20828527669 627.918921995 -16 562.525390625 -16 c 0
 268.031158665 -16 90 180.208910041 90 504.772276924 c 0
197.301240164 568 m 1
 889 568 l 1
 870.779320709 785.635891528 733.541740093 920 529.47222933 920 c 0
 331.858797583 920 214.823537224 794.859345683 197.301240164 568 c 1
EndSplineSet
EndChar

StartChar: Uogonek
Encoding: 370 370 266
GlifName: U_ogonek
Width: 1156
GlyphClass: 2
Flags: HW
HStem: -553 102<482 734> -39 39G<500 650> -16 100<385 774> 1262 39G<100 199 957 1059>
VStem: 100 100<285 1301> 342 105<-415 -156> 957 102<285 1301>
LayerCount: 2
Fore
SplineSet
100 1301 m 1
 199 1301 l 1
 199 494 l 2
 199 235 339 84 579 84 c 0
 818 84 957 234 957 494 c 2
 957 1301 l 1
 1059 1301 l 1
 1059 494 l 2
 1059 48.3028485757 686 34.0584707646 686 -183 c 0
 686 -257.029850746 732 -307 802 -307 c 2
 839 -307 l 1
 839 -400 l 1
 786 -400 l 2
 666 -400 589 -322.932038835 589 -204 c 0
 589 -140.921182266 614.256756757 -84.6354679803 678 -7 c 1
 646.969879518 -13.12 613.506024096 -16 577 -16 c 0
 284 -16 100 181 100 494 c 2
 100 1301 l 1
EndSplineSet
EndChar

StartChar: uogonek
Encoding: 371 371 267
GlifName: uogonek
Width: 1003
GlyphClass: 2
Flags: HW
HStem: -553 102<726 979> -39 39G<744 895> -20 100<328 640> 0 41G<795 895> 961 39G<109 211 795 895>
VStem: 109 102<210 1000> 586 105<-415 -156> 795 57<131 377> 795 100<377 1000>
LayerCount: 2
Fore
SplineSet
895 0 m 1
 795.646080309 -99.3587156636 759 -158.189431575 759 -218.331054688 c 0
 759 -276.849099745 793.343939865 -307 860 -307 c 2
 897 -307 l 1
 897 -400 l 1
 844 -400 l 2
 728.39448386 -400 657 -337.213657869 657 -235.546875 c 0
 657 -168.324044901 688.215108816 -115.04418016 795 0 c 1
 895 0 l 1
211 400 m 2xb4
 211 175 322 80 494 80 c 0
 664 80 795 209 795 389 c 1xb8
 852 377 l 1
 852 131 655 -20 475 -20 c 0
 262 -20 109 123 109 381 c 2
 109 1000 l 1
 211 1000 l 1
 211 400 l 2xb4
895 0 m 1x78
 795 0 l 1x74
 795 1000 l 1
 895 1000 l 1
 895 0 l 1x78
EndSplineSet
Substitution2: "'ss10' Style Set 10 in Latin lookup 9-1" uogonek.ss10
EndChar

StartChar: longs
Encoding: 383 383 268
GlifName: longs
Width: 462
GlyphClass: 2
Flags: HW
HStem: 0 41G<109 211> 1305 96<269 432>
VStem: 109 102<0 1246>
LayerCount: 2
Fore
SplineSet
432 1305 m 1
 408 1305 l 2
 295 1305 211 1264 211 1094 c 2
 211 0 l 1
 109 0 l 1
 109 1105 l 2
 109 1330 259 1400 396 1400 c 2
 432 1400 l 1
 432 1305 l 1
EndSplineSet
EndChar

StartChar: thorn
Encoding: 254 254 269
GlifName: thorn
Width: 1103
GlyphClass: 2
Flags: HW
HStem: -16 100<382 739> 920 100<382 739> 1361 39G<109 211>
VStem: 109 102<-326 1400> 145 66<191 814> 908 105<275 731>
LayerCount: 2
Fore
SplineSet
109 1400 m 1xf4
 211 1400 l 1
 211 -326 l 5
 109 -326 l 5
 109 1400 l 1xf4
145 504 m 0xec
 145 815 312 1020 566 1020 c 0
 834 1020 1014 815 1014 504 c 0
 1014 192 834 -16 566 -16 c 0
 312 -16 145 192 145 504 c 0xec
908 504 m 0
 908 768 782 920 561 920 c 0
 338 920 211 768 211 504 c 0xf4
 211 238 338 84 561 84 c 0
 782 84 908 238 908 504 c 0
EndSplineSet
EndChar

StartChar: Thorn
Encoding: 222 222 270
GlifName: T_horn
Width: 1107
GlyphClass: 2
Flags: HW
HStem: 0 41G<109 211> 273 96<211 782> 980 96<211 783> 1262 39G<109 211>
VStem: 109 102<0 273 369 980 1076 1301> 922 105<502 846>
LayerCount: 2
Fore
SplineSet
109 1301 m 1
 211 1301 l 1
 211 1076 l 1
 613 1076 l 2
 861 1076 1027 914 1027 668 c 0
 1027 441 873 273 623 273 c 2
 211 273 l 1
 211 0 l 1
 109 0 l 1
 109 1301 l 1
211 980 m 1
 211 369 l 1
 604 369 l 2
 803 369 922 480 922 668 c 0
 922 865 805 980 604 980 c 2
 211 980 l 1
EndSplineSet
EndChar

StartChar: uni0326
Encoding: 806 806 273
GlifName: uni0326
Width: 599
GlyphClass: 4
Flags: HW
HStem: -441 68<221 312> -217 141<256 334>
VStem: 256 129<-217 -76> 334 51<-344 -217>
AnchorPoint: "bottom1" 320 0 mark 0
LayerCount: 2
Fore
SplineSet
256 -76 m 1xe0
 385 -76 l 1xe0
 385 -246 l 2
 385 -394 310 -441 244 -441 c 2
 221 -441 l 1
 221 -373 l 1
 242 -373 l 2
 295 -373 334 -349 334 -234 c 2
 334 -217 l 1xd0
 256 -217 l 1
 256 -76 l 1xe0
EndSplineSet
Substitution2: "'ss03' Style Set 3 in Latin lookup 2-1" uni0326.ss03
EndChar

StartChar: uni0312
Encoding: 786 786 274
GlifName: uni0312
Width: 599
GlyphClass: 4
Flags: HW
HStem: 1000 141<299 377> 1299 66<322 412>
VStem: 248 129<1000 1141> 248 51<1141 1268>
AnchorPoint: "top1" 312 1000 mark 0
LayerCount: 2
Fore
SplineSet
377 1000 m 1xe0
 248 1000 l 1xe0
 248 1170 l 2
 248 1318 323 1365 389 1365 c 2
 412 1365 l 1
 412 1299 l 1
 391 1299 l 2
 338 1299 299 1273 299 1158 c 2
 299 1141 l 1xd0
 377 1141 l 1
 377 1000 l 1xe0
EndSplineSet
Substitution2: "'ss03' Style Set 3 in Latin lookup 2-1" uni0312.ss03
EndChar

StartChar: uni0313
Encoding: 787 787 275
GlifName: uni0313
Width: 599
GlyphClass: 4
Flags: HW
HStem: 1000 68<248 339> 1227 139<283 361>
VStem: 283 129<1227 1365> 361 51<1097 1227>
AnchorPoint: "top1" 312 1000 mark 0
LayerCount: 2
Fore
SplineSet
283 1365 m 5xe0
 412 1365 l 5xe0
 412 1195 l 6
 412 1047 337 1000 271 1000 c 6
 248 1000 l 5
 248 1068 l 5
 270 1068 l 6
 323 1068 361 1092 361 1207 c 6
 361 1227 l 5xd0
 283 1227 l 5
 283 1365 l 5xe0
EndSplineSet
Substitution2: "'ss03' Style Set 3 in Latin lookup 2-1" uni0313.ss03
EndChar

StartChar: kgreenlandic
Encoding: 312 312 284
GlifName: kgreenlandic
Width: 894
GlyphClass: 2
Flags: HW
HStem: 0 41G<109 211 698 863> 961 39G<109 211 684 848>
VStem: 109 102<0 289 359 1000>
LayerCount: 2
Fore
SplineSet
109 1000 m 1
 211 1000 l 1
 211 0 l 1
 109 0 l 1
 109 1000 l 1
719 1000 m 1
 848 1000 l 1
 402 502 l 1
 863 0 l 1
 734 0 l 1
 332 430 l 1
 207 289 l 1
 150 359 l 1
 719 1000 l 1
EndSplineSet
EndChar

StartChar: AE
Encoding: 198 198 285
GlifName: A_E_
Width: 1898
GlyphClass: 2
Flags: HW
HStem: 0 96<1051 1811> 377 96<418 949> 617 98<1051 1754> 1203 98<785 949 1051 1811>
VStem: 949 102<96 377 473 617 715 1199>
AnchorPoint: "top1" 936 1400 basechar 0
LayerCount: 2
Fore
SplineSet
1811 1301 m 1
 1811 1203 l 1
 1051 1203 l 1
 1051 715 l 1
 1754 715 l 1
 1754 617 l 1
 1051 617 l 1
 1051 96 l 1
 1811 96 l 1
 1811 0 l 1
 949 0 l 1
 949 377 l 1
 369 377 l 1
 180 0 l 1
 70 0 l 1
 725 1301 l 1
 1811 1301 l 1
418 473 m 1
 949 473 l 1
 949 1199 l 1
 785 1199 l 1
 418 473 l 1
EndSplineSet
EndChar

StartChar: Eth
Encoding: 208 208 286
GlifName: E_th
Width: 1396
GlyphClass: 2
Flags: HW
HStem: 0 96<391 964> 584 96<61 805> 1203 98<391 942>
VStem: 289 102<96 1203> 1201 107<368 906>
LayerCount: 2
Fore
SplineSet
61 680 m 1
 805 680 l 5
 805 584 l 5
 61 584 l 1
 61 680 l 1
391 1203 m 1
 391 96 l 1
 773 96 l 2
 1043 96 1201 291 1201 627 c 0
 1201 992 1031 1203 734 1203 c 2
 391 1203 l 1
754 1301 m 2
 1086 1301 1309 1031 1309 627 c 0
 1309 250 1104 0 795 0 c 2
 289 0 l 1
 289 1301 l 1
 754 1301 l 2
EndSplineSet
EndChar

StartChar: Oslash
Encoding: 216 216 287
GlifName: O_slash
Width: 1328
GlyphClass: 2
Flags: HW
HStem: -16 100<456 875> 1221 100<468 862>
VStem: 90 105<373 912> 1135 105<373 912>
LayerCount: 2
Fore
SplineSet
1168 1359 m 5
 1240 1301 l 5
 162 -61 l 5
 90 0 l 5
 1168 1359 l 5
90 635 m 0
 90 1047 320 1320 666 1320 c 0
 1010 1320 1240 1047 1240 635 c 0
 1240 244 1010 -16 666 -16 c 0
 320 -16 90 244 90 635 c 0
1135 635 m 0
 1135 1004 963 1221 666 1221 c 0
 367 1221 195 1004 195 635 c 0
 195 287 367 84 666 84 c 0
 963 84 1135 287 1135 635 c 0
EndSplineSet
EndChar

StartChar: oslash
Encoding: 248 248 288
GlifName: oslash
Width: 1089
GlyphClass: 2
Flags: HW
HStem: -16 100<369 724> 920 100<369 724>
VStem: 90 105<280 727> 895 105<275 731>
LayerCount: 2
Fore
SplineSet
920 1061 m 5
 992 1000 l 5
 162 -61 l 5
 90 0 l 5
 920 1061 l 5
90 504 m 0
 90 815 274 1020 547 1020 c 0
 818 1020 1000 815 1000 504 c 0
 1000 192 818 -16 547 -16 c 0
 274 -16 90 192 90 504 c 0
895 504 m 0
 895 768 768 920 547 920 c 0
 324 920 195 768 195 504 c 0
 195 238 324 84 547 84 c 0
 768 84 895 238 895 504 c 0
EndSplineSet
EndChar

StartChar: ae
Encoding: 230 230 289
GlifName: ae
Width: 1785
GlyphClass: 2
Flags: HW
HStem: -16 100<270 616 1072 1445> 473 96<879 1588> 920 100<318 666 1065 1409>
VStem: 90 104<155 383 684 790> 789 102<439 822> 879 12<473 568> 1578 105<212 311 568 749>
AnchorPoint: "top1" 877 1119 basechar 0
LayerCount: 2
Fore
SplineSet
789 504 m 0xfa
 789 822 967 1020 1246 1020 c 0
 1508 1020 1695 814 1695 531 c 2
 1695 473 l 1
 879 473 l 1
 879 568 l 1xf6
 1588 568 l 1
 1570 783 1435 920 1246 920 c 0
 1016 920 896 775 896 504 c 0
 896 231 1022 84 1258 84 c 0
 1440 84 1551 174 1578 311 c 1
 1684 311 l 1
 1639 104 1500 -16 1258 -16 c 4
 971 -16 789 184 789 504 c 0xfa
891 275 m 1
 789 260 l 1
 789 672 l 2
 789 813 666 920 506 920 c 0
 334.225913621 920 241.803986711 838.033898305 225 672 c 1
 118 672 l 1
 131.310344828 882.25 281.527093596 1020 504 1020 c 0
 725 1020 891 867 891 670 c 2xfa
 891 275 l 1
879 439 m 1xb4
 879 162.20697764 689.268897982 -20 425.620117188 -20 c 4
 228.817815156 -20 90 98.5316025774 90 266.574099317 c 0
 90 418.937172459 200.375938984 520.780106619 382 536 c 2
 740 566 l 2
 774.755705088 568.912489253 789 584.028883853 789 618 c 1
 793 471 l 1
 402 443 l 2
 263.497521721 433.08166396 193 375.359802326 193 272.240170894 c 0
 193 154.385304994 285.1000925 80 431.021979247 80 c 0
 638.718714179 80 789 210.71031874 789 439 c 1xb8
 879 439 l 1xb4
EndSplineSet
EndChar

StartChar: multiply
Encoding: 215 215 290
GlifName: multiply
Width: 1091
GlyphClass: 2
Flags: HW
LayerCount: 2
Fore
SplineSet
547 619 m 5
 889 963 l 5
 955 895 l 5
 613 553 l 5
 955 211 l 5
 889 143 l 5
 547 484 l 5
 203 143 l 5
 137 211 l 5
 479 553 l 5
 137 895 l 5
 203 963 l 5
 547 619 l 5
EndSplineSet
Substitution2: "'tnum' Tabular Numbers in Latin lookup 11-1" multiply.tabl
EndChar

StartChar: divide
Encoding: 247 247 291
GlifName: divide
Width: 923
GlyphClass: 2
Flags: HW
HStem: 55 139<396 523> 504 96<70 854> 873 141<396 523>
VStem: 396 127<55 193 873 1014>
LayerCount: 2
Fore
SplineSet
396 1014 m 5
 523 1014 l 5
 523 873 l 5
 396 873 l 5
 396 1014 l 5
396 193 m 5
 523 193 l 5
 523 55 l 5
 396 55 l 5
 396 193 l 5
70 600 m 1
 854 600 l 1
 854 504 l 1
 70 504 l 1
 70 600 l 1
EndSplineSet
Substitution2: "'tnum' Tabular Numbers in Latin lookup 11-1" divide.tabl
Substitution2: "'ss03' Style Set 3 in Latin lookup 2-1" divide.ss03
EndChar

StartChar: Dcroat
Encoding: 272 272 292
GlifName: D_croat
Width: 1396
GlyphClass: 2
Flags: HW
HStem: 0 96<391 964> 584 96<61 805> 1203 98<391 942>
VStem: 289 102<96 1203> 1201 107<368 906>
LayerCount: 2
Fore
SplineSet
61 680 m 1
 805 680 l 5
 805 584 l 5
 61 584 l 1
 61 680 l 1
391 1203 m 1
 391 96 l 1
 773 96 l 2
 1043 96 1201 291 1201 627 c 0
 1201 992 1031 1203 734 1203 c 2
 391 1203 l 1
754 1301 m 2
 1086 1301 1309 1031 1309 627 c 0
 1309 250 1104 0 795 0 c 2
 289 0 l 1
 289 1301 l 1
 754 1301 l 2
EndSplineSet
EndChar

StartChar: dcroat
Encoding: 273 273 293
GlifName: dcroat
Width: 1203
GlyphClass: 2
Flags: HW
HStem: -16 100<371 719> 920 100<371 722>
VStem: 90 105<280 727> 895 66<191 814>
LayerCount: 2
Fore
SplineSet
500 1260 m 5
 500 1168 l 5
 1164 1168 l 5
 1164 1260 l 5
 500 1260 l 5
994 1400 m 5
 895 1400 l 5
 895 0 l 5
 994 0 l 5
 994 1400 l 5
961 504 m 4
 961 815 791 1020 537 1020 c 4
 269 1020 90 815 90 504 c 4
 90 192 269 -16 537 -16 c 4
 791 -16 961 192 961 504 c 4
195 504 m 4
 195 768 324 920 545 920 c 4
 768 920 895 768 895 504 c 4
 895 238 768 84 545 84 c 4
 324 84 195 238 195 504 c 4
EndSplineSet
EndChar

StartChar: eth
Encoding: 240 240 296
GlifName: eth
Width: 1113
GlyphClass: 2
Flags: HW
HStem: -16 102<367 683> 902 102<366 689> 1273 39G<866 1053> 1361 39G<586 824>
VStem: 90 105<274 712> 918 105<471 969>
LayerCount: 2
Fore
SplineSet
873 500 m 4
 873 736 730 902 527 902 c 4
 326 902 195 740 195 492 c 4
 195 246 325 86 520 86 c 4
 725 86 873 260 873 500 c 4
721 1400 m 5
 928 1195 1023 967 1023 678 c 4
 1023 264 822 -16 525 -16 c 4
 267 -16 90 193 90 492 c 4
 90 789 268 1004 514 1004 c 4
 696 1004 850 887 914 703 c 5
 918 736 918 754 918 770 c 4
 918 950 774 1224 586 1400 c 5
 721 1400 l 5
436 1184 m 1
 1053 1312 l 1
 1053 1217 l 1
 436 1088 l 1
 436 1184 l 1
EndSplineSet
EndChar

StartChar: uni0315
Encoding: 789 789 298
GlifName: uni0315
Width: 599
GlyphClass: 4
Flags: HW
HStem: 1000 365<305 342>
VStem: 248 160
AnchorPoint: "top2" 248 1000 mark 0
LayerCount: 2
Fore
SplineSet
305 1365 m 1
 408 1365 l 5
 342 1000 l 1
 248 1000 l 1
 305 1365 l 1
EndSplineSet
EndChar

StartChar: periodcentered
Encoding: 183 183 302
GlifName: periodcentered
Width: 318
GlyphClass: 2
Flags: HW
HStem: 568 139<96 225>
VStem: 96 129<568 707>
LayerCount: 2
Fore
SplineSet
96 707 m 5
 225 707 l 5
 225 568 l 5
 96 568 l 5
 96 707 l 5
EndSplineSet
Substitution2: "'ss03' Style Set 3 in Latin lookup 2-1" periodcentered.ss03
EndChar

StartChar: Hbar
Encoding: 294 294 305
GlifName: H_bar
Width: 1298
GlyphClass: 2
Flags: HW
HStem: 0 41G<150 250 1051 1150> 623 98<250 1051> 961 96<39 1260> 1262 39G<150 250 1051 1150>
VStem: 150 100<0 623 721 1301> 1051 100<0 623 721 1301>
LayerCount: 2
Fore
SplineSet
39 1057 m 1
 1260 1057 l 1
 1260 961 l 1
 39 961 l 1
 39 1057 l 1
150 1301 m 1
 250 1301 l 1
 250 721 l 1
 1051 721 l 1
 1051 1301 l 1
 1150 1301 l 1
 1150 0 l 1
 1051 0 l 1
 1051 623 l 1
 250 623 l 1
 250 0 l 1
 150 0 l 1
 150 1301 l 1
EndSplineSet
EndChar

StartChar: hbar
Encoding: 295 295 306
GlifName: hbar
Width: 1078
GlyphClass: 2
Flags: HW
HStem: 0 41G<170 270 869 971> 920 100<421 751> 1168 92<0 664> 1361 39G<170 270>
VStem: 170 100<0 1400> 213 57<645 879> 869 102<0 801>
LayerCount: 2
Fore
SplineSet
0 1260 m 5xf2
 664 1260 l 5
 664 1168 l 5
 0 1168 l 5
 0 1260 l 5xf2
869 619 m 2
 869 830 756 920 578 920 c 0
 404 920 270 801 270 633 c 1xfa
 213 645 l 1xf6
 215 879 414 1020 598 1020 c 0
 815 1020 971 887 971 641 c 2
 971 0 l 1
 869 0 l 1
 869 619 l 2
170 1400 m 1
 270 1400 l 1
 270 0 l 1
 170 0 l 1
 170 1400 l 1
EndSplineSet
EndChar

StartChar: uni030B
Encoding: 779 779 307
GlifName: uni030B_
Width: 599
GlyphClass: 4
Flags: HW
HStem: 1000 262
VStem: 92 611
AnchorPoint: "top1" 312 1000 mark 0
LayerCount: 2
Fore
SplineSet
703 1262 m 5
 457 1000 l 1
 371 1000 l 1
 576 1262 l 5
 703 1262 l 5
422 1262 m 5
 178 1000 l 1
 92 1000 l 1
 297 1262 l 5
 422 1262 l 5
EndSplineSet
EndChar

StartChar: uni02BC
Encoding: 700 700 311
GlifName: uni02B_C_
Width: 250
GlyphClass: 2
Flags: HW
HStem: 1000 68<86 177> 1227 139<121 199>
VStem: 121 129<1227 1365> 199 51<1097 1227>
LayerCount: 2
Fore
SplineSet
121 1365 m 5xe0
 250 1365 l 5xe0
 250 1195 l 6
 250 1047 175 1000 109 1000 c 6
 86 1000 l 5
 86 1068 l 5
 107 1068 l 6
 160 1068 199 1092 199 1207 c 6
 199 1227 l 5xd0
 121 1227 l 5
 121 1365 l 5xe0
EndSplineSet
EndChar

StartChar: Lslash
Encoding: 321 321 312
GlifName: L_slash
Width: 1000
GlyphClass: 2
Flags: HW
HStem: 0 96<270 930> 1262 39G<170 270>
VStem: 170 100<96 1301>
LayerCount: 2
Fore
SplineSet
0 484 m 1
 745 921 l 1
 745 813 l 1
 0 376 l 1
 0 484 l 1
930 0 m 1
 170 0 l 1
 170 1301 l 1
 270 1301 l 1
 270 96 l 1
 930 96 l 1
 930 0 l 1
EndSplineSet
EndChar

StartChar: lslash
Encoding: 322 322 313
GlifName: lslash
Width: 455
GlyphClass: 2
Flags: HW
HStem: 0 41G<186 285> 1361 39G<186 285>
VStem: 186 100<0 1400>
LayerCount: 2
Fore
SplineSet
0 651 m 5
 455 909 l 5
 455 802 l 5
 0 544 l 5
 0 651 l 5
186 1400 m 1
 285 1400 l 1
 285 0 l 1
 186 0 l 1
 186 1400 l 1
EndSplineSet
Substitution2: "'ss02' Style Set 2 in Latin lookup 1-1" lslash.ss02
EndChar

StartChar: Eng
Encoding: 330 330 314
GlifName: E_ng
Width: 1218
GlyphClass: 2
Flags: HW
HStem: -348 96<748 966> 0 41G<109 211> 1262 39G<109 277 1010 1109>
VStem: 109 102<0 1182> 1010 100<-207 0 182 1301>
LayerCount: 2
Fore
SplineSet
1010 1301 m 1
 1109 1301 l 1
 1109 -72 l 2
 1109 -246 1014 -348 852 -348 c 2
 748 -348 l 1
 748 -252 l 1
 850 -252 l 2
 961 -252 1010 -196 1010 -61 c 2
 1010 0 l 1
 211 1182 l 1
 211 0 l 1
 109 0 l 1
 109 1301 l 1
 250 1301 l 1
 1010 182 l 1
 1010 1301 l 1
EndSplineSet
EndChar

StartChar: eng
Encoding: 331 331 315
GlifName: eng
Width: 1019
GlyphClass: 2
Flags: HW
HStem: -348 96<549 767> 0 41G<109 211> 920 100<362 693> 961 39G<109 211>
VStem: 109 102<0 1000> 152 59<645 854> 811 100<-207 799>
LayerCount: 2
Fore
SplineSet
109 1000 m 1xda
 211 1000 l 1
 211 0 l 1
 109 0 l 1
 109 1000 l 1xda
811 619 m 6
 811 816 709 920 518 920 c 4
 340 920 211 799 211 633 c 5xea
 152 645 l 5
 154 854 326 1020 537 1020 c 4xe6
 766 1020 910 875 910 641 c 6
 910 -72 l 6
 910 -246 814 -348 652 -348 c 6
 549 -348 l 5
 549 -252 l 5
 650 -252 l 6
 761 -252 811 -196 811 -61 c 6
 811 619 l 6
EndSplineSet
EndChar

StartChar: OE
Encoding: 338 338 316
GlifName: O_E_
Width: 2083
GlyphClass: 2
Flags: HW
HStem: -16 100<457 862> 0 96<1234 1994> 617 98<1234 1938> 1203 98<1234 1994> 1221 100<462 857>
VStem: 90 105<373 912> 1135 100<96 617 715 1203> 1135 64<244 1047>
LayerCount: 2
Fore
SplineSet
1994 1301 m 1x75
 1994 1203 l 1
 1234 1203 l 1
 1234 715 l 1
 1938 715 l 1
 1938 617 l 1
 1234 617 l 1
 1234 96 l 1x76
 1994 96 l 1
 1994 0 l 1
 1135 0 l 1
 1135 1301 l 1
 1994 1301 l 1x75
90 635 m 0
 90 1047 312 1320 646 1320 c 0
 978 1320 1199 1047 1199 635 c 0
 1199 244 978 -16 646 -16 c 0xad
 312 -16 90 244 90 635 c 0
1135 635 m 0
 1135 1004 963 1221 666 1221 c 0
 367 1221 195 1004 195 635 c 0
 195 287 367 84 666 84 c 0
 963 84 1135 287 1135 635 c 0
EndSplineSet
EndChar

StartChar: oe
Encoding: 339 339 317
GlifName: oe
Width: 1892
GlyphClass: 2
Flags: HW
HStem: -16 100<369 724 1175 1548> 473 96<982 1691> 920 100<369 724 1169 1513>
VStem: 90 105<280 727> 895 105<207 799> 982 18<475 561> 1682 105<212 311 568 749>
AnchorPoint: "top1" 936 1119 basechar 0
LayerCount: 2
Fore
SplineSet
895 504 m 0xfa
 895 822 1071 1020 1350 1020 c 0
 1612 1020 1801 814 1801 531 c 2
 1801 473 l 1
 982 473 l 1
 982 568 l 1xf6
 1691 568 l 1
 1673 783 1539 920 1350 920 c 0
 1120 920 1000 775 1000 504 c 0
 1000 231 1125 84 1361 84 c 0
 1543 84 1655 174 1682 311 c 1
 1787 311 l 1
 1742 104 1603 -16 1361 -16 c 0
 1074 -16 895 184 895 504 c 0xfa
90 504 m 0
 90 815 274 1020 547 1020 c 0
 818 1020 1000 815 1000 504 c 0xfa
 1000 192 818 -16 547 -16 c 0
 274 -16 90 192 90 504 c 0
895 504 m 0
 895 768 768 920 547 920 c 0
 324 920 195 768 195 504 c 0
 195 238 324 84 547 84 c 0
 768 84 895 238 895 504 c 0
EndSplineSet
EndChar

StartChar: Tbar
Encoding: 358 358 320
GlifName: T_bar
Width: 1117
GlyphClass: 2
Flags: HW
HStem: 0 41G<510 609> 584 96<189 973> 1203 98<70 510 609 1049>
VStem: 510 100<0 1203>
LayerCount: 2
Fore
SplineSet
189 680 m 1
 973 680 l 1
 973 584 l 1
 189 584 l 1
 189 680 l 1
1049 1301 m 1
 1049 1203 l 1
 609 1203 l 1
 609 0 l 1
 510 0 l 1
 510 1203 l 1
 70 1203 l 1
 70 1301 l 1
 1049 1301 l 1
EndSplineSet
EndChar

StartChar: tbar
Encoding: 359 359 321
GlifName: tbar
Width: 585
GlyphClass: 2
Flags: HW
HStem: 0 96<367 535> 504 96<50 535> 904 96<50 535>
VStem: 242 100<118 1260>
LayerCount: 2
Fore
SplineSet
50 600 m 1
 535 600 l 1
 535 504 l 1
 50 504 l 1
 50 600 l 1
50 1000 m 1
 535 1000 l 1
 535 904 l 1
 50 904 l 1
 50 1000 l 1
535 96 m 1
 535 0 l 1
 451 0 l 2
 351 0 242 56 242 236 c 2
 242 1260 l 1
 341 1260 l 1
 341 248 l 2
 341 125 391 96 453 96 c 2
 535 96 l 1
EndSplineSet
Substitution2: "'ss08' Style Set 8 in Latin lookup 7-1" tbar.ss08
EndChar

StartChar: germandbls
Encoding: 223 223 322
GlifName: germandbls
Width: 1089
GlyphClass: 2
Flags: HW
HStem: 0 100<408 765> 656 100<488 727> 676 61<627 721> 1316 100<379 736>
VStem: 109 102<0 1143> 627 100<656 676 736 756> 873 107<861 1188> 895 105<222 555>
LayerCount: 2
Fore
SplineSet
566 1316 m 0xde
 345 1316 211 1176 211 951 c 2
 211 0 l 1
 109 0 l 1
 109 965 l 2
 109 1229 291 1416 566 1416 c 0
 796 1416 980 1250 980 1043 c 0
 980 824 840 676 627 676 c 1xbe
 627 756 l 1
 785 756 873 861 873 1043 c 0
 873 1201 744 1316 566 1316 c 0xde
727 756 m 1xdc
 727 656 l 1
 488 656 l 1
 488 756 l 1
 727 756 l 1xdc
627 736 m 1xbd
 852 736 1000 598 1000 391 c 4
 1000 157 834 0 586 0 c 6
 408 0 l 5
 408 100 l 5
 586 100 l 6
 781 100 895 205 895 391 c 4
 895 561 797 656 627 656 c 1xdd
 627 736 l 1xbd
EndSplineSet
EndChar

StartChar: uni1E9E
Encoding: 7838 7838 323
GlifName: uni1E_9E_
Width: 1208
GlyphClass: 2
Flags: HW
HStem: 0 100<543 881> 604 94<715 889> 1227 96<394 940>
VStem: 109 102<0 1040> 1014 105<219 495>
LayerCount: 2
Fore
SplineSet
1031 1160 m 1
 912 1199 787 1227 635 1227 c 0
 338 1227 211 1101 211 812 c 2
 211 0 l 1
 109 0 l 1
 109 824 l 2
 109 1152 287 1322 629 1322 c 0
 783 1322 912 1293 1031 1250 c 1
 1031 1160 l 1
715 697 m 1
 1002 687 1119 554 1119 361 c 0
 1119 144 946 0 682 0 c 2
 543 0 l 1
 543 100 l 1
 668 100 l 2
 889 100 1014 195 1014 361 c 0
 1014 515 896 604 689 604 c 2
 607 604 l 1
 607 703 l 1
 949 1207 l 1
 1031 1160 l 1
 715 697 l 1
EndSplineSet
EndChar

StartChar: asciitilde
Encoding: 126 126 324
GlifName: asciitilde
Width: 853
GlyphClass: 2
Flags: HW
HStem: 713 88<503 665> 912 88<193 347>
VStem: 70 90<721 880> 697 86<833 988>
LayerCount: 2
Fore
SplineSet
266 1000 m 4
 356 1000 406 944 455 893 c 4
 500 846 537 801 598 801 c 4
 659 801 697 875 697 988 c 5
 783 988 l 5
 783 820 711 713 598 713 c 4
 506 713 453 762 406 809 c 4
 357 858 321 912 262 912 c 4
 200 912 160 836 160 721 c 5
 70 721 l 5
 70 895 145 1000 266 1000 c 4
EndSplineSet
EndChar

StartChar: exclamdown
Encoding: 161 161 325
GlifName: exclamdown
Width: 318
GlyphClass: 2
Flags: HW
HStem: 859 141<96 225>
VStem: 96 129<-301 306 859 1000> 117 84<-301 715>
LayerCount: 2
Fore
SplineSet
96 1000 m 5xc0
 225 1000 l 5
 225 859 l 5
 96 859 l 5
 96 1000 l 5xc0
117 715 m 5xa0
 201 715 l 5
 211 -301 l 5
 109 -301 l 5
 117 715 l 5xa0
EndSplineSet
Substitution2: "'ss03' Style Set 3 in Latin lookup 2-1" exclamdown.ss03
EndChar

StartChar: questiondown
Encoding: 191 191 326
GlifName: questiondown
Width: 1033
GlyphClass: 2
Flags: HW
HStem: -316 100<332 695> 859 141<451 580>
VStem: 90 105<-88 219> 451 129<859 1000> 465 100<559 715> 838 105<-71 82>
LayerCount: 2
Fore
SplineSet
564 715 m 5xec
 564 520 455 428 355 342 c 4
 271 270 195 201 195 72 c 4
 195 -112 316 -217 523 -217 c 4
 707 -217 830 -100 838 82 c 5
 943 82 l 5
 927 -154 755 -316 523 -316 c 4
 263 -316 90 -162 90 72 c 4
 90 244 203 330 305 422 c 4
 389 498 465 578 465 715 c 5
 564 715 l 5xec
451 1000 m 5xf4
 580 1000 l 5
 580 859 l 5
 451 859 l 5
 451 1000 l 5xf4
EndSplineSet
Substitution2: "'ss03' Style Set 3 in Latin lookup 2-1" questiondown.ss03
EndChar

StartChar: endash
Encoding: 8211 8211 327
GlifName: endash
Width: 1306
GlyphClass: 2
Flags: HW
HStem: 504 96<70 1238>
LayerCount: 2
Fore
SplineSet
70 600 m 1
 1238 600 l 5
 1238 504 l 5
 70 504 l 1
 70 600 l 1
EndSplineSet
EndChar

StartChar: emdash
Encoding: 8212 8212 328
GlifName: emdash
Width: 1962
GlyphClass: 2
Flags: HW
HStem: 504 96<70 1895>
LayerCount: 2
Fore
SplineSet
70 600 m 1
 1895 600 l 5
 1895 504 l 5
 70 504 l 1
 70 600 l 1
EndSplineSet
EndChar

StartChar: quoteleft
Encoding: 8216 8216 329
GlifName: quoteleft
Width: 318
GlyphClass: 2
Flags: HW
HStem: 1000 141<133 211> 1361 39G<133 225>
VStem: 82 129<1000 1141> 143 82<1361 1400>
LayerCount: 2
Fore
SplineSet
211 1000 m 5xe0
 82 1000 l 5
 82 1141 l 5xe0
 143 1400 l 5
 225 1400 l 5xd0
 133 1141 l 5
 211 1141 l 5
 211 1000 l 5xe0
EndSplineSet
Substitution2: "'ss03' Style Set 3 in Latin lookup 2-1" quoteleft.ss03
EndChar

StartChar: quoteright
Encoding: 8217 8217 330
GlifName: quoteright
Width: 318
GlyphClass: 2
Flags: HW
HStem: 1000 41G<82 173> 1260 141<96 174>
VStem: 82 82<1000 1040> 96 129<1260 1400>
LayerCount: 2
Fore
SplineSet
96 1400 m 5xd0
 225 1400 l 5
 225 1260 l 5xd0
 164 1000 l 5
 82 1000 l 5xe0
 174 1260 l 5
 96 1260 l 5
 96 1400 l 5xd0
EndSplineSet
Substitution2: "'ss03' Style Set 3 in Latin lookup 2-1" quoteright.ss03
EndChar

StartChar: quotedblleft
Encoding: 8220 8220 331
GlifName: quotedblleft
Width: 539
GlyphClass: 2
Flags: HW
HStem: 1000 141<133 211 352 430> 1361 39G<133 225 353 443>
VStem: 82 129<1000 1141> 143 82<1361 1400> 303 127<1000 1141> 361 82<1361 1400>
LayerCount: 2
Fore
SplineSet
430 1000 m 5xc8
 303 1000 l 5
 303 1141 l 5xc8
 361 1400 l 5
 443 1400 l 5xc4
 352 1141 l 5
 430 1141 l 5
 430 1000 l 5xc8
211 1000 m 1xe0
 82 1000 l 1
 82 1141 l 1xe0
 143 1400 l 1
 225 1400 l 1xd0
 133 1141 l 1
 211 1141 l 1
 211 1000 l 1xe0
EndSplineSet
Substitution2: "'ss03' Style Set 3 in Latin lookup 2-1" quotedblleft.ss03
EndChar

StartChar: quotesinglbase
Encoding: 8218 8218 332
GlifName: quotesinglbase
Width: 318
GlyphClass: 2
Flags: HW
HStem: 0 141<96 174>
VStem: 82 82<-260 -220> 96 129<0 141>
LayerCount: 2
Fore
SplineSet
96 141 m 5xa0
 225 141 l 5
 225 0 l 5xa0
 164 -260 l 5
 82 -260 l 5xc0
 174 0 l 5
 96 0 l 5
 96 141 l 5xa0
EndSplineSet
Substitution2: "'ss03' Style Set 3 in Latin lookup 2-1" quotesinglbase.ss03
EndChar

StartChar: quotereversed
Encoding: 8219 8219 333
GlifName: quotereversed
Width: 318
GlyphClass: 2
Flags: HW
HStem: 1000 41G<133 225> 1260 141<133 211>
VStem: 82 129<1260 1400> 143 82<1000 1040>
LayerCount: 2
Fore
SplineSet
211 1400 m 5xe0
 211 1260 l 5xe0
 133 1260 l 5
 225 1000 l 5
 143 1000 l 5xd0
 82 1260 l 5
 82 1400 l 5
 211 1400 l 5xe0
EndSplineSet
Substitution2: "'ss03' Style Set 3 in Latin lookup 2-1" quotereversed.ss03
EndChar

StartChar: quotedblright
Encoding: 8221 8221 334
GlifName: quotedblright
Width: 539
GlyphClass: 2
Flags: HW
HStem: 1000 41G<82 173 303 394> 1260 141<96 174 316 395>
VStem: 82 82<1000 1040> 96 129<1260 1400> 303 82<1000 1040> 316 127<1260 1400>
LayerCount: 2
Fore
SplineSet
96 1400 m 5xd0
 225 1400 l 5
 225 1260 l 5xd0
 164 1000 l 5
 82 1000 l 5xe0
 174 1260 l 5
 96 1260 l 5
 96 1400 l 5xd0
316 1400 m 1xc4
 443 1400 l 1
 443 1260 l 1xc4
 385 1000 l 1
 303 1000 l 1xc8
 395 1260 l 1
 316 1260 l 1
 316 1400 l 1xc4
EndSplineSet
Substitution2: "'ss03' Style Set 3 in Latin lookup 2-1" quotedblright.ss03
EndChar

StartChar: quotedblbase
Encoding: 8222 8222 335
GlifName: quotedblbase
Width: 539
GlyphClass: 2
Flags: HW
HStem: 0 141<96 174 316 395>
VStem: 82 82<-260 -220> 96 129<0 141> 303 82<-260 -220> 316 127<0 141>
LayerCount: 2
Fore
SplineSet
96 141 m 5xa0
 225 141 l 5
 225 0 l 5xa0
 164 -260 l 5
 82 -260 l 5xc0
 174 0 l 5
 96 0 l 5
 96 141 l 5xa0
316 141 m 5x88
 443 141 l 5
 443 0 l 5x88
 385 -260 l 5
 303 -260 l 5x90
 395 0 l 5
 316 0 l 5
 316 141 l 5x88
EndSplineSet
Substitution2: "'ss03' Style Set 3 in Latin lookup 2-1" quotedblbase.ss03
EndChar

StartChar: uni201F
Encoding: 8223 8223 336
GlifName: uni201F_
Width: 539
GlyphClass: 2
Flags: HW
HStem: 1000 41G<133 225 353 443> 1260 141<133 211 352 430>
VStem: 82 129<1260 1400> 143 82<1000 1040> 303 127<1260 1400> 361 82<1000 1040>
LayerCount: 2
Fore
SplineSet
430 1400 m 5xc8
 430 1260 l 5xc8
 352 1260 l 5
 443 1000 l 5
 361 1000 l 5xc4
 303 1260 l 5
 303 1400 l 5
 430 1400 l 5xc8
211 1400 m 1xe0
 211 1260 l 1xe0
 133 1260 l 1
 225 1000 l 1
 143 1000 l 1xd0
 82 1260 l 1
 82 1400 l 1
 211 1400 l 1xe0
EndSplineSet
Substitution2: "'ss03' Style Set 3 in Latin lookup 2-1" uni201F.ss03
EndChar

StartChar: dagger
Encoding: 8224 8224 337
GlifName: dagger
Width: 623
GlyphClass: 2
Flags: HW
HStem: 0 41G<262 361> 904 96<70 262 361 555>
VStem: 262 100<0 904 1000 1260>
LayerCount: 2
Fore
SplineSet
262 904 m 1
 70 904 l 1
 70 1000 l 1
 262 1000 l 1
 262 1260 l 1
 361 1260 l 1
 361 1000 l 1
 555 1000 l 1
 555 904 l 1
 361 904 l 1
 361 0 l 1
 262 0 l 1
 262 904 l 1
EndSplineSet
EndChar

StartChar: daggerdbl
Encoding: 8225 8225 338
GlifName: daggerdbl
Width: 623
GlyphClass: 2
Flags: HW
HStem: 0 41G<262 361> 260 96<70 262 361 555> 904 96<70 262 361 555>
VStem: 262 100<0 260 355 904 1000 1260>
LayerCount: 2
Fore
SplineSet
361 1000 m 1
 555 1000 l 1
 555 904 l 1
 361 904 l 1
 361 355 l 1
 555 355 l 1
 555 260 l 1
 361 260 l 1
 361 0 l 1
 262 0 l 1
 262 260 l 1
 70 260 l 1
 70 355 l 1
 262 355 l 1
 262 904 l 1
 70 904 l 1
 70 1000 l 1
 262 1000 l 1
 262 1260 l 1
 361 1260 l 1
 361 1000 l 1
EndSplineSet
EndChar

StartChar: bullet
Encoding: 8226 8226 339
GlifName: bullet
Width: 398
GlyphClass: 2
Flags: HW
HStem: 623 248<106 294>
VStem: 76 248<654 841>
LayerCount: 2
Fore
SplineSet
76 748 m 0
 76 816 131 871 199 871 c 0
 267 871 324 816 324 748 c 0
 324 680 267 623 199 623 c 4
 131 623 76 680 76 748 c 0
EndSplineSet
EndChar

StartChar: ellipsis
Encoding: 8230 8230 340
GlifName: ellipsis
Width: 958
GlyphClass: 2
Flags: HW
HStem: 0 141<96 225 416 545 736 863>
VStem: 96 129<0 141> 416 129<0 141> 736 127<0 141>
LayerCount: 2
Fore
SplineSet
736 141 m 1
 863 141 l 1
 863 0 l 1
 736 0 l 1
 736 141 l 1
416 141 m 1
 545 141 l 1
 545 0 l 1
 416 0 l 1
 416 141 l 1
96 141 m 1
 225 141 l 1
 225 0 l 1
 96 0 l 1
 96 141 l 1
EndSplineSet
Substitution2: "'ss03' Style Set 3 in Latin lookup 2-1" ellipsis.ss03
EndChar

StartChar: perthousand
Encoding: 8240 8240 341
GlifName: perthousand
Width: 2412
GlyphClass: 2
Flags: HW
HStem: -16 100<1162 1404 1908 2150> 0 41G<510 637> 521 100<265 507> 680 100<1160 1406 1906 2152> 1219 100<265 507> 1262 39G<1031 1158>
VStem: 70 105<722 1120> 594 105<722 1120> 969 105<185 582> 1492 105<185 582> 1715 105<185 582> 2238 105<185 582>
LayerCount: 2
Fore
SplineSet
1715 385 m 4xb3f0
 1715 623 1840 779 2029 779 c 4
 2217 779 2344 623 2344 385 c 4
 2344 145 2217 -16 2029 -16 c 4
 1840 -16 1715 145 1715 385 c 4xb3f0
2238 385 m 4
 2238 573 2162 680 2029 680 c 4
 1896 680 1820 573 1820 385 c 4
 1820 196 1896 84 2029 84 c 4
 2162 84 2238 196 2238 385 c 4
969 385 m 0
 969 623 1094 779 1283 779 c 0
 1471 779 1598 623 1598 385 c 0
 1598 145 1471 -16 1283 -16 c 0
 1094 -16 969 145 969 385 c 0
1492 385 m 0
 1492 573 1416 680 1283 680 c 0
 1150 680 1074 573 1074 385 c 0
 1074 196 1150 84 1283 84 c 0
 1416 84 1492 196 1492 385 c 0
1047 1301 m 1x77f0
 1158 1301 l 1
 621 0 l 1
 510 0 l 1
 1047 1301 l 1x77f0
70 922 m 0
 70 1160 198 1318 387 1318 c 0x3bf0
 575 1318 699 1160 699 922 c 0
 699 682 575 521 387 521 c 0
 198 521 70 682 70 922 c 0
594 922 m 0
 594 1110 520 1219 387 1219 c 0
 254 1219 176 1110 176 922 c 0
 176 733 254 621 387 621 c 0
 520 621 594 733 594 922 c 0
EndSplineSet
EndChar

StartChar: minute
Encoding: 8242 8242 342
GlifName: minute
Width: 449
GlyphClass: 2
Flags: HW
HStem: 1000 301
VStem: 51 350
LayerCount: 2
Fore
SplineSet
400 1301 m 5
 137 1000 l 5
 51 1000 l 5
 273 1301 l 5
 400 1301 l 5
EndSplineSet
EndChar

StartChar: second
Encoding: 8243 8243 343
GlifName: second
Width: 705
GlyphClass: 2
Flags: HW
HStem: 1000 301
VStem: 51 605
LayerCount: 2
Fore
SplineSet
656 1301 m 1
 393 1000 l 1
 307 1000 l 1
 529 1301 l 1
 656 1301 l 1
400 1301 m 1
 137 1000 l 1
 51 1000 l 1
 273 1301 l 1
 400 1301 l 1
EndSplineSet
EndChar

StartChar: uni2034
Encoding: 8244 8244 344
GlifName: uni2034
Width: 960
GlyphClass: 2
Flags: HW
HStem: 1000 301
LayerCount: 2
Fore
SplineSet
400 1301 m 1
 137 1000 l 1
 51 1000 l 1
 273 1301 l 1
 400 1301 l 1
912 1301 m 1
 648 1000 l 1
 562 1000 l 1
 785 1301 l 1
 912 1301 l 1
656 1301 m 1
 393 1000 l 1
 307 1000 l 1
 529 1301 l 1
 656 1301 l 1
EndSplineSet
EndChar

StartChar: uni2035
Encoding: 8245 8245 345
GlifName: uni2035
Width: 449
GlyphClass: 2
Flags: HW
HStem: 1000 301
VStem: 51 350
LayerCount: 2
Fore
SplineSet
51 1301 m 5
 176 1301 l 5
 400 1000 l 5
 314 1000 l 5
 51 1301 l 5
EndSplineSet
EndChar

StartChar: uni2036
Encoding: 8246 8246 346
GlifName: uni2036
Width: 705
GlyphClass: 2
Flags: HW
HStem: 1000 301
VStem: 51 605
LayerCount: 2
Fore
SplineSet
51 1301 m 1
 176 1301 l 1
 400 1000 l 1
 314 1000 l 1
 51 1301 l 1
307 1301 m 1
 432 1301 l 1
 656 1000 l 1
 570 1000 l 1
 307 1301 l 1
EndSplineSet
EndChar

StartChar: uni2037
Encoding: 8247 8247 347
GlifName: uni2037
Width: 960
GlyphClass: 2
Flags: HW
HStem: 1000 301
LayerCount: 2
Fore
SplineSet
562 1301 m 1
 688 1301 l 1
 912 1000 l 1
 826 1000 l 1
 562 1301 l 1
51 1301 m 1
 176 1301 l 1
 400 1000 l 1
 314 1000 l 1
 51 1301 l 1
307 1301 m 1
 432 1301 l 1
 656 1000 l 1
 570 1000 l 1
 307 1301 l 1
EndSplineSet
EndChar

StartChar: uni031B
Encoding: 795 795 348
GlifName: uni031B_
Width: 599
GlyphClass: 4
Flags: W
HStem: 1000 96<152 384.172> 1281 20G<414 514>
VStem: 414 100<1123.8 1301>
AnchorPoint: "top3" 152 1096 mark 0
LayerCount: 2
Fore
SplineSet
152 1096 m 1
 273 1096 l 6
 353 1096 414 1125 414 1248 c 2
 414 1301 l 1
 514 1301 l 1
 514 1236 l 2
 514 1056 401 1000 297 1000 c 2
 152 1000 l 1
 152 1096 l 1
EndSplineSet
EndChar

StartChar: Ohorn
Encoding: 416 416 349
GlifName: O_horn
Width: 1328
GlyphClass: 2
Flags: HW
HStem: -16 100<456 875> 1203 98<1064 1173> 1221 100<468 793>
VStem: 90 105<373 912> 1135 105<373 912> 1203 102<1328 1504>
AnchorPoint: "top1" 668 1400 basechar 0
AnchorPoint: "bottom1" 664 0 basechar 0
LayerCount: 2
Fore
SplineSet
90 635 m 0xb8
 90 1047 320 1320 666 1320 c 0
 1010 1320 1240 1047 1240 635 c 0
 1240 244 1010 -16 666 -16 c 0
 320 -16 90 244 90 635 c 0xb8
1135 635 m 0
 1135 1004 963 1221 666 1221 c 0
 367 1221 195 1004 195 635 c 0
 195 287 367 84 666 84 c 0
 963 84 1135 287 1135 635 c 0
803 1301 m 1xd4
 1064 1301 l 2
 1144 1301 1203 1328 1203 1451 c 2
 1203 1504 l 1
 1305 1504 l 1
 1305 1439 l 2
 1305 1259 1190 1203 1086 1203 c 2
 803 1203 l 1
 803 1301 l 1xd4
EndSplineSet
EndChar

StartChar: ohorn
Encoding: 417 417 350
GlifName: ohorn
Width: 1089
GlyphClass: 2
Flags: W
HStem: -16 100<368.741 723.662> 904 96<844 952.557> 920 100<368.741 658.485>
VStem: 90 105<279.577 726.911> 895 105<275.217 731.229> 984 100<1028.03 1203>
AnchorPoint: "top1" 545 1119 basechar 0
AnchorPoint: "bottom1" 547 0 basechar 0
LayerCount: 2
Fore
SplineSet
90 504 m 0xb8
 90 815 274 1020 547 1020 c 0
 818 1020 1000 815 1000 504 c 0
 1000 192 818 -16 547 -16 c 0
 274 -16 90 192 90 504 c 0xb8
895 504 m 0
 895 768 768 920 547 920 c 0
 324 920 195 768 195 504 c 0
 195 238 324 84 547 84 c 0
 768 84 895 238 895 504 c 0
662 1000 m 1xd4
 844 1000 l 6
 924 1000 984 1029 984 1152 c 6
 984 1203 l 5
 1084 1203 l 5
 1084 1141 l 6
 1084 961 969 904 865 904 c 6
 662 904 l 1
 662 1000 l 1xd4
EndSplineSet
EndChar

StartChar: hookabovecomb
Encoding: 777 777 353
GlifName: hookabovecomb
Width: 599
GlyphClass: 4
Flags: HW
HStem: 1000 41G<252 357> 1293 78<237 408>
VStem: 117 98<1213 1272> 252 105<1000 1078> 416 92<1154 1284>
AnchorPoint: "top1" 312 1000 mark 0
LayerCount: 2
Fore
SplineSet
252 1000 m 1
 252 1047 274 1077 354 1139 c 0
 403 1176 416 1200 416 1229 c 0
 416 1268 381 1293 326 1293 c 0
 267 1293 229 1264 215 1213 c 1
 117 1213 l 1
 142 1313 223 1371 330 1371 c 0
 437 1371 508 1313 508 1223 c 0
 508 1170 492 1143 426 1096 c 0
 375 1063 357 1039 357 1000 c 1
 252 1000 l 1
EndSplineSet
EndChar

StartChar: dotbelowcomb
Encoding: 803 803 354
GlifName: dotbelowcomb
Width: 599
GlyphClass: 4
Flags: HW
HStem: -285 139<238 365>
VStem: 238 127<-285 -146>
AnchorPoint: "bottom1" 301 0 mark 0
LayerCount: 2
Fore
SplineSet
238 -146 m 1
 365 -146 l 1
 365 -285 l 1
 238 -285 l 1
 238 -146 l 1
EndSplineSet
Substitution2: "'ss03' Style Set 3 in Latin lookup 2-1" dotbelowcomb.ss03
EndChar

StartChar: exclamdown.ss03
Encoding: 65553 -1 445
GlifName: exclamdown.ss03
Width: 318
GlyphClass: 2
Flags: HW
HStem: 852 168<86 234>
VStem: 76 168<862 1009> 109 102<-297 719>
LayerCount: 2
Fore
SplineSet
244 936 m 0xc0
 244 889 207 852 160 852 c 0
 113 852 76 889 76 936 c 0
 76 983 113 1020 160 1020 c 0
 207 1020 244 983 244 936 c 0xc0
117 719 m 1
 201 719 l 1
 211 -297 l 1
 109 -297 l 1xa0
 117 719 l 1
EndSplineSet
EndChar

StartChar: periodcentered.ss03
Encoding: 65554 -1 446
GlifName: periodcentered.ss03
Width: 318
GlyphClass: 2
Flags: HW
HStem: 555 168<86 234>
VStem: 76 168<565 713>
LayerCount: 2
Fore
SplineSet
76 639 m 0
 76 686 113 723 160 723 c 0
 207 723 244 686 244 639 c 0
 244 592 207 555 160 555 c 0
 113 555 76 592 76 639 c 0
EndSplineSet
EndChar

StartChar: questiondown.ss03
Encoding: 65555 -1 447
GlifName: questiondown.ss03
Width: 1033
GlyphClass: 2
Flags: HW
HStem: -311 100<332 695> 854 168<442 590>
VStem: 90 105<-82 224> 432 168<864 1011> 465 100<565 721> 838 105<-65 88>
LayerCount: 2
Fore
SplineSet
600 938 m 0xf4
 600 891 563 854 516 854 c 0
 469 854 432 891 432 938 c 0
 432 985 469 1021 516 1021 c 0
 563 1021 600 985 600 938 c 0xf4
564 721 m 1xec
 564 526 455 434 355 348 c 0
 271 276 195 207 195 78 c 0
 195 -106 316 -211 523 -211 c 0
 707 -211 830 -94 838 88 c 1
 943 88 l 1
 927 -148 755 -311 523 -311 c 0
 263 -311 90 -156 90 78 c 0
 90 250 203 336 305 428 c 0
 389 504 465 584 465 721 c 1
 564 721 l 1xec
EndSplineSet
EndChar

StartChar: divide.ss03
Encoding: 65556 -1 448
GlifName: divide.ss03
Width: 923
GlyphClass: 2
Flags: HW
HStem: 39 168<387 535> 504 96<70 854> 865 168<387 535>
VStem: 377 168<49 197 875 1023>
LayerCount: 2
Fore
SplineSet
377 949 m 0
 377 996 414 1033 461 1033 c 0
 508 1033 545 996 545 949 c 0
 545 902 508 865 461 865 c 0
 414 865 377 902 377 949 c 0
377 123 m 0
 377 170 414 207 461 207 c 0
 508 207 545 170 545 123 c 0
 545 76 508 39 461 39 c 0
 414 39 377 76 377 123 c 0
70 600 m 1
 854 600 l 1
 854 504 l 1
 70 504 l 1
 70 600 l 1
EndSplineSet
EndChar

StartChar: uni0307.ss03
Encoding: 65557 -1 449
GlifName: uni0307.ss03
Width: 599
GlyphClass: 4
Flags: HW
HStem: 988 168<237 384>
VStem: 227 168<998 1146>
AnchorPoint: "top1" 312 1000 mark 0
LayerCount: 2
Fore
SplineSet
227 1072 m 4
 227 1119 264 1156 311 1156 c 4
 358 1156 395 1119 395 1072 c 4
 395 1025 358 988 311 988 c 4
 264 988 227 1025 227 1072 c 4
EndSplineSet
EndChar

StartChar: uni0308.ss03
Encoding: 65558 -1 450
GlifName: uni0308.ss03
Width: 599
GlyphClass: 4
Flags: HW
HStem: 988 168<28 176 422 570>
VStem: 18 168<998 1146> 412 168<998 1146>
AnchorPoint: "top1" 312 1000 mark 0
LayerCount: 2
Fore
SplineSet
57 1072 m 0
 57 1119 94 1156 141 1156 c 0
 188 1156 225 1119 225 1072 c 0
 225 1025 188 988 141 988 c 0
 94 988 57 1025 57 1072 c 0
373 1072 m 4
 373 1119 410 1156 457 1156 c 4
 504 1156 541 1119 541 1072 c 4
 541 1025 504 988 457 988 c 4
 410 988 373 1025 373 1072 c 4
EndSplineSet
EndChar

StartChar: uni0312.ss03
Encoding: 65559 -1 451
GlifName: uni0312.ss03
Width: 599
GlyphClass: 4
Flags: HW
HStem: 1000 168<307 406> 1295 66<324 412>
VStem: 248 164<1010 1160 1295 1318> 248 59<1164 1277>
AnchorPoint: "top1" 312 1000 mark 0
LayerCount: 2
Fore
SplineSet
416 1084 m 0xd0
 416 1037 379 1000 332 1000 c 0
 285 1000 248 1037 248 1084 c 2xe0
 248 1186 l 2xd0
 248 1319 323 1361 389 1361 c 2
 412 1361 l 1
 412 1295 l 1xe0
 391 1295 l 2
 343 1295 307 1275 307 1182 c 6
 307 1164 l 5
 314 1167 323 1168 332 1168 c 0
 379 1168 416 1131 416 1084 c 0xd0
EndSplineSet
EndChar

StartChar: uni0313.ss03
Encoding: 65560 -1 452
GlifName: uni0313.ss03
Width: 599
GlyphClass: 4
Flags: HW
HStem: 1000 68<252 340> 1193 168<258 357>
VStem: 252 164<1043 1068 1202 1351> 357 59<1088 1195>
AnchorPoint: "top1" 312 1000 mark 0
LayerCount: 2
Fore
SplineSet
248 1277 m 0xd0
 248 1324 285 1361 332 1361 c 0
 379 1361 416 1324 416 1277 c 2xe0
 416 1176 l 2xd0
 416 1043 341 1000 275 1000 c 2
 252 1000 l 1
 252 1068 l 1xe0
 273 1068 l 2
 321 1068 357 1087 357 1178 c 2
 357 1195 l 1
 350 1194 341 1193 332 1193 c 0
 285 1193 248 1230 248 1277 c 0xd0
EndSplineSet
EndChar

StartChar: dotbelowcomb.ss03
Encoding: 65561 -1 453
GlifName: dotbelowcomb.ss03
Width: 599
GlyphClass: 4
Flags: HW
HStem: -301 168<229 377>
VStem: 219 168<-291 -143>
AnchorPoint: "bottom1" 301 0 mark 0
LayerCount: 2
Fore
SplineSet
219 -217 m 0
 219 -170 256 -133 303 -133 c 0
 350 -133 387 -170 387 -217 c 0
 387 -264 350 -301 303 -301 c 0
 256 -301 219 -264 219 -217 c 0
EndSplineSet
EndChar

StartChar: uni0326.ss03
Encoding: 65562 -1 454
GlifName: uni0326.ss03
Width: 599
GlyphClass: 4
Flags: HW
HStem: -418 66<240 331> -244 168<246 343>
VStem: 240 164<-379 -352 -236 -86> 344 61<-336 -240>
AnchorPoint: "bottom1" 320 0 mark 0
LayerCount: 2
Fore
SplineSet
236 -160 m 0xd0
 236 -113 273 -76 320 -76 c 0
 367 -76 404 -113 404 -160 c 2xe0
 404 -262 l 2xd0
 404 -379 330 -418 264 -418 c 2
 240 -418 l 1
 240 -352 l 1xe0
 262 -352 l 2
 309 -352 344 -334 344 -258 c 2
 344 -240 l 1
 338 -243 329 -244 320 -244 c 0
 273 -244 236 -207 236 -160 c 0xd0
EndSplineSet
EndChar

StartChar: ellipsis.ss03
Encoding: 65563 -1 455
GlifName: ellipsis.ss03
Width: 958
GlyphClass: 2
Flags: HW
HStem: -16 168<86 234 407 554 727 875>
VStem: 76 168<-6 142> 396 168<-6 142> 717 168<-6 142>
CounterMasks: 1 70
LayerCount: 2
Fore
SplineSet
717 68 m 0
 717 115 754 152 801 152 c 0
 848 152 885 115 885 68 c 0
 885 21 848 -16 801 -16 c 0
 754 -16 717 21 717 68 c 0
396 68 m 0
 396 115 433 152 480 152 c 0
 527 152 564 115 564 68 c 0
 564 21 527 -16 480 -16 c 0
 433 -16 396 21 396 68 c 0
76 68 m 0
 76 115 113 152 160 152 c 0
 207 152 244 115 244 68 c 0
 244 21 207 -16 160 -16 c 0
 113 -16 76 21 76 68 c 0
EndSplineSet
EndChar

StartChar: quoteleft.ss03
Encoding: 65564 -1 456
GlifName: quoteleft.ss03
Width: 318
GlyphClass: 2
Flags: HW
HStem: 986 168<120 226> 1332 68<151 252>
VStem: 68 168<996 1144> 68 51<1146 1286>
LayerCount: 2
Fore
SplineSet
236 1070 m 0xe0
 236 1023 199 986 152 986 c 0
 105 986 68 1023 68 1070 c 2xe0
 68 1172 l 2
 68 1344 153 1400 229 1400 c 2
 252 1400 l 1
 252 1332 l 1
 230 1332 l 2
 168 1332 119 1301 119 1164 c 2
 119 1146 l 1xd0
 127 1152 140 1154 152 1154 c 0
 199 1154 236 1117 236 1070 c 0xe0
EndSplineSet
EndChar

StartChar: quoteright.ss03
Encoding: 65565 -1 457
GlifName: quoteright.ss03
Width: 318
GlyphClass: 2
Flags: HW
HStem: 986 68<68 166> 1232 168<94 199>
VStem: 84 168<1242 1390> 199 53<1096 1240>
LayerCount: 2
Fore
SplineSet
84 1316 m 4xe0
 84 1363 121 1400 168 1400 c 4
 215 1400 252 1363 252 1316 c 6xe0
 252 1215 l 6
 252 1043 168 986 92 986 c 6
 68 986 l 5
 68 1055 l 5
 90 1055 l 6
 152 1055 199 1086 199 1223 c 6
 199 1240 l 5xd0
 191 1234 180 1232 168 1232 c 4
 121 1232 84 1269 84 1316 c 4xe0
EndSplineSet
EndChar

StartChar: quotesinglbase.ss03
Encoding: 65566 -1 458
GlifName: quotesinglbase.ss03
Width: 318
GlyphClass: 2
Flags: HW
HStem: -246 68<68 166> 0 168<94 199>
VStem: 84 168<10 158> 199 53<-137 8>
LayerCount: 2
Fore
SplineSet
84 84 m 0xe0
 84 131 121 168 168 168 c 0
 215 168 252 131 252 84 c 2xe0
 252 -18 l 2
 252 -190 168 -246 92 -246 c 2
 68 -246 l 1
 68 -178 l 1
 90 -178 l 2
 152 -178 199 -147 199 -10 c 2
 199 8 l 1xd0
 191 2 180 0 168 0 c 0
 121 0 84 37 84 84 c 0xe0
EndSplineSet
EndChar

StartChar: quotereversed.ss03
Encoding: 65567 -1 459
GlifName: quotereversed.ss03
Width: 318
GlyphClass: 2
Flags: HW
HStem: 986 68<151 252> 1232 168<120 226>
VStem: 68 168<1242 1390> 68 51<1101 1240>
LayerCount: 2
Fore
SplineSet
236 1316 m 0xe0
 236 1269 199 1232 152 1232 c 0
 140 1232 127 1234 119 1240 c 1
 119 1223 l 2
 119 1086 168 1055 230 1055 c 2
 252 1055 l 1
 252 986 l 1
 229 986 l 2
 153 986 68 1043 68 1215 c 2xd0
 68 1316 l 2
 68 1363 105 1400 152 1400 c 0
 199 1400 236 1363 236 1316 c 0xe0
EndSplineSet
EndChar

StartChar: quotedblleft.ss03
Encoding: 65568 -1 460
GlifName: quotedblleft.ss03
Width: 539
GlyphClass: 2
Flags: HW
HStem: 986 168<120 226 340 445> 1332 68<151 252 373 473>
VStem: 68 168<996 1144> 68 51<1146 1286> 287 168<996 1144> 287 53<1146 1291>
LayerCount: 2
Fore
SplineSet
455 1070 m 4xc8
 455 1023 418 986 371 986 c 4
 324 986 287 1023 287 1070 c 6xc8
 287 1172 l 6
 287 1344 371 1400 447 1400 c 6
 473 1400 l 5
 473 1332 l 5
 449 1332 l 6
 387 1332 340 1301 340 1164 c 6
 340 1146 l 5xc4
 348 1152 359 1154 371 1154 c 4
 418 1154 455 1117 455 1070 c 4xc8
236 1070 m 4xe0
 236 1023 199 986 152 986 c 4
 105 986 68 1023 68 1070 c 6xe0
 68 1172 l 6
 68 1344 153 1400 229 1400 c 6
 252 1400 l 5
 252 1332 l 5
 230 1332 l 6
 168 1332 119 1301 119 1164 c 6
 119 1146 l 5xd0
 127 1152 140 1154 152 1154 c 4
 199 1154 236 1117 236 1070 c 4xe0
EndSplineSet
EndChar

StartChar: quotedblright.ss03
Encoding: 65569 -1 461
GlifName: quotedblright.ss03
Width: 539
GlyphClass: 2
Flags: HW
HStem: 986 68<68 166 287 387> 1232 168<94 199 315 420>
VStem: 84 168<1242 1390> 199 53<1096 1240> 305 168<1242 1390> 420 53<1096 1240>
LayerCount: 2
Fore
SplineSet
84 1316 m 4xe0
 84 1363 121 1400 168 1400 c 4
 215 1400 252 1363 252 1316 c 6xe0
 252 1215 l 6
 252 1043 168 986 92 986 c 6
 68 986 l 5
 68 1055 l 5
 90 1055 l 6
 152 1055 199 1086 199 1223 c 6
 199 1240 l 5xd0
 191 1234 180 1232 168 1232 c 4
 121 1232 84 1269 84 1316 c 4xe0
305 1316 m 4xc8
 305 1363 342 1400 389 1400 c 4
 436 1400 473 1363 473 1316 c 6xc8
 473 1215 l 6
 473 1043 388 986 312 986 c 6
 287 986 l 5
 287 1055 l 5
 311 1055 l 6
 373 1055 420 1086 420 1223 c 6
 420 1240 l 5xc4
 412 1234 401 1232 389 1232 c 4
 342 1232 305 1269 305 1316 c 4xc8
EndSplineSet
EndChar

StartChar: quotedblbase.ss03
Encoding: 65570 -1 462
GlifName: quotedblbase.ss03
Width: 539
GlyphClass: 2
Flags: HW
HStem: -246 68<68 166 287 387> 0 168<94 199 315 420>
VStem: 84 168<10 158> 199 53<-137 8> 305 168<10 158> 420 53<-137 8>
LayerCount: 2
Fore
SplineSet
84 84 m 4xe0
 84 131 121 168 168 168 c 4
 215 168 252 131 252 84 c 6xe0
 252 -18 l 6
 252 -190 168 -246 92 -246 c 6
 68 -246 l 5
 68 -178 l 5
 90 -178 l 6
 152 -178 199 -147 199 -10 c 6
 199 8 l 5xd0
 191 2 180 0 168 0 c 4
 121 0 84 37 84 84 c 4xe0
305 84 m 4xc8
 305 131 342 168 389 168 c 4
 436 168 473 131 473 84 c 6xc8
 473 -18 l 6
 473 -190 388 -246 312 -246 c 6
 287 -246 l 5
 287 -178 l 5
 311 -178 l 6
 373 -178 420 -147 420 -10 c 6
 420 8 l 5xc4
 412 2 401 0 389 0 c 4
 342 0 305 37 305 84 c 4xc8
EndSplineSet
EndChar

StartChar: uni201F.ss03
Encoding: 65571 -1 463
GlifName: uni201F_.ss03
Width: 539
GlyphClass: 2
Flags: HW
HStem: 986 68<151 252 373 473> 1232 168<120 226 340 445>
VStem: 68 168<1242 1390> 68 51<1101 1240> 287 168<1242 1390> 287 53<1096 1240>
LayerCount: 2
Fore
SplineSet
455 1316 m 0xc8
 455 1269 418 1232 371 1232 c 0
 359 1232 348 1234 340 1240 c 1
 340 1223 l 2
 340 1086 387 1055 449 1055 c 2
 473 1055 l 1
 473 986 l 1
 447 986 l 2
 371 986 287 1043 287 1215 c 2xc4
 287 1316 l 2
 287 1363 324 1400 371 1400 c 0
 418 1400 455 1363 455 1316 c 0xc8
236 1316 m 0xe0
 236 1269 199 1232 152 1232 c 0
 140 1232 127 1234 119 1240 c 1
 119 1223 l 2
 119 1086 168 1055 230 1055 c 2
 252 1055 l 1
 252 986 l 1
 229 986 l 2
 153 986 68 1043 68 1215 c 2xd0
 68 1316 l 2
 68 1363 105 1400 152 1400 c 0
 199 1400 236 1363 236 1316 c 0xe0
EndSplineSet
EndChar

StartChar: ldot.ss02
Encoding: 65595 -1 487
GlifName: ldot.ss02
Width: 603
GlyphClass: 2
Flags: HW
HStem: 0 96<242 371> 568 139<377 504> 1361 39G<109 211>
VStem: 109 102<124 1400> 377 127<568 707>
LayerCount: 2
Fore
SplineSet
377 707 m 1
 504 707 l 1
 504 568 l 1
 377 568 l 1
 377 707 l 1
EndSplineSet
Refer: 74 -1 N 1 0 0 1 0 0 2
Substitution2: "'ss03' Style Set 3 in Latin lookup 2-1" ldot.ss02.ss03
EndChar

StartChar: lslash.ss02
Encoding: 65596 -1 488
GlifName: lslash.ss02
Width: 455
GlyphClass: 2
Flags: HWO
HStem: 0 96<299 432> 1361 39G<170 270>
VStem: 170 100<124 1400>
LayerCount: 2
Fore
SplineSet
0 651 m 5
 455 909 l 5
 455 802 l 5
 0 544 l 5
 0 651 l 5
432 96 m 1
 432 0 l 1
 408 0 l 2
 295 0 170 56 170 236 c 2
 170 1400 l 1
 270 1400 l 1
 270 248 l 2
 270 125 332 96 410 96 c 2
 432 96 l 1
EndSplineSet
EndChar

StartChar: Idieresis.ss03
Encoding: 65599 -1 491
GlifName: I_dieresis.ss03
Width: 318
GlyphClass: 2
Flags: HW
HStem: 0 41G<109 211> 1262 39G<109 211> 1389 168<-123 25 272 420>
VStem: -133 168<1399 1547> 109 102<0 1301> 262 168<1399 1547>
LayerCount: 2
Fore
SplineSet
-93 1472 m 0
 -93 1519 -56 1556 -9 1556 c 0
 38 1556 75 1519 75 1472 c 0
 75 1425 38 1388 -9 1388 c 0
 -56 1388 -93 1425 -93 1472 c 0
223 1472 m 0
 223 1519 260 1556 307 1556 c 0
 354 1556 391 1519 391 1472 c 0
 391 1425 354 1388 307 1388 c 0
 260 1388 223 1425 223 1472 c 0
109 1301 m 1
 211 1301 l 1
 211 0 l 1
 109 0 l 1
 109 1301 l 1
EndSplineSet
Substitution2: "dieresis-1" Idieresis.calt.ss03
Decomposition: "I+AwgA"
EndChar

StartChar: idieresis.ss03
Encoding: 65604 -1 496
GlifName: idieresis.ss03
Width: 318
GlyphClass: 2
Flags: HW
HStem: 0 41G<109 211> 961 39G<109 211> 1107 168<-125 23 270 418>
VStem: -135 168<1117 1265> 109 102<0 1000> 260 168<1117 1265>
LayerCount: 2
Fore
SplineSet
109 1000 m 1
 211 1000 l 1
 211 0 l 1
 109 0 l 1
 109 1000 l 1
-96 1191 m 0
 -96 1238 -59 1275 -12 1275 c 0
 35 1275 72 1238 72 1191 c 0
 72 1144 35 1107 -12 1107 c 0
 -59 1107 -96 1144 -96 1191 c 0
221 1191 m 4
 221 1238 258 1275 305 1275 c 4
 352 1275 389 1238 389 1191 c 4
 389 1144 352 1107 305 1107 c 4
 258 1107 221 1144 221 1191 c 4
EndSplineSet
Substitution2: "dieresis-1" idieresis.calt.ss03
Decomposition: "+ATEDCAAA"
EndChar

StartChar: dotlessi.ss03
Encoding: 65647 -1 539
GlifName: dotlessi.ss03
Width: 318
GlyphClass: 2
Flags: HW
HStem: 0 41G<109 211> 961 39G<109 211>
VStem: 109 102<0 1000>
AnchorPoint: "top1" 160 1119 basechar 0
AnchorPoint: "bottom1" 162 0 basechar 0
LayerCount: 2
Fore
SplineSet
109 1000 m 5
 211 1000 l 5
 211 0 l 5
 109 0 l 5
 109 1000 l 5
EndSplineSet
EndChar

StartChar: adieresis.ss01.ss03
Encoding: 65657 -1 549
GlifName: adieresis.ss01.ss03
Width: 1103
GlyphClass: 2
Flags: HW
HStem: -16 100<371 719> 920 100<371 722> 1105 168<291 439 686 834>
VStem: 90 105<280 727> 281 168<1116 1263> 676 168<1116 1263> 895 66<191 814>
LayerCount: 2
Fore
SplineSet
281 1189 m 0
 281 1236 318 1273 365 1273 c 0
 412 1273 449 1236 449 1189 c 0
 449 1142 412 1105 365 1105 c 0
 318 1105 281 1142 281 1189 c 0
676 1189 m 0
 676 1236 713 1273 760 1273 c 0
 807 1273 844 1236 844 1189 c 0
 844 1142 807 1105 760 1105 c 0
 713 1105 676 1142 676 1189 c 0
EndSplineSet
Refer: 73 -1 N 1 0 0 1 0 0 3
Decomposition: "a+AwgA"
EndChar

StartChar: uni1EA1.ss01.ss03
Encoding: 65658 -1 550
GlifName: uni1E_A_1.ss01.ss03
Width: 1103
GlyphClass: 2
Flags: HW
HStem: -301 168<473 621> -16 100<371 719> 920 100<371 722>
VStem: 90 105<280 727> 463 168<-291 -143> 895 66<191 814>
AnchorPoint: "top1" 578 1119 basechar 0
LayerCount: 2
Fore
SplineSet
463 -217 m 0
 463 -170 500 -133 547 -133 c 0
 594 -133 631 -170 631 -217 c 0
 631 -264 594 -301 547 -301 c 0
 500 -301 463 -264 463 -217 c 0
EndSplineSet
Refer: 73 -1 N 1 0 0 1 0 0 3
Decomposition: "a+AyMA"
EndChar

StartChar: ldot.ss02.ss03
Encoding: 65661 -1 553
GlifName: ldot.ss02.ss03
Width: 679
GlyphClass: 2
Flags: HW
HStem: 0 96<242 371> 555 168<426 574> 1361 39G<109 211>
VStem: 109 102<124 1400> 416 168<565 713>
LayerCount: 2
Fore
SplineSet
416 639 m 0
 416 686 453 723 500 723 c 0
 547 723 584 686 584 639 c 0
 584 592 547 555 500 555 c 0
 453 555 416 592 416 639 c 0
371 96 m 1
 371 0 l 1
 348 0 l 2
 235 0 109 56 109 236 c 2
 109 1400 l 1
 211 1400 l 1
 211 248 l 2
 211 125 272 96 350 96 c 2
 371 96 l 1
EndSplineSet
EndChar

StartChar: tbar.ss08
Encoding: 65679 -1 571
GlifName: tbar.ss08
Width: 623
GlyphClass: 2
Flags: HW
HStem: 0 41G<262 361> 504 96<70 555> 904 96<70 555>
VStem: 262 100<0 1260>
LayerCount: 2
Fore
SplineSet
70 600 m 1
 555 600 l 1
 555 504 l 1
 70 504 l 1
 70 600 l 1
70 1000 m 1
 555 1000 l 1
 555 904 l 1
 70 904 l 1
 70 1000 l 1
262 0 m 1
 262 1260 l 1
 361 1260 l 1
 361 0 l 1
 262 0 l 1
EndSplineSet
EndChar

StartChar: Gdotaccent.ss03.ss04
Encoding: 65706 -1 590
GlifName: G_dotaccent.ss03.ss04
Width: 1292
GlyphClass: 2
Flags: HW
HStem: -16 100<451 851> 568 96<641 1088> 1221 100<454 874> 1387 168<569 717>
VStem: 90 105<377 930> 559 168<1397 1545> 1088 96<339 568 879 1013>
LayerCount: 2
Fore
SplineSet
559 1471 m 0
 559 1518 596 1555 643 1555 c 0
 690 1555 727 1518 727 1471 c 0
 727 1424 690 1387 643 1387 c 0
 596 1387 559 1424 559 1471 c 0
EndSplineSet
Refer: 77 -1 N 1 0 0 1 0 0 3
Decomposition: "G+AwcA"
EndChar

StartChar: uni0122.ss03.ss04
Encoding: 65707 -1 591
GlifName: uni0122.ss03.ss04
Width: 1292
GlyphClass: 2
Flags: HW
HStem: -438 47<561 649> -244 168<567 683> -16 100<451 851> 568 96<641 1088> 1221 100<454 874>
VStem: 90 105<377 930> 561 164<-395 -391 -234 -86> 684 41<-349 -232> 1088 96<339 568 879 1013>
LayerCount: 2
Fore
SplineSet
557 -160 m 4xfd80
 557 -113 594 -76 641 -76 c 4
 688 -76 725 -113 725 -160 c 6xfe80
 725 -262 l 6xfd80
 725 -395 650 -438 584 -438 c 6
 561 -438 l 5
 561 -391 l 5xfe80
 582 -391 l 6
 641 -391 684 -365 684 -250 c 6
 684 -232 l 5
 672 -240 657 -244 641 -244 c 4
 594 -244 557 -207 557 -160 c 4xfd80
EndSplineSet
Refer: 77 -1 N 1 0 0 1 0 0 3
EndChar

StartChar: uni0156.ss03.ss05
Encoding: 65708 -1 592
GlifName: uni0156.ss03.ss05
Width: 1117
GlyphClass: 2
Flags: HW
HStem: -438 47<506 597> -244 168<512 630> 0 41G<109 211 884 1018> 559 43<598 715> 559 96<211 804> 1203 98<211 796>
VStem: 109 102<0 559 654 1203> 506 164<-395 -391 -235 -86> 631 39<-345 -232> 922 105<766 1085>
LayerCount: 2
Fore
SplineSet
502 -160 m 0xe6c0
 502 -113 539 -76 586 -76 c 0
 633 -76 670 -113 670 -160 c 2xe740
 670 -262 l 2xe6c0
 670 -395 595 -438 529 -438 c 2
 506 -438 l 1
 506 -391 l 1xe740
 527 -391 l 2
 586 -391 631 -365 631 -250 c 2
 631 -232 l 1
 619 -240 602 -244 586 -244 c 0
 539 -244 502 -207 502 -160 c 0xe6c0
EndSplineSet
Refer: 78 -1 N 1 0 0 1 0 0 3
EndChar

StartChar: uni1EF5.ss03.ss07
Encoding: 65709 -1 593
GlifName: uni1E_F_5.ss03.ss07
Width: 1060
GlyphClass: 2
Flags: HW
HStem: -301 168<655 802> 961 39G<70 199 862 992>
VStem: 645 168<-291 -143>
LayerCount: 2
Fore
SplineSet
645 -217 m 4
 645 -170 682 -133 729 -133 c 4
 776 -133 812 -170 812 -217 c 4
 812 -264 776 -301 729 -301 c 4
 682 -301 645 -264 645 -217 c 4
EndSplineSet
Refer: 80 -1 N 1 0 0 1 0 0 3
EndChar

StartChar: ydieresis.ss03.ss07
Encoding: 65710 -1 594
GlifName: ydieresis.ss03.ss07
Width: 1060
GlyphClass: 2
Flags: HW
HStem: 961 39G<70 199 862 992> 1105 168<268 416 662 810>
VStem: 258 168<1116 1263> 652 168<1116 1263>
LayerCount: 2
Fore
SplineSet
258 1189 m 4
 258 1236 295 1273 342 1273 c 4
 389 1273 426 1236 426 1189 c 4
 426 1142 389 1105 342 1105 c 4
 295 1105 258 1142 258 1189 c 4
652 1189 m 4
 652 1236 689 1273 736 1273 c 4
 783 1273 820 1236 820 1189 c 4
 820 1142 783 1105 736 1105 c 4
 689 1105 652 1142 652 1189 c 4
EndSplineSet
Refer: 80 -1 N 1 0 0 1 0 0 3
EndChar

StartChar: udieresis.ss03.ss10
Encoding: 65711 -1 595
GlifName: udieresis.ss03.ss10
Width: 1003
GlyphClass: 2
Flags: W
HStem: -16 100<331.664 674.802> 980 20G<109 211 795 895> 1105 168<231.016 378.984 623.016 770.984>
VStem: 109 102<204.678 1000> 221 168<1115.02 1262.98> 613 168<1115.02 1262.98> 795 100<204.678 1000>
LayerCount: 2
Fore
SplineSet
221 1189 m 0
 221 1236 258 1273 305 1273 c 0
 352 1273 389 1236 389 1189 c 0
 389 1142 352 1105 305 1105 c 0
 258 1105 221 1142 221 1189 c 0
613 1189 m 0
 613 1236 650 1273 697 1273 c 0
 744 1273 781 1236 781 1189 c 0
 781 1142 744 1105 697 1105 c 0
 650 1105 613 1142 613 1189 c 0
EndSplineSet
Refer: 105 -1 N 1 0 0 1 0 0 3
EndChar

StartChar: uni1EE5.ss03.ss10
Encoding: 65712 -1 596
GlifName: uni1E_E_5.ss03.ss10
Width: 1003
GlyphClass: 2
Flags: HW
HStem: -301 168<430 578> -16 100<332 675> 961 39G<109 211 795 895>
VStem: 109 102<205 1000> 420 168<-291 -143> 795 100<205 1000>
LayerCount: 2
Fore
SplineSet
420 -217 m 4
 420 -170 457 -133 504 -133 c 4
 551 -133 588 -170 588 -217 c 4
 588 -264 551 -301 504 -301 c 4
 457 -301 420 -264 420 -217 c 4
EndSplineSet
Refer: 105 -1 N 1 0 0 1 0 0 3
EndChar

StartChar: uni1EF1.ss03.ss10
Encoding: 65713 -1 597
GlifName: uni1E_F_1.ss03.ss10
Width: 1115
GlyphClass: 2
Flags: HW
HStem: -301 168<430 578> -16 100<332 675> 904 96<795 1026> 961 39G<109 211 795 895> 1166 39G<1057 1156>
VStem: 109 102<205 1000> 420 168<-291 -143> 795 100<205 1000> 1057 100<1028 1205>
LayerCount: 2
Fore
SplineSet
420 -217 m 0xcf80
 420 -170 457 -133 504 -133 c 0
 551 -133 588 -170 588 -217 c 0
 588 -264 551 -301 504 -301 c 0
 457 -301 420 -264 420 -217 c 0xcf80
EndSplineSet
Refer: 582 -1 N 1 0 0 1 0 0 3
EndChar

StartChar: zero.slsh
Encoding: 65714 -1 598
GlifName: zero.slsh
Width: 1089
GlyphClass: 2
Flags: HW
HStem: -16 100<382 710> 1221 100<386 707>
VStem: 90 105<319 969> 895 105<319 969>
LayerCount: 2
Fore
SplineSet
836 1113 m 1
 908 1055 l 1
 254 201 l 5
 182 262 l 5
 836 1113 l 1
90 635 m 0
 90 1067 262 1320 547 1320 c 0
 832 1320 1000 1067 1000 635 c 0
 1000 225 832 -16 547 -16 c 0
 260 -16 90 225 90 635 c 0
895 635 m 0
 895 1026 779 1221 547 1221 c 0
 313 1221 195 1026 195 635 c 0
 195 268 313 84 547 84 c 0
 779 84 895 268 895 635 c 0
EndSplineSet
Substitution2: "'tnum' Tabular Numbers in Latin lookup 11-1" zero.slsh.tabl
EndChar

StartChar: zero.tabl
Encoding: 65715 -1 599
GlifName: zero.tabl
Width: 1089
GlyphClass: 2
Flags: HW
HStem: -16 100<382 710> 1221 100<386 707>
VStem: 90 105<319 969> 895 105<319 969>
LayerCount: 2
Fore
SplineSet
90 635 m 4
 90 1067 262 1320 547 1320 c 4
 832 1320 1000 1067 1000 635 c 4
 1000 225 832 -16 547 -16 c 4
 260 -16 90 225 90 635 c 4
895 635 m 4
 895 1026 779 1221 547 1221 c 4
 313 1221 195 1026 195 635 c 4
 195 268 313 84 547 84 c 4
 779 84 895 268 895 635 c 4
EndSplineSet
Substitution2: "'zero' Slashed Zero in Latin lookup 10-1" zero.tabl.slsh
EndChar

StartChar: one.tabl
Encoding: 65716 -1 600
GlifName: one.tabl
Width: 1089
GlyphClass: 2
Flags: HW
HStem: 0 96<152 510 609 936> 1000 86<197 482> 1262 39G<510 609>
VStem: 510 100<96 1000 1113 1301>
LayerCount: 2
Fore
SplineSet
510 1301 m 1
 609 1301 l 1
 609 96 l 1
 936 96 l 1
 936 0 l 1
 152 0 l 1
 152 96 l 1
 510 96 l 1
 510 1000 l 1
 197 1000 l 1
 197 1086 l 1
 350 1086 l 2
 454 1086 510 1117 510 1221 c 2
 510 1301 l 1
EndSplineSet
EndChar

StartChar: two.tabl
Encoding: 65717 -1 601
GlifName: two.tabl
Width: 1089
GlyphClass: 2
Flags: HW
HStem: 0 96<223 965> 1217 100<366 725>
VStem: 117 105<96 223 918 1068> 865 107<759 1078>
LayerCount: 2
Fore
SplineSet
223 96 m 1
 965 96 l 1
 965 0 l 1
 117 0 l 1
 117 27 l 1
 117 316 348 436 551 547 c 0
 717 639 865 726 865 908 c 0
 865 1103 744 1217 537 1217 c 0
 353 1217 233 1100 225 918 c 1
 117 918 l 1
 133 1154 305 1316 537 1316 c 0
 797 1316 973 1154 973 908 c 0
 973 691 795 573 613 469 c 0
 422 360 223 266 223 96 c 1
EndSplineSet
EndChar

StartChar: three.tabl
Encoding: 65718 -1 602
GlifName: three.tabl
Width: 1089
GlyphClass: 2
Flags: HW
HStem: -16 100<356 736> 604 100<461 697> 623 61<598 692> 1217 100<368 726>
VStem: 117 107<206 342> 139 105<951 1091> 598 100<604 623 684 703> 846 105<793 1100> 865 107<200 503>
LayerCount: 2
Fore
SplineSet
697 703 m 1xd2
 697 604 l 1
 461 604 l 1
 461 703 l 1
 697 703 l 1xd2
598 623 m 1xb7
 598 703 l 1xd7
 756 703 846 793 846 947 c 0
 846 1117 732 1217 537 1217 c 0
 363 1217 250 1113 244 951 c 1
 139 951 l 1
 155 1168 314 1316 537 1316 c 0
 785 1316 951 1170 951 947 c 0
 951 754 811 623 598 623 c 1xb7
598 684 m 1xba80
 823 684 973 549 973 350 c 0
 973 129 797 -16 537 -16 c 0
 305 -16 133 129 117 342 c 1
 225 342 l 1
 233 184 353 84 537 84 c 0
 744 84 865 180 865 350 c 0
 865 512 768 604 598 604 c 1xda80
 598 684 l 1xba80
EndSplineSet
EndChar

StartChar: four.tabl
Encoding: 65719 -1 603
GlifName: four.tabl
Width: 1089
GlyphClass: 2
Flags: HW
HStem: 0 41G<713 812> 344 94<180 713 812 1016> 1262 39G<663 812>
VStem: 713 100<0 344 438 1176>
LayerCount: 2
Fore
SplineSet
812 344 m 1
 812 0 l 1
 713 0 l 1
 713 344 l 1
 72 344 l 1
 72 457 l 1
 691 1301 l 1
 812 1301 l 1
 812 438 l 1
 1016 438 l 1
 1016 344 l 1
 812 344 l 1
713 438 m 1
 713 1176 l 1
 180 438 l 1
 713 438 l 1
EndSplineSet
EndChar

StartChar: five.tabl
Encoding: 65720 -1 604
GlifName: five.tabl
Width: 1089
GlyphClass: 2
Flags: HW
HStem: -16 100<350 720> 773 100<353 714>
VStem: 117 107<205 328 727 776> 865 107<233 617>
LayerCount: 2
Fore
SplineSet
865 428 m 4
 865 199 748 84 543 84 c 4
 355 84 233 178 225 328 c 5
 117 328 l 5
 133 125 305 -16 543 -16 c 4
 799 -16 973 153 973 430 c 4
 973 688 809 873 549 873 c 4
 406 873 293 817 221 727 c 5
 264 1205 l 5
 926 1205 l 5
 926 1303 l 5
 178 1303 l 5
 117 617 l 5
 217 617 l 5
 278 713 385 773 533 773 c 4
 748 773 865 641 865 428 c 4
EndSplineSet
EndChar

StartChar: six.tabl
Encoding: 65721 -1 605
GlifName: six.tabl
Width: 1089
GlyphClass: 2
Flags: HW
HStem: -16 102<417 741> 750 102<409 741> 998 41G<855 977> 1221 100<403 753>
VStem: 98 105<592 966> 869 107<998 1109> 887 105<236 599>
LayerCount: 2
Fore
SplineSet
98 654 m 4xfa
 98 1074 275 1320 582 1320 c 4
 789 1320 942 1197 977 998 c 5
 869 998 l 5xfc
 842 1143 742 1221 582 1221 c 4
 328 1221 203 1035 203 654 c 4
 203 631 205 607 207 586 c 5
 269 750 418 852 590 852 c 4
 824 852 992 670 992 418 c 4
 992 166 824 -16 590 -16 c 4
 289 -16 98 244 98 654 c 4xfa
248 418 m 4
 248 229 393 86 582 86 c 4
 766 86 887 219 887 418 c 4xfa
 887 617 766 750 582 750 c 4
 383 750 248 615 248 418 c 4
EndSplineSet
EndChar

StartChar: seven.tabl
Encoding: 65722 -1 606
GlifName: seven.tabl
Width: 1089
GlyphClass: 2
Flags: HW
VStem: 371 109<0 301>
LayerCount: 2
Fore
SplineSet
480 0 m 1
 498 590 713 864 996 1184 c 1
 996 1301 l 1
 92 1301 l 1
 92 1203 l 1
 896 1203 l 1
 650 908 428 686 371 0 c 1
 480 0 l 1
EndSplineSet
EndChar

StartChar: eight.tabl
Encoding: 65723 -1 607
GlifName: eight.tabl
Width: 1089
GlyphClass: 2
Flags: HW
HStem: -16 100<350 741> 604 100<367 723> 1217 100<375 716>
VStem: 117 107<194 494> 158 105<801 1111> 826 105<801 1111> 865 107<194 494>
LayerCount: 2
Fore
SplineSet
734 656 m 1xec
 880 607 973 494 973 342 c 0
 973 125 803 -16 545 -16 c 0
 289 -16 117 125 117 342 c 0xf2
 117 494 209 607 355 656 c 1
 232 707 158 814 158 955 c 0
 158 1172 313 1316 545 1316 c 0
 779 1316 932 1172 932 955 c 0
 932 814 857 707 734 656 c 1xec
559 703 m 2
 729 703 826 795 826 955 c 0
 826 1121 725 1217 545 1217 c 0
 367 1217 264 1121 264 955 c 0xec
 264 795 361 703 531 703 c 2
 559 703 l 2
559 604 m 2
 531 604 l 2
 336 604 225 508 225 342 c 0
 225 178 342 84 545 84 c 0
 748 84 865 178 865 342 c 0xf2
 865 508 754 604 559 604 c 2
EndSplineSet
EndChar

StartChar: nine.tabl
Encoding: 65724 -1 608
GlifName: nine.tabl
Width: 1089
GlyphClass: 2
Flags: HW
HStem: -16 100<336 686> 451 104<348 680> 1219 102<348 673>
VStem: 98 105<705 1068> 113 107<196 307> 887 105<339 712>
LayerCount: 2
Fore
SplineSet
992 650 m 0xf4
 992 230 815 -16 508 -16 c 0
 301 -16 148 108 113 307 c 1
 221 307 l 1xec
 248 162 348 84 508 84 c 0
 762 84 887 269 887 650 c 0
 887 673 885 698 883 719 c 1
 821 555 672 451 500 451 c 0
 266 451 98 635 98 887 c 0
 98 1139 266 1320 500 1320 c 0
 801 1320 992 1060 992 650 c 0xf4
842 887 m 0
 842 1076 697 1219 508 1219 c 0
 324 1219 203 1086 203 887 c 0xf4
 203 688 324 555 508 555 c 0
 707 555 842 690 842 887 c 0
EndSplineSet
EndChar

StartChar: zero.slsh.tabl
Encoding: 65725 -1 609
GlifName: zero.slsh.tabl
Width: 1089
GlyphClass: 2
Flags: HW
HStem: -16 100<382 710> 1221 100<386 707>
VStem: 90 105<319 969> 895 105<319 969>
LayerCount: 2
Fore
SplineSet
836 1113 m 1
 908 1055 l 1
 254 201 l 5
 182 262 l 5
 836 1113 l 1
90 635 m 0
 90 1067 262 1320 547 1320 c 0
 832 1320 1000 1067 1000 635 c 0
 1000 225 832 -16 547 -16 c 0
 260 -16 90 225 90 635 c 0
895 635 m 0
 895 1026 779 1221 547 1221 c 0
 313 1221 195 1026 195 635 c 0
 195 268 313 84 547 84 c 0
 779 84 895 268 895 635 c 0
EndSplineSet
EndChar

StartChar: plus.tabl
Encoding: 65726 -1 610
GlifName: plus.tabl
Width: 1089
GlyphClass: 2
Flags: HW
HStem: 504 96<68 496 592 1020>
VStem: 496 96<76 504 600 1027>
LayerCount: 2
Fore
SplineSet
592 600 m 5
 1020 600 l 5
 1020 504 l 5
 592 504 l 5
 592 76 l 5
 496 76 l 5
 496 504 l 5
 68 504 l 5
 68 600 l 5
 496 600 l 5
 496 1027 l 5
 592 1027 l 5
 592 600 l 5
EndSplineSet
EndChar

StartChar: hyphen.tabl
Encoding: 65727 -1 611
GlifName: hyphen.tabl
Width: 1089
GlyphClass: 2
Flags: HW
HStem: 504 96<152 936>
LayerCount: 2
Fore
SplineSet
152 600 m 1
 936 600 l 1
 936 504 l 1
 152 504 l 1
 152 600 l 1
EndSplineSet
EndChar

StartChar: period.tabl
Encoding: 65728 -1 612
GlifName: period.tabl
Width: 318
GlyphClass: 2
Flags: HW
HStem: 0 141<96 223>
VStem: 96 127<0 141>
LayerCount: 2
Fore
SplineSet
96 141 m 5
 223 141 l 5
 223 0 l 5
 96 0 l 5
 96 141 l 5
EndSplineSet
Substitution2: "'ss03' Style Set 3 in Latin lookup 2-1" period.tabl.ss03
EndChar

StartChar: slash.tabl
Encoding: 65729 -1 613
GlifName: slash.tabl
Width: 783
GlyphClass: 2
Flags: HW
HStem: 0 41G<68 196> 1262 39G<587 715>
VStem: 68 646
LayerCount: 2
Fore
SplineSet
604 1301 m 5
 715 1301 l 5
 180 0 l 5
 68 0 l 5
 604 1301 l 5
EndSplineSet
EndChar

StartChar: colon.tabl
Encoding: 65730 -1 614
GlifName: colon.tabl
Width: 318
GlyphClass: 2
Flags: HW
HStem: 0 141<96 223> 820 141<96 223>
VStem: 96 127<0 141 820 961>
LayerCount: 2
Fore
SplineSet
96 961 m 5
 223 961 l 5
 223 820 l 5
 96 820 l 5
 96 961 l 5
96 141 m 5
 223 141 l 5
 223 0 l 5
 96 0 l 5
 96 141 l 5
EndSplineSet
Substitution2: "'ss03' Style Set 3 in Latin lookup 2-1" colon.tabl.ss03
EndChar

StartChar: multiply.tabl
Encoding: 65731 -1 615
GlifName: multiply.tabl
Width: 1089
GlyphClass: 2
Flags: HW
LayerCount: 2
Fore
SplineSet
545 619 m 1
 889 963 l 1
 955 895 l 1
 611 553 l 1
 955 211 l 1
 889 143 l 1
 545 484 l 1
 203 143 l 1
 137 211 l 1
 477 553 l 1
 137 895 l 1
 203 963 l 1
 545 619 l 1
EndSplineSet
EndChar

StartChar: divide.tabl
Encoding: 65732 -1 616
GlifName: divide.tabl
Width: 1089
GlyphClass: 2
Flags: HW
HStem: 55 139<480 607> 504 96<152 936> 873 141<480 607>
VStem: 480 127<55 193 873 1014>
LayerCount: 2
Fore
SplineSet
480 1014 m 5
 607 1014 l 5
 607 873 l 5
 480 873 l 5
 480 1014 l 5
480 193 m 5
 607 193 l 5
 607 55 l 5
 480 55 l 5
 480 193 l 5
152 600 m 1
 936 600 l 1
 936 504 l 1
 152 504 l 1
 152 600 l 1
EndSplineSet
Substitution2: "'ss03' Style Set 3 in Latin lookup 2-1" divide.tabl.ss03
EndChar

StartChar: period.tabl.ss03
Encoding: 65733 -1 617
GlifName: period.ss03.tabl
Width: 318
GlyphClass: 2
Flags: HW
HStem: -16 168<85 233>
VStem: 75 168<-6 142>
LayerCount: 2
Fore
SplineSet
75 68 m 4
 75 115 112 152 159 152 c 4
 206 152 243 115 243 68 c 4
 243 21 206 -16 159 -16 c 4
 112 -16 75 21 75 68 c 4
EndSplineSet
EndChar

StartChar: colon.tabl.ss03
Encoding: 65734 -1 618
GlifName: colon.ss03.tabl
Width: 318
GlyphClass: 2
Flags: HW
HStem: -16 168<85 233> 811 168<85 233>
VStem: 75 168<-6 142 821 968>
LayerCount: 2
Fore
SplineSet
75 895 m 4
 75 942 112 979 159 979 c 4
 206 979 243 942 243 895 c 4
 243 848 206 811 159 811 c 4
 112 811 75 848 75 895 c 4
75 68 m 4
 75 115 112 152 159 152 c 4
 206 152 243 115 243 68 c 4
 243 21 206 -16 159 -16 c 4
 112 -16 75 21 75 68 c 4
EndSplineSet
EndChar

StartChar: divide.tabl.ss03
Encoding: 65735 -1 619
GlifName: divide.ss03.tabl
Width: 1089
GlyphClass: 2
Flags: HW
HStem: 39 168<471 619> 504 96<152 936> 865 168<471 619>
VStem: 461 168<49 197 875 1023>
LayerCount: 2
Fore
SplineSet
461 949 m 0
 461 996 498 1033 545 1033 c 0
 592 1033 629 996 629 949 c 0
 629 902 592 865 545 865 c 0
 498 865 461 902 461 949 c 0
461 123 m 0
 461 170 498 207 545 207 c 0
 592 207 629 170 629 123 c 0
 629 76 592 39 545 39 c 0
 498 39 461 76 461 123 c 0
152 600 m 1
 936 600 l 1
 936 504 l 1
 152 504 l 1
 152 600 l 1
EndSplineSet
EndChar

StartChar: cent
Encoding: 162 162 620
GlifName: cent
Width: 1072
GlyphClass: 2
Flags: HW
HStem: 0 41G<496 596> 135 100<368 733> 1070 100<367 730> 1262 39G<496 596>
VStem: 90 105<430 881> 496 100<0 1301> 879 105<365 498 787 925>
LayerCount: 2
Fore
SplineSet
496 1301 m 1
 596 1301 l 1
 596 0 l 1
 496 0 l 1
 496 1301 l 1
90 654 m 0
 90 965 274 1170 545 1170 c 0
 789 1170 966 1014 984 787 c 1
 879 787 l 1
 871 959 740 1070 545 1070 c 0
 322 1070 195 918 195 654 c 0
 195 388 324 234 545 234 c 0
 738 234 869 336 879 498 c 1
 984 498 l 1
 963 277 789 135 545 135 c 0
 274 135 90 342 90 654 c 0
EndSplineSet
EndChar

StartChar: sterling
Encoding: 163 163 621
GlifName: sterling
Width: 1046
GlyphClass: 2
Flags: HW
HStem: 0 96<70 119 170 979> 580 96<70 820> 1004 41G<854 963> 1217 100<460 765>
VStem: 256 100<249 1104> 861 102<1004 1117>
LayerCount: 2
Fore
SplineSet
70 676 m 5
 820 676 l 5
 820 580 l 5
 70 580 l 5
 70 676 l 5
861 1004 m 5
 845 1139 751 1217 605 1217 c 4
 447 1217 355 1110 355 928 c 6
 355 430 l 6
 355 305 313 164 170 96 c 5
 979 96 l 5
 979 0 l 5
 70 0 l 5
 70 107 l 5
 213 175 256 320 256 445 c 6
 256 928 l 6
 256 1160 396 1316 605 1316 c 4
 802 1316 945 1192 963 1004 c 5
 861 1004 l 5
EndSplineSet
EndChar

StartChar: currency
Encoding: 164 164 622
GlifName: currency
Width: 958
GlyphClass: 2
Flags: HW
HStem: 258 88<345 610> 770 88<346 611>
VStem: 184 94<417 698> 680 94<417 699>
LayerCount: 2
Fore
SplineSet
277 559 m 0
 277 426 353 346 480 346 c 0
 603 346 680 428 680 559 c 0
 680 690 602 770 479 770 c 0
 358 770 277 690 277 559 c 0
660 801 m 1
 822 963 l 1
 891 895 l 1
 727 730 l 1
 758 681 773 623 773 559 c 0
 773 491 756 430 723 379 c 1
 891 211 l 1
 822 143 l 1
 654 311 l 1
 605 278 546 258 480 258 c 0
 414 258 356 278 307 311 c 1
 139 143 l 1
 70 211 l 1
 238 379 l 1
 203 430 184 491 184 559 c 0
 184 623 201 681 232 732 c 1
 70 895 l 1
 139 963 l 1
 299 803 l 1
 350 838 411 857 479 857 c 0
 549 857 609 838 660 801 c 1
EndSplineSet
EndChar

StartChar: degree
Encoding: 176 176 623
GlifName: degree
Width: 648
GlyphClass: 2
Flags: HW
HStem: 803 88<211 440> 1234 88<210 440>
VStem: 70 94<938 1186> 486 94<939 1186>
LayerCount: 2
Fore
SplineSet
164 1062 m 4
 164 955 226 891 326 891 c 4
 426 891 486 957 486 1062 c 4
 486 1167 424 1234 324 1234 c 4
 226 1234 164 1167 164 1062 c 4
580 1062 m 4
 580 910 474 803 326 803 c 4
 176 803 70 910 70 1062 c 4
 70 1214 176 1322 324 1322 c 4
 474 1322 580 1214 580 1062 c 4
EndSplineSet
EndChar

StartChar: yen
Encoding: 165 165 624
GlifName: yen
Width: 1132
GlyphClass: 2
Flags: HW
HStem: 0 41G<514 613> 176 96<166 949> 404 96<166 949> 1262 39G<70 215 922 1064>
VStem: 514 100<0 490>
LayerCount: 2
Fore
SplineSet
166 271 m 5
 949 271 l 5
 949 176 l 5
 166 176 l 5
 166 271 l 5
166 500 m 1
 949 500 l 1
 949 404 l 1
 166 404 l 1
 166 500 l 1
514 490 m 1
 70 1301 l 1
 193 1301 l 1
 564 615 l 1
 943 1301 l 1
 1064 1301 l 1
 613 490 l 1
 613 0 l 1
 514 0 l 1
 514 490 l 1
EndSplineSet
EndChar

StartChar: brokenbar
Encoding: 166 166 625
GlifName: brokenbar
Width: 318
GlyphClass: 2
Flags: HW
VStem: 109 102<-400 496 705 1602>
LayerCount: 2
Fore
SplineSet
109 1602 m 1
 211 1602 l 1
 211 705 l 1
 109 705 l 1
 109 1602 l 1
211 496 m 1
 211 -400 l 1
 109 -400 l 1
 109 496 l 1
 211 496 l 1
EndSplineSet
EndChar

StartChar: uni2070
Encoding: 8304 8304 626
GlifName: uni2070
Width: 769
GlyphClass: 2
Flags: HW
HStem: 713 100<265 507> 1408 100<265 507>
VStem: 70 105<912 1309> 594 105<912 1309>
LayerCount: 2
Fore
SplineSet
70 1111 m 4
 70 1349 198 1508 387 1508 c 4
 575 1508 699 1349 699 1111 c 4
 699 871 575 713 387 713 c 4
 198 713 70 871 70 1111 c 4
594 1111 m 4
 594 1299 520 1408 387 1408 c 4
 254 1408 176 1299 176 1111 c 4
 176 922 254 812 387 812 c 4
 520 812 594 922 594 1111 c 4
EndSplineSet
EndChar

StartChar: uni2074
Encoding: 8308 8308 627
GlifName: uni2074
Width: 787
GlyphClass: 2
Flags: HW
HStem: 924 94<176 471 570 719>
VStem: 471 100<729 924 1018 1377>
LayerCount: 2
Fore
SplineSet
570 924 m 1
 570 729 l 1
 471 729 l 1
 471 924 l 1
 70 924 l 1
 70 1037 l 1
 449 1500 l 1
 570 1500 l 1
 570 1018 l 1
 719 1018 l 1
 719 924 l 1
 570 924 l 1
471 1018 m 1
 471 1377 l 1
 176 1018 l 1
 471 1018 l 1
EndSplineSet
EndChar

StartChar: uni2075
Encoding: 8309 8309 628
GlifName: uni2075
Width: 724
GlyphClass: 2
Flags: HW
HStem: 713 100<217 499> 1158 100<239 503>
VStem: 70 105<855 936 1160 1181> 551 105<864 1109>
LayerCount: 2
Fore
SplineSet
551 986 m 0
 551 871 482 812 365 812 c 0
 252 812 180 860 176 936 c 1
 70 936 l 1
 82 803 199 713 365 713 c 0
 537 713 656 816 656 988 c 0
 656 1144 555 1258 393 1258 c 0
 301 1258 227 1221 180 1160 c 1
 205 1404 l 1
 617 1404 l 1
 617 1500 l 1
 119 1500 l 1
 70 1053 l 1
 168 1053 l 1
 207 1117 281 1158 379 1158 c 0
 490 1158 551 1091 551 986 c 0
EndSplineSet
EndChar

StartChar: uni2076
Encoding: 8310 8310 629
GlifName: uni2076
Width: 753
GlyphClass: 2
Flags: HW
HStem: 713 102<276 529> 1117 104<271 533> 1408 100<262 525>
VStem: 70 105<1065 1312> 562 105<1295 1369> 578 105<863 1070>
LayerCount: 2
Fore
SplineSet
70 1102 m 0xf4
 70 1358 191 1508 400 1508 c 0
 541 1508 643 1428 668 1295 c 1
 562 1295 l 1xf8
 546 1369 490 1408 400 1408 c 0
 250 1408 176 1310 176 1111 c 0
 176 1093 178 1079 180 1061 c 1
 217 1161 308 1221 412 1221 c 0
 570 1221 684 1115 684 967 c 0
 684 819 570 713 412 713 c 0
 203 713 70 864 70 1102 c 0xf4
221 967 m 0
 221 879 299 814 404 814 c 0
 509 814 578 875 578 967 c 0xf4
 578 1059 509 1117 404 1117 c 0
 295 1117 221 1057 221 967 c 0
EndSplineSet
EndChar

StartChar: uni2077
Encoding: 8311 8311 630
GlifName: uni2077
Width: 771
GlyphClass: 2
Flags: HW
VStem: 248 107<729 919>
LayerCount: 2
Fore
SplineSet
355 729 m 1
 380 997 512 1207 701 1385 c 1
 701 1500 l 1
 70 1500 l 1
 70 1404 l 1
 600 1404 l 1
 434 1238 291 1053 248 729 c 1
 355 729 l 1
EndSplineSet
EndChar

StartChar: uni2078
Encoding: 8312 8312 631
GlifName: uni2078
Width: 753
GlyphClass: 2
Flags: HW
HStem: 713 100<214 539> 1061 100<355 410> 1080 61<361 377 391 406> 1408 100<237 523>
VStem: 70 105<852 1019> 90 105<1195 1367> 355 21<1061 1160> 391 20<1061 1080 1141 1160> 559 105<1191 1371> 578 105<851 1022>
LayerCount: 2
Fore
SplineSet
383 1508 m 1xb7
 383 1408 l 1
 264 1408 195 1359 195 1275 c 0
 195 1201 264 1160 377 1160 c 1xd7
 377 1080 l 1
 205 1080 90 1162 90 1285 c 0
 90 1418 207 1508 383 1508 c 1xb7
383 812 m 1
 383 713 l 1
 195 713 70 797 70 924 c 0
 70 1053 193 1141 377 1141 c 1xbb
 377 1061 l 1
 250 1061 176 1014 176 932 c 0xdb
 176 856 252 812 383 812 c 1
410 1160 m 1xd3
 410 1061 l 1
 355 1061 l 1
 355 1160 l 1
 410 1160 l 1xd3
383 1508 m 1
 553 1508 664 1418 664 1285 c 0
 664 1162 555 1080 391 1080 c 1xb380
 391 1160 l 1
 498 1160 559 1201 559 1275 c 0xd380
 559 1359 496 1408 383 1408 c 1
 383 1508 l 1
383 812 m 1
 508 812 578 856 578 932 c 0
 578 1014 510 1061 391 1061 c 1xd340
 391 1141 l 1
 567 1141 684 1053 684 924 c 0xb340
 684 797 565 713 383 713 c 1
 383 812 l 1
EndSplineSet
EndChar

StartChar: uni2079
Encoding: 8313 8313 632
GlifName: uni2079
Width: 753
GlyphClass: 2
Flags: HW
HStem: 713 100<215 495> 982 100<233 486> 1404 104<233 483>
VStem: 70 111<846 916 1132 1355> 582 102<899 1198>
LayerCount: 2
Fore
SplineSet
684 1078 m 0
 684 848 563 713 354 713 c 0
 206 713 97 789 72 916 c 1
 178 916 l 1
 196 848 256 812 354 812 c 0
 506 812 582 902 582 1088 c 0
 582 1106 580 1123 578 1141 c 1
 541 1043 450 982 346 982 c 0
 186 982 70 1092 70 1244 c 0
 70 1396 189 1508 355 1508 c 0
 554 1508 684 1342 684 1078 c 0
539 1242 m 0
 539 1334 460 1404 355 1404 c 0
 250 1404 182 1340 182 1242 c 0
 182 1146 250 1082 355 1082 c 0
 464 1082 539 1146 539 1242 c 0
EndSplineSet
EndChar

StartChar: uni207A
Encoding: 8314 8314 633
GlifName: uni207A_
Width: 730
GlyphClass: 2
Flags: HW
HStem: 1080 96<70 318 414 662>
VStem: 318 96<832 1080 1176 1424>
LayerCount: 2
Fore
SplineSet
414 1176 m 5
 662 1176 l 5
 662 1080 l 5
 414 1080 l 5
 414 832 l 1
 318 832 l 1
 318 1080 l 5
 70 1080 l 5
 70 1176 l 5
 318 1176 l 5
 318 1424 l 1
 414 1424 l 1
 414 1176 l 5
EndSplineSet
EndChar

StartChar: uni207B
Encoding: 8315 8315 634
GlifName: uni207B_
Width: 730
GlyphClass: 2
Flags: HW
HStem: 1080 96<70 662>
VStem: 70 592<1080 1176>
LayerCount: 2
Fore
SplineSet
70 1176 m 1
 662 1176 l 1
 662 1080 l 1
 70 1080 l 1
 70 1176 l 1
EndSplineSet
EndChar

StartChar: uni207C
Encoding: 8316 8316 635
GlifName: uni207C_
Width: 730
GlyphClass: 2
Flags: HW
HStem: 910 96<70 662> 1250 96<70 662>
VStem: 70 592<910 1006 1250 1346>
LayerCount: 2
Fore
SplineSet
70 1006 m 5
 662 1006 l 5
 662 910 l 5
 70 910 l 5
 70 1006 l 5
70 1346 m 5
 662 1346 l 5
 662 1250 l 5
 70 1250 l 5
 70 1346 l 5
EndSplineSet
EndChar

StartChar: uni207D
Encoding: 8317 8317 636
GlifName: uni207D_
Width: 357
GlyphClass: 2
Flags: HW
VStem: 70 105<810 1430>
LayerCount: 2
Fore
SplineSet
328 588 m 1
 227 588 l 1
 137 690 70 879 70 1129 c 0
 70 1365 137 1543 227 1641 c 1
 328 1641 l 5
 226 1516 176 1359 176 1129 c 0
 176 885 226 719 328 588 c 1
EndSplineSet
EndChar

StartChar: uni207E
Encoding: 8318 8318 637
GlifName: uni207E_
Width: 357
GlyphClass: 2
Flags: HW
VStem: 182 105<794 1423>
LayerCount: 2
Fore
SplineSet
29 1641 m 5
 133 1641 l 5
 223 1539 287 1350 287 1100 c 4
 287 864 223 686 133 588 c 5
 29 588 l 5
 131 713 182 870 182 1100 c 4
 182 1344 131 1510 29 1641 c 5
EndSplineSet
EndChar

StartChar: uni207F
Encoding: 8319 8319 638
GlifName: uni207F_
Width: 839
GlyphClass: 2
Flags: HW
HStem: 1420 100<300 565>
VStem: 109 102<729 1500> 152 59<1225 1408> 631 100<729 1353>
LayerCount: 2
Fore
SplineSet
631 1199 m 2xb0
 631 1353 553 1420 434 1420 c 0
 307 1420 211 1334 211 1213 c 1xd0
 152 1225 l 1
 154 1409 308 1520 453 1520 c 0
 613 1520 730 1414 730 1221 c 2
 730 729 l 1
 631 729 l 1
 631 1199 l 2xb0
109 1500 m 1
 211 1500 l 1
 211 729 l 1
 109 729 l 1
 109 1500 l 1
EndSplineSet
EndChar

StartChar: uni2080
Encoding: 8320 8320 639
GlifName: uni2080
Width: 769
GlyphClass: 2
Flags: HW
HStem: -217 102<265 507> 480 100<265 507>
VStem: 70 105<-16 382> 594 105<-16 382>
LayerCount: 2
Fore
SplineSet
70 184 m 4
 70 422 198 580 387 580 c 4
 575 580 699 422 699 184 c 4
 699 -56 575 -217 387 -217 c 4
 198 -217 70 -56 70 184 c 4
594 184 m 4
 594 372 520 480 387 480 c 4
 254 480 176 372 176 184 c 4
 176 -5 254 -115 387 -115 c 4
 520 -115 594 -5 594 184 c 4
EndSplineSet
EndChar

StartChar: uni2081
Encoding: 8321 8321 640
GlifName: uni2081
Width: 439
GlyphClass: 2
Flags: HW
HStem: 320 86<51 255>
VStem: 270 100<-199 320 422 572>
LayerCount: 2
Fore
SplineSet
270 572 m 5
 369 572 l 5
 369 -199 l 5
 270 -199 l 5
 270 320 l 5
 51 320 l 5
 51 406 l 5
 137 406 l 6
 225 406 270 430 270 510 c 6
 270 572 l 5
EndSplineSet
EndChar

StartChar: uni2082
Encoding: 8322 8322 641
GlifName: uni2082
Width: 751
GlyphClass: 2
Flags: HW
HStem: -199 96<174 674> 480 100<246 528>
VStem: 70 105<305 411> 576 105<227 432>
LayerCount: 2
Fore
SplineSet
174 -104 m 5
 674 -104 l 1
 674 -199 l 1
 70 -199 l 1
 70 -172 l 2
 70 31 240 89 385 146 c 0
 489 185 576 228 576 322 c 0
 576 422 508 480 391 480 c 0
 264 480 182 412 176 305 c 1
 70 305 l 1
 82 469 215 580 391 580 c 0
 565 580 682 474 682 314 c 0
 682 181 553 116 424 61 c 0
 297 8 192 -32 174 -104 c 5
EndSplineSet
EndChar

StartChar: uni2083
Encoding: 8323 8323 642
GlifName: uni2083
Width: 753
GlyphClass: 2
Flags: HW
HStem: -217 102<221 539> 131 100<324 529> 150 61<443 525> 482 100<235 513>
VStem: 70 105<-68 8 344 424> 443 86<131 150 211 230> 559 105<236 440> 578 105<-76 106>
LayerCount: 2
Fore
SplineSet
529 230 m 5xdc
 529 131 l 5
 324 131 l 1
 324 230 l 1
 529 230 l 5xdc
443 150 m 1xbe
 443 230 l 1xde
 515 230 559 270 559 340 c 0
 559 430 490 482 373 482 c 0
 264 482 192 428 188 344 c 1
 82 344 l 1
 94 485 211 582 373 582 c 0
 547 582 664 486 664 340 c 0
 664 227 574 150 443 150 c 1xbe
443 211 m 1xbd
 588 211 684 131 684 12 c 0
 684 -125 563 -217 381 -217 c 0
 209 -217 82 -125 70 8 c 1
 176 8 l 1
 182 -68 262 -115 381 -115 c 0
 506 -115 578 -70 578 12 c 0
 578 88 529 131 443 131 c 1xdd
 443 211 l 1xbd
EndSplineSet
EndChar

StartChar: uni2084
Encoding: 8324 8324 643
GlifName: uni2084
Width: 787
GlyphClass: 2
Flags: HW
HStem: -4 94<176 471 570 719>
VStem: 471 100<-199 -4 90 447>
LayerCount: 2
Fore
SplineSet
570 -4 m 1
 570 -199 l 1
 471 -199 l 1
 471 -4 l 1
 70 -4 l 1
 70 109 l 1
 449 572 l 1
 570 572 l 1
 570 90 l 1
 719 90 l 1
 719 -4 l 1
 570 -4 l 1
471 90 m 1
 471 447 l 1
 176 90 l 1
 471 90 l 1
EndSplineSet
EndChar

StartChar: uni2085
Encoding: 8325 8325 644
GlifName: uni2085
Width: 724
GlyphClass: 2
Flags: HW
HStem: -217 102<217 499> 230 100<239 503>
VStem: 70 105<-73 8 232 252> 551 105<-64 181>
LayerCount: 2
Fore
SplineSet
551 59 m 0
 551 -56 482 -115 365 -115 c 0
 252 -115 180 -68 176 8 c 1
 70 8 l 1
 82 -125 199 -217 365 -217 c 0
 537 -217 656 -111 656 61 c 0
 656 217 555 330 393 330 c 0
 301 330 227 293 180 232 c 1
 205 477 l 1
 617 477 l 1
 617 572 l 1
 119 572 l 1
 70 123 l 1
 168 123 l 1
 207 187 281 230 379 230 c 0
 490 230 551 164 551 59 c 0
EndSplineSet
EndChar

StartChar: uni2086
Encoding: 8326 8326 645
GlifName: uni2086
Width: 753
GlyphClass: 2
Flags: HW
HStem: -217 104<276 533> 189 104<271 529> 480 100<262 525>
VStem: 70 105<137 384> 562 105<365 440> 578 105<-66 141>
LayerCount: 2
Fore
SplineSet
70 174 m 0xf4
 70 430 191 580 400 580 c 0
 541 580 643 498 668 365 c 1
 562 365 l 1xf8
 546 439 490 480 400 480 c 0
 250 480 176 383 176 184 c 0
 176 166 178 151 180 133 c 1
 217 233 308 293 412 293 c 0
 570 293 684 185 684 37 c 0
 684 -111 570 -217 412 -217 c 0
 203 -217 70 -64 70 174 c 0xf4
221 37 m 0
 221 -51 299 -113 404 -113 c 0
 509 -113 578 -55 578 37 c 0xf4
 578 129 509 189 404 189 c 0
 295 189 221 127 221 37 c 0
EndSplineSet
EndChar

StartChar: uni2087
Encoding: 8327 8327 646
GlifName: uni2087
Width: 771
GlyphClass: 2
Flags: HW
VStem: 248 107<-199 -5>
LayerCount: 2
Fore
SplineSet
355 -199 m 5
 380 69 512 277 701 455 c 5
 701 572 l 5
 70 572 l 5
 70 477 l 5
 600 477 l 5
 434 311 291 125 248 -199 c 5
 355 -199 l 5
EndSplineSet
EndChar

StartChar: uni2088
Encoding: 8328 8328 647
GlifName: uni2088
Width: 753
GlyphClass: 2
Flags: HW
HStem: -217 102<214 539> 133 100<355 410> 152 61<361 377 391 406> 480 100<237 523>
VStem: 70 105<-76 91> 90 105<267 440> 355 21<133 232> 391 20<133 152 213 232> 559 105<263 443> 578 105<-77 94>
LayerCount: 2
Fore
SplineSet
383 580 m 1xb7
 383 480 l 1
 264 480 195 432 195 348 c 0
 195 274 264 232 377 232 c 1xd7
 377 152 l 1
 205 152 90 234 90 357 c 0
 90 490 207 580 383 580 c 1xb7
383 -115 m 1
 383 -217 l 1
 195 -217 70 -131 70 -4 c 0
 70 125 193 213 377 213 c 1xbb
 377 133 l 1
 250 133 176 86 176 4 c 0xdb
 176 -72 252 -115 383 -115 c 1
410 232 m 1xd3
 410 133 l 1
 355 133 l 1
 355 232 l 1
 410 232 l 1xd3
383 580 m 1
 553 580 664 490 664 357 c 0
 664 234 555 152 391 152 c 1xb380
 391 232 l 1
 498 232 559 274 559 348 c 0xd380
 559 432 496 480 383 480 c 1
 383 580 l 1
383 -115 m 1
 508 -115 578 -72 578 4 c 0
 578 86 510 133 391 133 c 1xd340
 391 213 l 1
 567 213 684 125 684 -4 c 0xb340
 684 -131 565 -217 383 -217 c 1
 383 -115 l 1
EndSplineSet
EndChar

StartChar: uni2089
Encoding: 8329 8329 648
GlifName: uni2089
Width: 753
GlyphClass: 2
Flags: HW
HStem: -217 102<215 495> -51 39G<72 187> 55 100<233 486> 477 104<233 483>
VStem: 70 111<-78 -12 205 427> 582 102<-29 270>
LayerCount: 2
Fore
SplineSet
684 150 m 0
 684 -80 563 -217 354 -217 c 0
 206 -217 97 -139 72 -12 c 1
 178 -12 l 1
 196 -80 256 -115 354 -115 c 0
 506 -115 582 -26 582 160 c 0
 582 178 580 195 578 213 c 1
 541 115 450 55 346 55 c 0
 186 55 70 164 70 316 c 0
 70 468 189 580 355 580 c 0
 554 580 684 414 684 150 c 0
539 314 m 0
 539 406 460 477 355 477 c 0
 250 477 182 412 182 314 c 0
 182 218 250 154 355 154 c 0
 464 154 539 218 539 314 c 0
EndSplineSet
EndChar

StartChar: uni208A
Encoding: 8330 8330 649
GlifName: uni208A_
Width: 730
GlyphClass: 2
Flags: HW
HStem: 152 96<70 318 414 662>
VStem: 318 96<-96 152 248 496>
LayerCount: 2
Fore
SplineSet
414 248 m 5
 662 248 l 5
 662 152 l 5
 414 152 l 5
 414 -96 l 1
 318 -96 l 1
 318 152 l 5
 70 152 l 5
 70 248 l 5
 318 248 l 5
 318 496 l 1
 414 496 l 1
 414 248 l 5
EndSplineSet
EndChar

StartChar: uni208B
Encoding: 8331 8331 650
GlifName: uni208B_
Width: 730
GlyphClass: 2
Flags: HW
HStem: 152 96<70 662>
VStem: 70 592<152 248>
LayerCount: 2
Fore
SplineSet
70 248 m 1
 662 248 l 1
 662 152 l 1
 70 152 l 1
 70 248 l 1
EndSplineSet
EndChar

StartChar: uni208C
Encoding: 8332 8332 651
GlifName: uni208C_
Width: 730
GlyphClass: 2
Flags: HW
HStem: -18 96<70 662> 322 96<70 662>
VStem: 70 592<-18 78 322 418>
LayerCount: 2
Fore
SplineSet
70 78 m 5
 662 78 l 5
 662 -18 l 5
 70 -18 l 5
 70 78 l 5
70 418 m 5
 662 418 l 5
 662 322 l 5
 70 322 l 5
 70 418 l 5
EndSplineSet
EndChar

StartChar: uni208D
Encoding: 8333 8333 652
GlifName: uni208D_
Width: 357
GlyphClass: 2
Flags: HW
VStem: 70 105<-119 502>
LayerCount: 2
Fore
SplineSet
328 -340 m 1
 227 -340 l 1
 137 -238 70 -51 70 199 c 0
 70 435 137 615 227 713 c 1
 328 713 l 5
 226 588 176 429 176 199 c 0
 176 -45 226 -209 328 -340 c 1
EndSplineSet
EndChar

StartChar: uni208E
Encoding: 8334 8334 653
GlifName: uni208E_
Width: 357
GlyphClass: 2
Flags: HW
VStem: 182 105<-134 496>
LayerCount: 2
Fore
SplineSet
29 713 m 5
 133 713 l 5
 223 611 287 422 287 172 c 4
 287 -64 223 -242 133 -340 c 5
 29 -340 l 5
 131 -215 182 -58 182 172 c 4
 182 416 131 582 29 713 c 5
EndSplineSet
EndChar

StartChar: uni2099
Encoding: 8345 8345 654
GlifName: uni2099
Width: 839
GlyphClass: 2
Flags: HW
HStem: 492 100<300 565>
VStem: 109 102<-199 572> 152 59<297 480> 631 100<-199 425>
LayerCount: 2
Fore
SplineSet
631 271 m 2xb0
 631 425 553 492 434 492 c 0
 307 492 211 404 211 283 c 1xd0
 152 297 l 1
 154 481 308 592 453 592 c 0
 613 592 730 486 730 293 c 2
 730 -199 l 1
 631 -199 l 1
 631 271 l 2xb0
109 572 m 1
 211 572 l 1
 211 -199 l 1
 109 -199 l 1
 109 572 l 1
EndSplineSet
EndChar

StartChar: uni2460
Encoding: 9312 9312 655
GlifName: uni2460
Width: 1648
GlyphClass: 2
Flags: HW
HStem: -100 105<571 1063> 783 86<605 809> 1289 107<581 1070>
VStem: 90 105<389 898> 824 102<264 783 885 1035> 1453 107<401 899>
LayerCount: 2
Fore
SplineSet
814 6 m 0
 1195 6 1453 267 1453 652 c 0
 1453 1033 1201 1289 824 1289 c 0
 447 1289 195 1032 195 643 c 0
 195 258 441 6 814 6 c 0
1561 650 m 0
 1561 205 1255 -100 814 -100 c 0
 378 -100 90 191 90 629 c 0
 90 1080 392 1396 828 1396 c 0
 1260 1396 1561 1089 1561 650 c 0
824 1035 m 5
 926 1035 l 5
 926 264 l 5
 824 264 l 5
 824 783 l 5
 605 783 l 5
 605 869 l 5
 693 869 l 6
 781 869 824 895 824 975 c 6
 824 1035 l 5
EndSplineSet
EndChar

StartChar: uni2461
Encoding: 9313 9313 656
GlifName: uni2461
Width: 1648
GlyphClass: 2
Flags: HW
HStem: -100 105<571 1063> 264 96<623 1123> 943 102<695 977> 1289 107<581 1070>
VStem: 90 105<389 898> 520 104<768 874> 1023 107<690 895> 1453 107<401 899>
LayerCount: 2
Fore
SplineSet
814 6 m 4
 1195 6 1453 267 1453 652 c 4
 1453 1033 1201 1289 824 1289 c 4
 447 1289 195 1032 195 643 c 4
 195 258 441 6 814 6 c 4
1561 650 m 4
 1561 205 1255 -100 814 -100 c 4
 378 -100 90 191 90 629 c 4
 90 1080 392 1396 828 1396 c 4
 1260 1396 1561 1089 1561 650 c 4
623 359 m 1
 1123 359 l 1
 1123 264 l 1
 520 264 l 1
 520 293 l 2
 520 496 685 552 830 609 c 0
 934 648 1023 691 1023 785 c 0
 1023 885 957 943 840 943 c 0
 713 943 629 875 623 768 c 1
 520 768 l 1
 532 932 664 1045 840 1045 c 0
 1014 1045 1131 937 1131 777 c 0
 1131 644 1000 578 871 523 c 0
 744 470 641 431 623 359 c 1
EndSplineSet
EndChar

StartChar: uni2462
Encoding: 9314 9314 657
GlifName: uni2462
Width: 1648
GlyphClass: 2
Flags: HW
HStem: -100 105<571 1063> 248 100<670 986> 594 100<771 986> 945 102<683 966> 1289 107<581 1070>
VStem: 90 105<389 898> 518 105<397 473 809 884> 1006 105<712 904> 1025 107<388 570> 1453 107<401 899>
LayerCount: 2
Fore
SplineSet
1561 650 m 0xfe40
 1561 205 1255 -100 814 -100 c 0
 378 -100 90 191 90 629 c 0
 90 1080 392 1396 828 1396 c 0
 1260 1396 1561 1089 1561 650 c 0xfe40
814 6 m 0
 1195 6 1453 267 1453 652 c 0
 1453 1033 1201 1289 824 1289 c 0
 447 1289 195 1032 195 643 c 0
 195 258 441 6 814 6 c 0
1023 646 m 1
 1091 613 1133 553 1133 477 c 0
 1133 338 1010 248 828 248 c 0
 656 248 530 340 518 473 c 1
 623 473 l 1
 629 397 709 348 828 348 c 0
 955 348 1025 395 1025 477 c 0xfec0
 1025 553 977 594 893 594 c 2
 771 594 l 1
 771 693 l 1
 893 693 l 2
 965 693 1006 735 1006 805 c 0
 1006 895 939 945 822 945 c 0
 713 945 641 893 637 809 c 1
 529 809 l 1
 541 952 660 1047 822 1047 c 0
 996 1047 1111 951 1111 805 c 0xff40
 1111 735 1078 679 1023 646 c 1
EndSplineSet
EndChar

StartChar: uni2463
Encoding: 9315 9315 658
GlifName: uni2463
Width: 1648
GlyphClass: 2
Flags: HW
HStem: -100 105<571 1063> 461 94<609 900 1002 1148> 1289 107<581 1070>
VStem: 90 105<389 898> 900 102<264 461 555 912> 1453 107<401 899>
LayerCount: 2
Fore
SplineSet
814 6 m 4
 1195 6 1453 267 1453 652 c 4
 1453 1033 1201 1289 824 1289 c 4
 447 1289 195 1032 195 643 c 4
 195 258 441 6 814 6 c 4
1561 650 m 4
 1561 205 1255 -100 814 -100 c 4
 378 -100 90 191 90 629 c 4
 90 1080 392 1396 828 1396 c 4
 1260 1396 1561 1089 1561 650 c 4
1002 461 m 1
 1002 264 l 1
 900 264 l 1
 900 461 l 1
 502 461 l 1
 502 574 l 1
 881 1035 l 1
 1002 1035 l 1
 1002 555 l 1
 1148 555 l 1
 1148 461 l 1
 1002 461 l 1
900 555 m 1
 900 912 l 1
 609 555 l 1
 900 555 l 1
EndSplineSet
EndChar

StartChar: uni2464
Encoding: 9316 9316 659
GlifName: uni2464
Width: 1648
GlyphClass: 2
Flags: HW
HStem: -100 105<571 1063> 248 100<682 961> 693 102<703 964> 1289 107<581 1070>
VStem: 90 105<389 898> 531 107<392 473 695 711> 1012 105<399 644> 1453 107<401 899>
LayerCount: 2
Fore
SplineSet
814 6 m 4
 1195 6 1453 267 1453 652 c 4
 1453 1033 1201 1289 824 1289 c 4
 447 1289 195 1032 195 643 c 4
 195 258 441 6 814 6 c 4
1561 650 m 4
 1561 205 1255 -100 814 -100 c 4
 378 -100 90 191 90 629 c 4
 90 1080 392 1396 828 1396 c 4
 1260 1396 1561 1089 1561 650 c 4
1012 521 m 0
 1012 406 943 348 828 348 c 0
 717 348 643 397 639 473 c 1
 531 473 l 1
 543 340 662 248 828 248 c 0
 1000 248 1117 351 1117 523 c 0
 1117 679 1016 795 854 795 c 0
 762 795 690 756 643 695 c 1
 668 939 l 1
 1080 939 l 1
 1080 1035 l 1
 582 1035 l 1
 531 588 l 1
 631 588 l 1
 670 654 742 693 840 693 c 0
 949 693 1012 626 1012 521 c 0
EndSplineSet
EndChar

StartChar: uni2465
Encoding: 9317 9317 660
GlifName: uni2465
Width: 1648
GlyphClass: 2
Flags: HW
HStem: -100 105<571 1063> 248 102<724 977> 654 102<719 977> 943 102<710 973> 1289 107<581 1070>
VStem: 90 105<389 898> 518 105<601 848> 1010 105<830 904> 1025 107<398 606> 1453 107<401 899>
LayerCount: 2
Fore
SplineSet
814 6 m 4xfe40
 1195 6 1453 267 1453 652 c 4
 1453 1033 1201 1289 824 1289 c 4
 447 1289 195 1032 195 643 c 4
 195 258 441 6 814 6 c 4xfe40
1561 650 m 4
 1561 205 1255 -100 814 -100 c 4
 378 -100 90 191 90 629 c 4
 90 1080 392 1396 828 1396 c 4
 1260 1396 1561 1089 1561 650 c 4
518 639 m 0
 518 895 641 1045 848 1045 c 0
 991 1045 1092 963 1115 830 c 1
 1010 830 l 1xff40
 994 904 938 943 848 943 c 0
 698 943 623 845 623 648 c 0
 623 630 627 612 629 596 c 1
 666 694 755 756 859 756 c 0
 1017 756 1133 650 1133 502 c 0xfec0
 1133 354 1017 248 859 248 c 0
 652 248 518 401 518 639 c 0
668 502 m 0
 668 416 748 350 852 350 c 0
 957 350 1025 410 1025 502 c 0xfec0
 1025 594 957 654 852 654 c 0
 743 654 668 592 668 502 c 0
EndSplineSet
EndChar

StartChar: uni2466
Encoding: 9318 9318 661
GlifName: uni2466
Width: 1648
GlyphClass: 2
Flags: HW
HStem: -100 105<571 1063> 1289 107<581 1070>
VStem: 90 105<389 898> 689 107<264 453> 1453 107<401 899>
LayerCount: 2
Fore
SplineSet
814 6 m 4
 1195 6 1453 267 1453 652 c 4
 1453 1033 1201 1289 824 1289 c 4
 447 1289 195 1032 195 643 c 4
 195 258 441 6 814 6 c 4
1561 650 m 4
 1561 205 1255 -100 814 -100 c 4
 378 -100 90 191 90 629 c 4
 90 1080 392 1396 828 1396 c 4
 1260 1396 1561 1089 1561 650 c 4
797 264 m 1
 822 530 952 742 1141 920 c 1
 1141 1035 l 1
 510 1035 l 1
 510 939 l 1
 1041 939 l 1
 875 773 734 590 689 264 c 1
 797 264 l 1
EndSplineSet
EndChar

StartChar: uni2467
Encoding: 9319 9319 662
GlifName: uni2467
Width: 1648
GlyphClass: 2
Flags: HW
HStem: -100 105<571 1063> 248 100<661 988> 596 100<676 976> 943 102<683 970> 1289 107<581 1070>
VStem: 90 105<389 898> 518 105<388 556> 537 107<730 904> 1006 105<728 905> 1025 107<387 559> 1453 107<401 899>
LayerCount: 2
Fore
SplineSet
1561 650 m 0xfc20
 1561 205 1255 -100 814 -100 c 0
 378 -100 90 191 90 629 c 0
 90 1080 392 1396 828 1396 c 0
 1260 1396 1561 1089 1561 650 c 0xfc20
814 6 m 0
 1195 6 1453 267 1453 652 c 0
 1453 1033 1201 1289 824 1289 c 0
 447 1289 195 1032 195 643 c 0
 195 258 441 6 814 6 c 0
660 648 m 1
 584 683 537 744 537 822 c 0
 537 957 654 1045 830 1045 c 0
 1000 1045 1111 957 1111 822 c 0xfda0
 1111 744 1068 683 996 648 c 1
 1082 613 1133 547 1133 461 c 0
 1133 332 1012 248 830 248 c 0
 642 248 518 332 518 461 c 0xfe60
 518 547 572 613 660 648 c 1
824 695 m 2
 838 695 l 2
 943 695 1006 738 1006 812 c 0
 1006 896 941 943 830 943 c 0
 713 943 645 896 645 812 c 0
 645 738 711 695 824 695 c 2
824 596 m 2
 697 596 623 551 623 469 c 0
 623 393 697 348 830 348 c 0
 953 348 1025 393 1025 469 c 0xfe60
 1025 551 957 596 838 596 c 2
 824 596 l 2
EndSplineSet
EndChar

StartChar: uni2468
Encoding: 9320 9320 663
GlifName: uni2468
Width: 1648
GlyphClass: 2
Flags: HW
HStem: -100 105<571 1063> 248 100<664 948> 518 100<683 935> 939 105<682 928> 1289 107<581 1070>
VStem: 90 105<389 898> 518 113<381 451 668 888> 1029 104<434 738> 1453 107<401 899>
LayerCount: 2
Fore
SplineSet
814 6 m 4
 1195 6 1453 267 1453 652 c 4
 1453 1033 1201 1289 824 1289 c 4
 447 1289 195 1032 195 643 c 4
 195 258 441 6 814 6 c 4
1561 650 m 4
 1561 205 1255 -100 814 -100 c 4
 378 -100 90 191 90 629 c 4
 90 1080 392 1396 828 1396 c 4
 1260 1396 1561 1089 1561 650 c 4
1133 613 m 0
 1133 383 1010 248 803 248 c 0
 655 248 545 324 520 451 c 1
 627 451 l 1
 645 383 705 348 803 348 c 0
 957 348 1029 437 1029 623 c 0
 1029 641 1027 660 1025 676 c 1
 988 578 899 518 795 518 c 0
 635 518 518 627 518 779 c 0
 518 933 639 1045 805 1045 c 0
 1004 1045 1133 877 1133 613 c 0
988 777 m 0
 988 869 909 939 805 939 c 0
 700 939 631 875 631 777 c 0
 631 681 700 617 805 617 c 0
 914 617 988 681 988 777 c 0
EndSplineSet
EndChar

StartChar: uni24EA
Encoding: 9450 9450 664
GlifName: uni24E_A_
Width: 1648
GlyphClass: 2
Flags: HW
HStem: -100 105<571 1063> 248 100<705 947> 943 102<703 949> 1289 107<581 1070>
VStem: 90 105<389 898> 510 105<448 846> 1033 107<448 846> 1453 107<401 899>
LayerCount: 2
Fore
SplineSet
814 6 m 0
 1195 6 1453 267 1453 652 c 0
 1453 1033 1201 1289 824 1289 c 0
 447 1289 195 1032 195 643 c 0
 195 258 441 6 814 6 c 0
1561 650 m 0
 1561 205 1255 -100 814 -100 c 0
 378 -100 90 191 90 629 c 0
 90 1080 392 1396 828 1396 c 0
 1260 1396 1561 1089 1561 650 c 0
510 648 m 0
 510 886 637 1045 826 1045 c 0
 1014 1045 1141 886 1141 648 c 0
 1141 408 1014 248 826 248 c 0
 637 248 510 408 510 648 c 0
1033 648 m 0
 1033 836 959 943 826 943 c 0
 693 943 615 836 615 648 c 0
 615 459 693 348 826 348 c 0
 959 348 1033 459 1033 648 c 0
EndSplineSet
EndChar

StartChar: uni24FF
Encoding: 9471 9471 665
GlifName: uni24F_F_
Width: 1648
GlyphClass: 2
Flags: HW
HStem: -100 348<676 974> 348 596<705 946> 1045 352<670 974>
VStem: 90 420<434 856> 615 418<447 846> 1141 420<433 863>
LayerCount: 2
Fore
SplineSet
1561 650 m 0
 1561 205 1255 -100 814 -100 c 0
 378 -100 90 191 90 629 c 0
 90 1080 392 1396 828 1396 c 0
 1260 1396 1561 1089 1561 650 c 0
510 648 m 0
 510 408 637 248 826 248 c 0
 1014 248 1141 408 1141 648 c 0
 1141 886 1014 1045 826 1045 c 0
 637 1045 510 886 510 648 c 0
1033 648 m 0
 1033 459 959 348 826 348 c 0
 693 348 615 459 615 648 c 0
 615 836 693 943 826 943 c 0
 959 943 1033 836 1033 648 c 0
EndSplineSet
EndChar

StartChar: uni2776
Encoding: 10102 10102 666
GlifName: uni2776
Width: 1648
GlyphClass: 2
Flags: HW
VStem: 926 635<380 918>
LayerCount: 2
Fore
SplineSet
1561 650 m 0
 1561 205 1255 -100 814 -100 c 0
 378 -100 90 191 90 629 c 0
 90 1080 392 1396 828 1396 c 0
 1260 1396 1561 1089 1561 650 c 0
824 1035 m 1
 824 975 l 2
 824 895 781 869 693 869 c 2
 605 869 l 1
 605 783 l 1
 824 783 l 1
 824 264 l 1
 926 264 l 1
 926 1035 l 1
 824 1035 l 1
EndSplineSet
EndChar

StartChar: uni2777
Encoding: 10103 10103 667
GlifName: uni2777
Width: 1648
GlyphClass: 2
Flags: HW
HStem: -100 363<551 1083> 359 164<842 960> 609 334<727 926> 1045 352<671 1005>
VStem: 90 430<264 445 768 899> 1123 438<264 359 429 920>
LayerCount: 2
Fore
SplineSet
1561 650 m 0
 1561 205 1255 -100 814 -100 c 0
 378 -100 90 191 90 629 c 0
 90 1080 392 1396 828 1396 c 0
 1260 1396 1561 1089 1561 650 c 0
623 359 m 1
 641 431 744 470 871 523 c 0
 1000 578 1131 644 1131 777 c 0
 1131 937 1014 1045 840 1045 c 0
 664 1045 532 932 520 768 c 1
 623 768 l 1
 629 875 713 943 840 943 c 0
 957 943 1023 885 1023 785 c 0
 1023 691 934 648 830 609 c 0
 685 552 520 496 520 293 c 2
 520 264 l 1
 1123 264 l 1
 1123 359 l 1
 623 359 l 1
EndSplineSet
EndChar

StartChar: uni2778
Encoding: 10104 10104 668
GlifName: uni2778
Width: 1648
GlyphClass: 2
Flags: HW
HStem: -100 348<652 1013> 348 246<775 986> 693 252<774 966> 1047 350<654 990>
VStem: 1111 449<515 919> 1133 428<379 775>
LayerCount: 2
Fore
SplineSet
1561 650 m 0xf8
 1561 205 1255 -100 814 -100 c 0
 378 -100 90 191 90 629 c 0
 90 1080 392 1396 828 1396 c 0
 1260 1396 1561 1089 1561 650 c 0xf8
1023 646 m 1
 1078 679 1111 735 1111 805 c 0xf8
 1111 951 996 1047 822 1047 c 0
 660 1047 541 952 529 809 c 1
 637 809 l 1
 641 893 713 945 822 945 c 0
 939 945 1006 895 1006 805 c 0
 1006 735 965 693 893 693 c 2
 771 693 l 1
 771 594 l 1
 893 594 l 2
 977 594 1025 553 1025 477 c 0
 1025 395 955 348 828 348 c 0
 709 348 629 397 623 473 c 1
 518 473 l 1
 530 340 656 248 828 248 c 0
 1010 248 1133 338 1133 477 c 0xf4
 1133 553 1091 613 1023 646 c 1
EndSplineSet
EndChar

StartChar: uni2779
Encoding: 10105 10105 669
GlifName: uni2779
Width: 1648
GlyphClass: 2
Flags: HW
LayerCount: 2
Fore
SplineSet
1561 650 m 0
 1561 205 1255 -100 814 -100 c 0
 378 -100 90 191 90 629 c 0
 90 1080 392 1396 828 1396 c 0
 1260 1396 1561 1089 1561 650 c 0
1002 461 m 1
 1148 461 l 1
 1148 555 l 1
 1002 555 l 1
 1002 1035 l 1
 881 1035 l 1
 502 574 l 1
 502 461 l 1
 900 461 l 1
 900 264 l 1
 1002 264 l 1
 1002 461 l 1
900 555 m 1
 609 555 l 1
 900 912 l 1
 900 555 l 1
EndSplineSet
EndChar

StartChar: uni277A
Encoding: 10106 10106 670
GlifName: uni277A_
Width: 1648
GlyphClass: 2
Flags: HW
HStem: -100 348<656 994> 473 115<531 649> 795 145<703 1003> 1035 361<582 1074>
VStem: 1117 443<379 674>
LayerCount: 2
Fore
SplineSet
1561 650 m 0
 1561 205 1255 -100 814 -100 c 0
 378 -100 90 191 90 629 c 0
 90 1080 392 1396 828 1396 c 0
 1260 1396 1561 1089 1561 650 c 0
1012 521 m 0
 1012 406 943 348 828 348 c 0
 717 348 643 397 639 473 c 1
 531 473 l 1
 543 340 662 248 828 248 c 0
 1000 248 1117 351 1117 523 c 0
 1117 679 1016 795 854 795 c 0
 762 795 690 756 643 695 c 1
 668 939 l 1
 1080 939 l 1
 1080 1035 l 1
 582 1035 l 1
 531 588 l 1
 631 588 l 1
 670 654 742 693 840 693 c 0
 949 693 1012 626 1012 521 c 0
EndSplineSet
EndChar

StartChar: uni277B
Encoding: 10107 10107 671
GlifName: uni277B_
Width: 1648
GlyphClass: 2
Flags: HW
HStem: -100 348<692 1013> 350 305<722 978> 756 188<719 971> 756 74<998 1018> 1045 352<685 1003>
VStem: 90 428<435 865> 668 357<404 604> 1133 428<379 870>
LayerCount: 2
Fore
SplineSet
1561 650 m 0xcf
 1561 205 1255 -100 814 -100 c 0
 378 -100 90 191 90 629 c 0
 90 1080 392 1396 828 1396 c 0
 1260 1396 1561 1089 1561 650 c 0xcf
518 639 m 0
 518 401 652 248 859 248 c 0
 1017 248 1133 354 1133 502 c 0
 1133 650 1017 756 859 756 c 0
 755 756 666 694 629 596 c 1
 627 612 623 630 623 648 c 0
 623 845 698 943 848 943 c 0xef
 938 943 994 904 1010 830 c 1
 1115 830 l 1xdf
 1092 963 991 1045 848 1045 c 0
 641 1045 518 895 518 639 c 0
668 502 m 0
 668 592 743 654 852 654 c 0
 957 654 1025 594 1025 502 c 0
 1025 410 957 350 852 350 c 0
 748 350 668 416 668 502 c 0
EndSplineSet
EndChar

StartChar: uni277C
Encoding: 10108 10108 672
GlifName: uni277C_
Width: 1648
GlyphClass: 2
Flags: HW
HStem: 1035 361<563 1091>
VStem: 1141 420<878 1035>
LayerCount: 2
Fore
SplineSet
1561 650 m 0
 1561 205 1255 -100 814 -100 c 0
 378 -100 90 191 90 629 c 0
 90 1080 392 1396 828 1396 c 0
 1260 1396 1561 1089 1561 650 c 0
797 264 m 1
 822 530 952 742 1141 920 c 1
 1141 1035 l 1
 510 1035 l 1
 510 939 l 1
 1041 939 l 1
 875 773 734 590 689 264 c 1
 797 264 l 1
EndSplineSet
EndChar

StartChar: uni277D
Encoding: 10109 10109 673
GlifName: uni277D_
Width: 1648
GlyphClass: 2
Flags: HW
HStem: -100 348<635 1017> 348 248<662 988> 695 248<682 970> 1045 352<648 1006>
VStem: 90 447<497 906> 90 428<359 766> 623 402<388 557> 645 361<730 905> 1111 449<515 921> 1133 428<379 784>
LayerCount: 2
Fore
SplineSet
1561 650 m 0xf880
 1561 205 1255 -100 814 -100 c 0
 378 -100 90 191 90 629 c 0
 90 1080 392 1396 828 1396 c 0
 1260 1396 1561 1089 1561 650 c 0xf880
996 648 m 1
 1068 683 1111 744 1111 822 c 0
 1111 957 1000 1045 830 1045 c 0
 654 1045 537 957 537 822 c 0xf880
 537 744 584 683 660 648 c 1
 572 613 518 547 518 461 c 0
 518 332 642 248 830 248 c 0
 1012 248 1133 332 1133 461 c 0xf440
 1133 547 1082 613 996 648 c 1
838 695 m 2
 824 695 l 2
 711 695 645 738 645 812 c 0
 645 896 713 943 830 943 c 0
 941 943 1006 896 1006 812 c 0xf1
 1006 738 943 695 838 695 c 2
838 596 m 2
 957 596 1025 551 1025 469 c 0
 1025 393 953 348 830 348 c 0
 697 348 623 393 623 469 c 0xf2
 623 551 697 596 824 596 c 2
 838 596 l 2
EndSplineSet
EndChar

StartChar: uni277E
Encoding: 10110 10110 674
GlifName: uni277E_
Width: 1648
GlyphClass: 2
Flags: HW
HStem: -100 348<637 976> 348 170<664 934> 617 322<681 931> 1045 352<647 954>
VStem: 90 428<410 907> 631 357<670 881> 1133 428<413 847>
LayerCount: 2
Fore
SplineSet
1561 650 m 0
 1561 205 1255 -100 814 -100 c 0
 378 -100 90 191 90 629 c 0
 90 1080 392 1396 828 1396 c 0
 1260 1396 1561 1089 1561 650 c 0
1133 613 m 0
 1133 877 1004 1045 805 1045 c 0
 639 1045 518 933 518 779 c 0
 518 627 635 518 795 518 c 0
 899 518 988 578 1025 676 c 1
 1027 660 1029 641 1029 623 c 0
 1029 437 957 348 803 348 c 0
 705 348 645 383 627 451 c 1
 520 451 l 1
 545 324 655 248 803 248 c 0
 1010 248 1133 383 1133 613 c 0
988 777 m 0
 988 681 914 617 805 617 c 0
 700 617 631 681 631 777 c 0
 631 875 700 939 805 939 c 0
 909 939 988 869 988 777 c 0
EndSplineSet
EndChar

StartChar: filledbox
Encoding: 9632 9632 675
GlifName: filledbox
Width: 1648
GlyphClass: 2
Flags: HW
HStem: -80 1461<90 1561>
VStem: 90 1471<-80 1381>
LayerCount: 2
Fore
SplineSet
1561 -80 m 5
 90 -80 l 5
 90 1381 l 1
 1561 1381 l 1
 1561 -80 l 5
EndSplineSet
EndChar

StartChar: H22073
Encoding: 9633 9633 676
GlifName: H_22073
Width: 1648
GlyphClass: 2
Flags: HW
HStem: -80 100<189 1461> 1279 102<189 1461>
VStem: 90 100<20 1279> 1461 100<20 1279>
LayerCount: 2
Fore
SplineSet
1461 20 m 1
 1461 1279 l 1
 189 1279 l 1
 189 20 l 1
 1461 20 l 1
1561 -80 m 1
 90 -80 l 1
 90 1381 l 1
 1561 1381 l 1
 1561 -80 l 1
EndSplineSet
EndChar

StartChar: triagup
Encoding: 9650 9650 677
GlifName: triagup
Width: 1648
GlyphClass: 2
Flags: HW
LayerCount: 2
Fore
SplineSet
1561 -80 m 1
 90 -80 l 1
 824 1381 l 1
 1561 -80 l 1
EndSplineSet
EndChar

StartChar: uni25B3
Encoding: 9651 9651 678
GlifName: uni25B_3
Width: 1648
GlyphClass: 2
Flags: HW
HStem: -80 100<250 1400>
LayerCount: 2
Fore
SplineSet
1400 20 m 1
 824 1160 l 1
 250 20 l 1
 1400 20 l 1
1561 -80 m 1
 90 -80 l 1
 824 1381 l 1
 1561 -80 l 1
EndSplineSet
EndChar

StartChar: uni25B6
Encoding: 9654 9654 679
GlifName: uni25B_6
Width: 1648
GlyphClass: 2
Flags: HW
LayerCount: 2
Fore
SplineSet
96 -86 m 1
 96 1385 l 1
 1555 650 l 1
 96 -86 l 1
EndSplineSet
EndChar

StartChar: uni25B7
Encoding: 9655 9655 680
GlifName: uni25B_7
Width: 1648
GlyphClass: 2
Flags: HW
VStem: 96 100<74 1225>
LayerCount: 2
Fore
SplineSet
195 74 m 1
 1336 650 l 5
 195 1225 l 1
 195 74 l 1
96 -86 m 1
 96 1385 l 1
 1555 650 l 1
 96 -86 l 1
EndSplineSet
EndChar

StartChar: triagdn
Encoding: 9660 9660 681
GlifName: triagdn
Width: 1648
GlyphClass: 2
Flags: HW
LayerCount: 2
Fore
SplineSet
90 1381 m 1
 1561 1381 l 1
 826 -80 l 1
 90 1381 l 1
EndSplineSet
EndChar

StartChar: uni25BD
Encoding: 9661 9661 682
GlifName: uni25B_D_
Width: 1648
GlyphClass: 2
Flags: HW
HStem: 1279 102<250 1400>
LayerCount: 2
Fore
SplineSet
250 1279 m 1
 826 141 l 5
 1400 1279 l 1
 250 1279 l 1
90 1381 m 1
 1561 1381 l 1
 826 -80 l 1
 90 1381 l 1
EndSplineSet
EndChar

StartChar: uni25C0
Encoding: 9664 9664 683
GlifName: uni25C_0
Width: 1648
GlyphClass: 2
Flags: HW
LayerCount: 2
Fore
SplineSet
1555 1385 m 1
 1555 -86 l 1
 96 648 l 1
 1555 1385 l 1
EndSplineSet
EndChar

StartChar: uni25C1
Encoding: 9665 9665 684
GlifName: uni25C_1
Width: 1648
GlyphClass: 2
Flags: HW
VStem: 1455 100<74 1225>
LayerCount: 2
Fore
SplineSet
1455 1225 m 1
 314 648 l 5
 1455 74 l 1
 1455 1225 l 1
1555 1385 m 1
 1555 -86 l 1
 96 648 l 1
 1555 1385 l 1
EndSplineSet
EndChar

StartChar: uni25C6
Encoding: 9670 9670 685
GlifName: uni25C_6
Width: 1648
GlyphClass: 2
Flags: HW
LayerCount: 2
Fore
SplineSet
1561 650 m 1
 816 -100 l 1
 90 631 l 1
 828 1396 l 1
 1561 650 l 1
EndSplineSet
EndChar

StartChar: uni25C7
Encoding: 9671 9671 686
GlifName: uni25C_7
Width: 1648
GlyphClass: 2
Flags: HW
LayerCount: 2
Fore
SplineSet
1561 650 m 1
 816 -100 l 1
 90 631 l 1
 828 1396 l 1
 1561 650 l 1
812 53 m 1
 1410 654 l 1
 828 1244 l 1
 242 641 l 1
 812 53 l 1
EndSplineSet
EndChar

StartChar: lozenge
Encoding: 9674 9674 687
GlifName: lozenge
Width: 1208
GlyphClass: 2
Flags: HW
LayerCount: 2
Fore
SplineSet
592 31 m 5
 1000 656 l 1
 607 1264 l 1
 207 643 l 1
 592 31 l 5
1119 658 m 1
 637 -100 l 1
 557 -100 l 1
 90 639 l 1
 568 1396 l 1
 648 1396 l 1
 1119 658 l 1
EndSplineSet
EndChar

StartChar: circle
Encoding: 9675 9675 688
GlifName: circle
Width: 1648
GlyphClass: 2
Flags: HW
HStem: -100 105<571 1063> 1289 107<581 1070>
VStem: 90 105<389 898> 1453 107<401 899>
LayerCount: 2
Fore
SplineSet
814 6 m 4
 1195 6 1453 267 1453 652 c 4
 1453 1033 1201 1289 824 1289 c 4
 447 1289 195 1032 195 643 c 4
 195 258 441 6 814 6 c 4
1561 650 m 4
 1561 205 1255 -100 814 -100 c 4
 378 -100 90 191 90 629 c 4
 90 1080 392 1396 828 1396 c 4
 1260 1396 1561 1089 1561 650 c 4
EndSplineSet
EndChar

StartChar: H18533
Encoding: 9679 9679 689
GlifName: H_18533
Width: 1648
GlyphClass: 2
Flags: HW
HStem: -100 1496<568 1074>
VStem: 90 1471<382 900>
LayerCount: 2
Fore
SplineSet
1561 650 m 0
 1561 205 1255 -100 814 -100 c 0
 378 -100 90 191 90 629 c 0
 90 1080 392 1396 828 1396 c 0
 1260 1396 1561 1089 1561 650 c 0
EndSplineSet
EndChar

StartChar: uni25D0
Encoding: 9680 9680 690
GlifName: uni25D_0
Width: 1648
GlyphClass: 2
Flags: HW
HStem: -100 105<814 1060> 1289 107<824 1067>
VStem: 90 725<364 904> 1453 107<401 899>
LayerCount: 2
Fore
SplineSet
814 6 m 5
 1195 6 1453 267 1453 652 c 0
 1453 1033 1201 1289 824 1289 c 5
 814 6 l 5
1561 650 m 0
 1561 205 1255 -100 814 -100 c 0
 378 -100 90 191 90 629 c 0
 90 1080 392 1396 828 1396 c 0
 1260 1396 1561 1089 1561 650 c 0
EndSplineSet
EndChar

StartChar: uni25D1
Encoding: 9681 9681 691
GlifName: uni25D_1
Width: 1648
GlyphClass: 2
Flags: HW
HStem: -100 105<583 826> 1289 107<590 836>
VStem: 90 105<397 895> 826 734<391 931>
LayerCount: 2
Fore
SplineSet
836 1289 m 5
 455 1289 195 1028 195 643 c 0
 195 262 449 6 826 6 c 5
 836 1289 l 5
90 646 m 0
 90 1091 393 1396 834 1396 c 0
 1270 1396 1561 1104 1561 666 c 0
 1561 215 1256 -100 820 -100 c 0
 388 -100 90 207 90 646 c 0
EndSplineSet
EndChar

StartChar: uni25D2
Encoding: 9682 9682 692
GlifName: uni25D_2
Width: 1648
GlyphClass: 2
Flags: HW
HStem: -100 742<551 1083> 1289 107<581 1070>
VStem: 90 105<643 893> 1453 107<652 898>
LayerCount: 2
Fore
SplineSet
1453 652 m 1
 1453 1033 1201 1289 824 1289 c 0
 447 1289 195 1032 195 643 c 1
 1453 652 l 1
1561 650 m 0
 1561 205 1255 -100 814 -100 c 0
 378 -100 90 191 90 629 c 0
 90 1080 392 1396 828 1396 c 0
 1260 1396 1561 1089 1561 650 c 0
EndSplineSet
EndChar

StartChar: uni25D3
Encoding: 9683 9683 693
GlifName: uni25D_3
Width: 1648
GlyphClass: 2
Flags: HW
HStem: -100 105<579 1068> 643 754<566 1098>
VStem: 90 105<397 643> 1453 107<402 652>
LayerCount: 2
Fore
SplineSet
195 643 m 1
 195 262 449 6 826 6 c 0
 1203 6 1453 263 1453 652 c 1
 195 643 l 1
90 646 m 0
 90 1091 393 1396 834 1396 c 0
 1270 1396 1561 1104 1561 666 c 0
 1561 215 1256 -100 820 -100 c 0
 388 -100 90 207 90 646 c 0
EndSplineSet
EndChar

StartChar: uni25E2
Encoding: 9698 9698 694
GlifName: uni25E_2
Width: 1648
GlyphClass: 2
Flags: HW
LayerCount: 2
Fore
SplineSet
1561 -80 m 1
 90 -80 l 5
 1561 1381 l 5
 1561 -80 l 1
EndSplineSet
EndChar

StartChar: uni25E3
Encoding: 9699 9699 695
GlifName: uni25E_3
Width: 1648
GlyphClass: 2
Flags: HW
LayerCount: 2
Fore
SplineSet
96 -86 m 1
 96 1385 l 5
 1555 -86 l 5
 96 -86 l 1
EndSplineSet
EndChar

StartChar: uni25E4
Encoding: 9700 9700 696
GlifName: uni25E_4
Width: 1648
GlyphClass: 2
Flags: HW
LayerCount: 2
Fore
SplineSet
90 1381 m 1
 1561 1381 l 5
 90 -80 l 5
 90 1381 l 1
EndSplineSet
EndChar

StartChar: uni25E5
Encoding: 9701 9701 697
GlifName: uni25E_5
Width: 1648
GlyphClass: 2
Flags: HW
LayerCount: 2
Fore
SplineSet
1555 1385 m 1
 1555 -86 l 5
 96 1385 l 5
 1555 1385 l 1
EndSplineSet
EndChar

StartChar: uni00B2
Encoding: 178 178 698
GlifName: uni00B_2
Width: 751
GlyphClass: 2
Flags: HW
HStem: 729 96<174 674> 1408 100<246 528>
VStem: 70 105<1232 1338> 576 105<1155 1359>
LayerCount: 2
Fore
SplineSet
174 824 m 5
 674 824 l 1
 674 729 l 1
 70 729 l 1
 70 756 l 2
 70 959 240 1017 385 1074 c 0
 489 1113 576 1156 576 1250 c 0
 576 1350 508 1408 391 1408 c 0
 264 1408 182 1339 176 1232 c 1
 70 1232 l 1
 82 1396 215 1508 391 1508 c 0
 565 1508 682 1402 682 1242 c 0
 682 1109 553 1043 424 988 c 0
 297 935 192 896 174 824 c 5
EndSplineSet
EndChar

StartChar: uni00B3
Encoding: 179 179 699
GlifName: uni00B_3
Width: 753
GlyphClass: 2
Flags: HW
HStem: 713 100<221 539> 1059 100<324 529> 1078 61<443 525> 1410 100<235 513>
VStem: 70 105<860 936 1271 1351> 443 86<1059 1078 1139 1158> 559 105<1164 1368> 578 105<852 1034>
LayerCount: 2
Fore
SplineSet
529 1158 m 5xdc
 529 1059 l 5
 324 1059 l 1
 324 1158 l 1
 529 1158 l 5xdc
443 1078 m 1xbe
 443 1158 l 1xde
 515 1158 559 1198 559 1268 c 0
 559 1358 490 1410 373 1410 c 0
 264 1410 192 1355 188 1271 c 1
 82 1271 l 1
 94 1412 211 1510 373 1510 c 0
 547 1510 664 1414 664 1268 c 0
 664 1155 574 1078 443 1078 c 1xbe
443 1139 m 1xbd
 588 1139 684 1058 684 939 c 0
 684 802 563 713 381 713 c 0
 209 713 82 803 70 936 c 1
 176 936 l 1
 182 860 262 812 381 812 c 0
 506 812 578 857 578 939 c 0
 578 1015 529 1059 443 1059 c 1xdd
 443 1139 l 1xbd
EndSplineSet
EndChar

StartChar: uni00B9
Encoding: 185 185 700
GlifName: uni00B_9
Width: 439
GlyphClass: 2
Flags: HW
HStem: 1248 86<51 255>
VStem: 270 100<729 1248 1350 1500>
LayerCount: 2
Fore
SplineSet
270 1500 m 5
 369 1500 l 5
 369 729 l 5
 270 729 l 5
 270 1248 l 5
 51 1248 l 5
 51 1334 l 5
 137 1334 l 6
 225 1334 270 1358 270 1438 c 6
 270 1500 l 5
EndSplineSet
EndChar

StartChar: zero.dnom
Encoding: 65736 -1 701
GlifName: zero.dnom
Width: 769
GlyphClass: 2
Flags: HW
HStem: -16 100<265 507> 680 100<263 509>
VStem: 70 105<185 582> 594 105<185 582>
LayerCount: 2
Fore
SplineSet
70 385 m 4
 70 623 198 779 387 779 c 4
 575 779 699 623 699 385 c 4
 699 145 575 -16 387 -16 c 4
 198 -16 70 145 70 385 c 4
594 385 m 4
 594 573 520 680 387 680 c 4
 254 680 176 573 176 385 c 4
 176 196 254 84 387 84 c 4
 520 84 594 196 594 385 c 4
EndSplineSet
EndChar

StartChar: one.dnom
Encoding: 65737 -1 702
GlifName: one.dnom
Width: 439
GlyphClass: 2
Flags: HW
HStem: 0 41G<270 369> 520 86<51 254>
VStem: 270 100<0 520 623 771>
LayerCount: 2
Fore
SplineSet
270 771 m 5
 369 771 l 5
 369 0 l 5
 270 0 l 5
 270 520 l 5
 51 520 l 5
 51 605 l 5
 137 605 l 6
 225 605 270 631 270 711 c 6
 270 771 l 5
EndSplineSet
EndChar

StartChar: two.dnom
Encoding: 65738 -1 703
GlifName: two.dnom
Width: 751
GlyphClass: 2
Flags: HW
HStem: 0 96<174 674> 680 100<246 528>
VStem: 70 105<504 610> 576 105<426 631>
LayerCount: 2
Fore
SplineSet
174 96 m 5
 674 96 l 1
 674 0 l 1
 70 0 l 1
 70 27 l 2
 70 230 240 289 385 346 c 0
 489 385 576 427 576 521 c 0
 576 621 508 680 391 680 c 0
 264 680 182 611 176 504 c 1
 70 504 l 1
 82 668 215 779 391 779 c 0
 565 779 682 674 682 514 c 0
 682 381 553 315 424 260 c 0
 297 207 192 168 174 96 c 5
EndSplineSet
EndChar

StartChar: three.dnom
Encoding: 65739 -1 704
GlifName: three.dnom
Width: 753
GlyphClass: 2
Flags: HW
HStem: -16 100<221 538> 330 100<324 529> 350 61<443 525> 682 100<234 513>
VStem: 70 105<132 207 545 625> 443 86<330 350 410 430> 559 105<435 639> 578 105<124 304>
LayerCount: 2
Fore
SplineSet
529 430 m 5xdc
 529 330 l 5
 324 330 l 1
 324 430 l 1
 529 430 l 5xdc
443 350 m 1xbe
 443 430 l 1xde
 515 430 559 469 559 539 c 0
 559 629 490 682 373 682 c 0
 264 682 192 629 188 545 c 1
 82 545 l 1
 94 686 211 781 373 781 c 0
 547 781 664 685 664 539 c 0
 664 426 574 350 443 350 c 1xbe
443 410 m 1xbd
 588 410 684 332 684 213 c 0
 684 76 563 -16 381 -16 c 0
 209 -16 82 74 70 207 c 1
 176 207 l 1
 182 131 262 84 381 84 c 0
 506 84 578 131 578 213 c 0
 578 289 529 330 443 330 c 1xdd
 443 410 l 1xbd
EndSplineSet
EndChar

StartChar: four.dnom
Encoding: 65740 -1 705
GlifName: four.dnom
Width: 787
GlyphClass: 2
Flags: HW
HStem: 0 41G<471 570> 195 94<176 471 570 719>
VStem: 471 100<0 195 289 648>
LayerCount: 2
Fore
SplineSet
570 195 m 1
 570 0 l 1
 471 0 l 1
 471 195 l 1
 70 195 l 1
 70 311 l 1
 449 771 l 1
 570 771 l 1
 570 289 l 1
 719 289 l 1
 719 195 l 1
 570 195 l 1
471 289 m 1
 471 648 l 1
 176 289 l 1
 471 289 l 1
EndSplineSet
EndChar

StartChar: five.dnom
Encoding: 65741 -1 706
GlifName: five.dnom
Width: 724
GlyphClass: 2
Flags: HW
HStem: -16 100<217 499> 430 100<239 503>
VStem: 70 105<127 207 432 452> 551 105<136 380>
LayerCount: 2
Fore
SplineSet
551 258 m 0
 551 143 482 84 365 84 c 0
 252 84 180 131 176 207 c 1
 70 207 l 1
 82 74 199 -16 365 -16 c 0
 537 -16 656 88 656 260 c 0
 656 416 555 529 393 529 c 0
 301 529 227 493 180 432 c 1
 205 676 l 1
 617 676 l 1
 617 771 l 1
 119 771 l 1
 70 324 l 1
 168 324 l 1
 207 388 281 430 379 430 c 0
 490 430 551 363 551 258 c 0
EndSplineSet
EndChar

StartChar: six.dnom
Encoding: 65742 -1 707
GlifName: six.dnom
Width: 753
GlyphClass: 2
Flags: HW
HStem: -16 102<276 529> 391 102<271 529> 680 100<262 525>
VStem: 70 105<336 588> 562 105<566 641> 578 105<134 342>
LayerCount: 2
Fore
SplineSet
70 373 m 0xf4
 70 629 191 779 400 779 c 0
 541 779 643 699 668 566 c 1
 562 566 l 1xf8
 546 640 490 680 400 680 c 0
 250 680 176 584 176 385 c 0
 176 367 178 350 180 332 c 1
 217 432 308 492 412 492 c 0
 570 492 684 386 684 238 c 0
 684 90 570 -16 412 -16 c 0
 203 -16 70 135 70 373 c 0xf4
221 238 m 0
 221 150 299 86 404 86 c 0
 509 86 578 146 578 238 c 0xf4
 578 330 509 391 404 391 c 0
 295 391 221 328 221 238 c 0
EndSplineSet
EndChar

StartChar: seven.dnom
Encoding: 65743 -1 708
GlifName: seven.dnom
Width: 771
GlyphClass: 2
Flags: HW
VStem: 248 107<0 190>
LayerCount: 2
Fore
SplineSet
355 0 m 5
 380 268 512 478 701 656 c 5
 701 771 l 5
 70 771 l 5
 70 676 l 5
 600 676 l 5
 434 510 291 324 248 0 c 5
 355 0 l 5
EndSplineSet
EndChar

StartChar: eight.dnom
Encoding: 65744 -1 709
GlifName: eight.dnom
Width: 753
GlyphClass: 2
Flags: HW
HStem: -16 100<214 539> 332 100<355 410> 352 61<361 377 391 406> 680 100<237 523>
VStem: 70 105<123 290> 90 105<468 640> 355 21<332 432> 391 20<332 352 412 432> 559 105<464 644> 578 105<122 294>
LayerCount: 2
Fore
SplineSet
383 779 m 1xb7
 383 680 l 1
 264 680 195 633 195 549 c 0
 195 475 264 432 377 432 c 1xd7
 377 352 l 1
 205 352 90 436 90 559 c 0
 90 692 207 779 383 779 c 1xb7
383 84 m 1
 383 -16 l 1
 195 -16 70 68 70 195 c 0
 70 324 193 412 377 412 c 1xbb
 377 332 l 1
 250 332 176 285 176 203 c 0xdb
 176 127 252 84 383 84 c 1
410 432 m 1xd3
 410 332 l 1
 355 332 l 1
 355 432 l 1
 410 432 l 1xd3
383 779 m 1
 553 779 664 692 664 559 c 0
 664 436 555 352 391 352 c 1xb380
 391 432 l 1
 498 432 559 475 559 549 c 0xd380
 559 633 496 680 383 680 c 1
 383 779 l 1
383 84 m 1
 508 84 578 127 578 203 c 0
 578 285 510 332 391 332 c 1xd340
 391 412 l 1
 567 412 684 324 684 195 c 0xb340
 684 68 565 -16 383 -16 c 1
 383 84 l 1
EndSplineSet
EndChar

StartChar: nine.dnom
Encoding: 65745 -1 710
GlifName: nine.dnom
Width: 753
GlyphClass: 2
Flags: HW
HStem: -16 100<215 495> 254 100<233 486> 676 104<233 483>
VStem: 70 111<117 188 404 626> 582 102<170 470>
LayerCount: 2
Fore
SplineSet
684 350 m 4
 684 120 563 -16 354 -16 c 4
 206 -16 97 61 72 188 c 5
 178 188 l 5
 196 120 256 84 354 84 c 4
 506 84 582 173 582 359 c 4
 582 377 580 394 578 412 c 5
 541 314 450 254 346 254 c 4
 186 254 70 364 70 516 c 4
 70 668 189 779 355 779 c 4
 554 779 684 614 684 350 c 4
539 514 m 4
 539 606 460 676 355 676 c 4
 250 676 182 612 182 514 c 4
 182 418 250 354 355 354 c 4
 464 354 539 418 539 514 c 4
EndSplineSet
EndChar

StartChar: zero.numr
Encoding: 65746 -1 711
GlifName: zero.numr
Width: 769
GlyphClass: 2
Flags: HW
HStem: 512 100<265 507> 1207 102<263 509>
VStem: 70 105<712 1110> 594 105<712 1110>
LayerCount: 2
Fore
SplineSet
70 912 m 4
 70 1150 198 1309 387 1309 c 4
 575 1309 699 1150 699 912 c 4
 699 672 575 512 387 512 c 4
 198 512 70 672 70 912 c 4
594 912 m 4
 594 1100 520 1207 387 1207 c 4
 254 1207 176 1100 176 912 c 4
 176 723 254 611 387 611 c 4
 520 611 594 723 594 912 c 4
EndSplineSet
EndChar

StartChar: one.numr
Encoding: 65747 -1 712
GlifName: one.numr
Width: 439
GlyphClass: 2
Flags: HW
HStem: 1049 86<51 255> 1262 39G<270 369>
VStem: 270 100<527 1049 1151 1301>
LayerCount: 2
Fore
SplineSet
270 1301 m 5
 369 1301 l 5
 369 527 l 5
 270 527 l 5
 270 1049 l 5
 51 1049 l 5
 51 1135 l 5
 137 1135 l 6
 225 1135 270 1158 270 1238 c 6
 270 1301 l 5
EndSplineSet
EndChar

StartChar: two.numr
Encoding: 65748 -1 713
GlifName: two.numr
Width: 751
GlyphClass: 2
Flags: HW
HStem: 527 96<174 674> 1207 102<246 530>
VStem: 70 105<1031 1137> 576 105<955 1160>
LayerCount: 2
Fore
SplineSet
174 623 m 5
 674 623 l 1
 674 527 l 1
 70 527 l 1
 70 557 l 2
 70 760 240 816 385 873 c 0
 489 912 576 957 576 1051 c 0
 576 1151 508 1207 391 1207 c 0
 264 1207 182 1138 176 1031 c 1
 70 1031 l 1
 82 1195 215 1309 391 1309 c 0
 565 1309 682 1203 682 1043 c 0
 682 910 553 842 424 787 c 0
 297 734 192 695 174 623 c 5
EndSplineSet
EndChar

StartChar: three.numr
Encoding: 65749 -1 714
GlifName: three.numr
Width: 753
GlyphClass: 2
Flags: HW
HStem: 512 100<223 538> 857 100<324 529> 879 59<443 525> 1211 100<235 513>
VStem: 70 105<661 736 1072 1152> 443 86<857 879 938 957> 559 105<977 1168> 578 105<652 831>
LayerCount: 2
Fore
SplineSet
529 957 m 5xdc
 529 857 l 5
 324 857 l 1
 324 957 l 1
 529 957 l 5xdc
443 879 m 1xbe
 443 957 l 1xde
 515 957 559 998 559 1068 c 0
 559 1158 490 1211 373 1211 c 0
 264 1211 192 1156 188 1072 c 1
 82 1072 l 1
 94 1213 211 1311 373 1311 c 0
 547 1311 664 1214 664 1068 c 0
 664 955 574 879 443 879 c 1xbe
443 938 m 1xbd
 588 938 684 859 684 740 c 0
 684 603 563 512 381 512 c 0
 209 512 82 603 70 736 c 1
 176 736 l 1
 182 660 262 611 381 611 c 0
 506 611 578 658 578 740 c 0
 578 816 529 857 443 857 c 1xdd
 443 938 l 1xbd
EndSplineSet
EndChar

StartChar: four.numr
Encoding: 65750 -1 715
GlifName: four.numr
Width: 787
GlyphClass: 2
Flags: HW
HStem: 725 94<176 471 570 719> 1262 39G<417 570>
VStem: 471 100<527 725 818 1176>
LayerCount: 2
Fore
SplineSet
570 725 m 1
 570 527 l 1
 471 527 l 1
 471 725 l 1
 70 725 l 1
 70 838 l 1
 449 1301 l 1
 570 1301 l 1
 570 818 l 1
 719 818 l 1
 719 725 l 1
 570 725 l 1
471 818 m 1
 471 1176 l 1
 176 818 l 1
 471 818 l 1
EndSplineSet
EndChar

StartChar: five.numr
Encoding: 65751 -1 716
GlifName: five.numr
Width: 724
GlyphClass: 2
Flags: HW
HStem: 512 100<219 499> 957 102<239 503>
VStem: 70 105<656 736 961 980> 551 105<663 908>
LayerCount: 2
Fore
SplineSet
551 785 m 0
 551 670 482 611 365 611 c 0
 252 611 180 660 176 736 c 1
 70 736 l 1
 82 603 199 512 365 512 c 0
 537 512 656 615 656 787 c 0
 656 943 555 1059 393 1059 c 0
 301 1059 227 1022 180 961 c 1
 205 1203 l 1
 617 1203 l 1
 617 1301 l 1
 119 1301 l 1
 70 852 l 1
 168 852 l 1
 207 916 281 957 379 957 c 0
 490 957 551 890 551 785 c 0
EndSplineSet
EndChar

StartChar: six.numr
Encoding: 65752 -1 717
GlifName: six.numr
Width: 753
GlyphClass: 2
Flags: HW
HStem: 512 102<276 529> 918 102<271 529> 1207 102<262 525>
VStem: 70 105<865 1112> 562 105<1094 1168> 578 105<662 870>
LayerCount: 2
Fore
SplineSet
70 902 m 0xf4
 70 1158 191 1309 400 1309 c 0
 541 1309 643 1227 668 1094 c 1
 562 1094 l 1xf8
 546 1168 490 1207 400 1207 c 0
 250 1207 176 1111 176 912 c 0
 176 894 178 877 180 859 c 1
 217 959 308 1020 412 1020 c 0
 570 1020 684 914 684 766 c 0
 684 618 570 512 412 512 c 0
 203 512 70 664 70 902 c 0xf4
221 766 m 0
 221 678 299 613 404 613 c 0
 509 613 578 674 578 766 c 0xf4
 578 858 509 918 404 918 c 0
 295 918 221 856 221 766 c 0
EndSplineSet
EndChar

StartChar: seven.numr
Encoding: 65753 -1 718
GlifName: seven.numr
Width: 771
GlyphClass: 2
Flags: HW
VStem: 248 107<527 718>
LayerCount: 2
Fore
SplineSet
355 527 m 5
 380 795 512 1006 701 1184 c 5
 701 1301 l 5
 70 1301 l 5
 70 1203 l 5
 600 1203 l 5
 434 1037 291 851 248 527 c 5
 355 527 l 5
EndSplineSet
EndChar

StartChar: eight.numr
Encoding: 65754 -1 719
GlifName: eight.numr
Width: 753
GlyphClass: 2
Flags: HW
HStem: 512 100<215 539> 859 102<355 410> 881 59<361 377 391 406> 1207 102<237 523>
VStem: 70 105<652 819> 90 105<996 1168> 355 21<859 961> 391 20<859 881 939 961> 559 105<992 1171> 578 105<651 822>
LayerCount: 2
Fore
SplineSet
383 1309 m 1xb7
 383 1207 l 1
 264 1207 195 1160 195 1076 c 0
 195 1002 264 961 377 961 c 1xd7
 377 881 l 1
 205 881 90 963 90 1086 c 0
 90 1219 207 1309 383 1309 c 1xb7
383 611 m 1
 383 512 l 1
 195 512 70 598 70 725 c 0
 70 854 193 939 377 939 c 1xbb
 377 859 l 1
 250 859 176 814 176 732 c 0xdb
 176 656 252 611 383 611 c 1
410 961 m 1xd3
 410 859 l 1
 355 859 l 1
 355 961 l 1
 410 961 l 1xd3
383 1309 m 1
 553 1309 664 1219 664 1086 c 0
 664 963 555 881 391 881 c 1xb380
 391 961 l 1
 498 961 559 1002 559 1076 c 0xd380
 559 1160 496 1207 383 1207 c 1
 383 1309 l 1
383 611 m 1
 508 611 578 656 578 732 c 0
 578 814 510 859 391 859 c 1xd340
 391 939 l 1
 567 939 684 854 684 725 c 0xb340
 684 598 565 512 383 512 c 1
 383 611 l 1
EndSplineSet
EndChar

StartChar: nine.numr
Encoding: 65755 -1 720
GlifName: nine.numr
Width: 753
GlyphClass: 2
Flags: HW
HStem: 512 100<216 495> 781 102<233 486> 1203 105<232 483>
VStem: 70 111<646 717 933 1155> 582 102<699 998>
LayerCount: 2
Fore
SplineSet
684 879 m 0
 684 649 563 512 354 512 c 0
 206 512 97 590 72 717 c 1
 178 717 l 1
 196 649 256 611 354 611 c 0
 506 611 582 703 582 889 c 0
 582 907 580 921 578 939 c 1
 541 841 450 781 346 781 c 0
 186 781 70 893 70 1045 c 0
 70 1197 189 1309 355 1309 c 0
 554 1309 684 1143 684 879 c 0
539 1043 m 0
 539 1135 460 1203 355 1203 c 0
 250 1203 182 1141 182 1043 c 0
 182 947 250 883 355 883 c 0
 464 883 539 947 539 1043 c 0
EndSplineSet
EndChar

StartChar: onequarter
Encoding: 188 188 722
GlifName: onequarter
Width: 1667
GlyphClass: 3
Flags: HW
HStem: 0 41G<510 637 1350 1449> 195 94<1057 1350 1449 1598> 1049 86<170 376> 1262 39G<391 490 1031 1158>
VStem: 391 100<527 1049 1151 1301> 1350 100<0 195 289 648>
LayerCount: 2
Fore
SplineSet
1047 1301 m 5
 1158 1301 l 5
 621 0 l 5
 510 0 l 5
 1047 1301 l 5
1449 195 m 1
 1449 0 l 1
 1350 0 l 1
 1350 195 l 1
 949 195 l 1
 949 311 l 1
 1330 771 l 1
 1449 771 l 1
 1449 289 l 1
 1598 289 l 1
 1598 195 l 1
 1449 195 l 1
1350 289 m 1
 1350 648 l 1
 1057 289 l 1
 1350 289 l 1
391 1301 m 1
 490 1301 l 1
 490 527 l 1
 391 527 l 1
 391 1049 l 1
 170 1049 l 1
 170 1135 l 1
 256 1135 l 2
 344 1135 391 1158 391 1238 c 2
 391 1301 l 1
EndSplineSet
Ligature2: "'frac' Diagonal Fractions lookup 22-1" one slash four
EndChar

StartChar: onehalf
Encoding: 189 189 723
GlifName: onehalf
Width: 1667
GlyphClass: 3
Flags: HW
HStem: 0 96<1084 1584> 680 100<1156 1438> 1049 86<170 376> 1262 39G<391 490 1031 1158>
VStem: 391 100<527 1049 1151 1301> 980 105<504 610> 1486 105<426 631>
LayerCount: 2
Fore
SplineSet
1047 1301 m 1
 1158 1301 l 1
 621 0 l 1
 510 0 l 1
 1047 1301 l 1
1084 96 m 1
 1584 96 l 1
 1584 0 l 1
 980 0 l 1
 980 27 l 2
 980 230 1150 289 1295 346 c 0
 1399 385 1486 427 1486 521 c 0
 1486 621 1418 680 1301 680 c 0
 1174 680 1092 611 1086 504 c 1
 980 504 l 1
 992 668 1125 779 1301 779 c 0
 1475 779 1592 674 1592 514 c 0
 1592 381 1463 315 1334 260 c 0
 1207 207 1102 168 1084 96 c 1
391 1301 m 1
 490 1301 l 1
 490 527 l 1
 391 527 l 1
 391 1049 l 1
 170 1049 l 1
 170 1135 l 1
 256 1135 l 2
 344 1135 391 1158 391 1238 c 2
 391 1301 l 1
EndSplineSet
Ligature2: "'frac' Diagonal Fractions lookup 22-1" one slash two
EndChar

